<svg xmlns="http://www.w3.org/2000/svg" width="175.307" height="175.34" viewBox="0 0 175.307 175.34">
  <g id="Group_115992" data-name="Group 115992" transform="translate(-0.449)">
    <path id="Path_161773" data-name="Path 161773" d="M175.311,51.551c-.411-9.317-1.917-15.721-4.076-21.272A44.913,44.913,0,0,0,145.579,4.624C140,2.466,133.625.959,124.308.549,114.922.1,111.942,0,88.137,0S61.351.1,52,.514C42.683.925,36.278,2.433,30.73,4.589a42.78,42.78,0,0,0-15.552,10.14,43.17,43.17,0,0,0-10.1,15.517C2.915,35.829,1.408,42.2,1,51.516.552,60.9.449,63.882.449,87.688s.1,26.786.514,36.137c.411,9.317,1.919,15.721,4.077,21.272a44.908,44.908,0,0,0,25.655,25.655c5.583,2.158,11.954,3.665,21.272,4.075,9.35.412,12.331.514,36.137.514s26.785-.1,36.137-.514c9.316-.411,15.721-1.917,21.27-4.075A44.849,44.849,0,0,0,171.167,145.1c2.157-5.584,3.665-11.955,4.075-21.272.411-9.351.514-12.331.514-36.137S175.721,60.9,175.311,51.551Zm-15.79,71.589c-.377,8.563-1.816,13.187-3.015,16.27a29.088,29.088,0,0,1-16.648,16.648c-3.083,1.2-7.74,2.637-16.27,3.013-9.248.412-12.022.514-35.417.514s-26.2-.1-35.419-.514c-8.563-.376-13.187-1.814-16.27-3.013a26.986,26.986,0,0,1-10.07-6.543,27.259,27.259,0,0,1-6.543-10.07c-1.2-3.083-2.637-7.742-3.013-16.27-.412-9.248-.514-12.023-.514-35.419s.1-26.2.514-35.417c.376-8.563,1.814-13.187,3.013-16.27A26.648,26.648,0,0,1,26.448,26a27.211,27.211,0,0,1,10.07-6.541c3.083-1.2,7.742-2.637,16.27-3.015,9.248-.411,12.023-.514,35.417-.514,23.43,0,26.2.1,35.419.514,8.563.377,13.187,1.815,16.27,3.014A26.964,26.964,0,0,1,149.963,26a27.257,27.257,0,0,1,6.543,10.071c1.2,3.083,2.637,7.74,3.014,16.27.411,9.248.514,12.022.514,35.417s-.1,26.135-.514,35.384Zm0,0" transform="translate(0 0)"/>
    <path id="Path_161774" data-name="Path 161774" d="M169.993,100.9a45.043,45.043,0,1,0,45.043,45.043A45.054,45.054,0,0,0,169.993,100.9Zm0,74.26a29.218,29.218,0,1,1,29.218-29.218A29.223,29.223,0,0,1,169.993,175.159Zm57.34-76.042A10.516,10.516,0,1,1,216.816,88.6a10.517,10.517,0,0,1,10.517,10.515Zm0,0" transform="translate(-81.856 -58.253)"/>
  </g>
</svg>
