<svg xmlns="http://www.w3.org/2000/svg" width="20.001" height="20" viewBox="0 0 20.001 20">
  <path id="Path_6" data-name="Path 6" d="M16.689,4.3A17.231,17.231,0,0,0,12,4c-1.411,0-2.42,0-3.215.055a5.266,5.266,0,0,0-1.7.326A5,5,0,0,0,4.38,7.087a5.272,5.272,0,0,0-.326,1.7C4,9.58,4,10.588,4,12s0,2.42.055,3.215a5.266,5.266,0,0,0,.326,1.7,5,5,0,0,0,2.706,2.706,5.272,5.272,0,0,0,1.7.326C9.58,20,10.59,20,12,20s2.42,0,3.215-.055a5.266,5.266,0,0,0,1.7-.326,5,5,0,0,0,2.706-2.706,5.272,5.272,0,0,0,.326-1.7C20,14.42,20,13.412,20,12c0-.766,0-1.416-.01-1.984a1,1,0,1,1,2-.032c.01.585.01,1.251.01,2.01v.043c0,1.367,0,2.443-.06,3.314a7.239,7.239,0,0,1-.473,2.328,7,7,0,0,1-3.788,3.788,7.266,7.266,0,0,1-2.328.474C14.481,22,13.4,22,12.037,22h-.074c-1.367,0-2.443,0-3.314-.06a7.239,7.239,0,0,1-2.328-.473,7,7,0,0,1-3.788-3.788,7.266,7.266,0,0,1-.474-2.328C2,14.481,2,13.4,2,12.037v-.074C2,10.6,2,9.52,2.06,8.649a7.239,7.239,0,0,1,.473-2.328A7,7,0,0,1,6.32,2.533a7.266,7.266,0,0,1,2.328-.474C9.519,2,10.6,2,11.963,2h.252a17.622,17.622,0,0,1,5.1.4,1,1,0,0,1-.622,1.9Zm5.175.7a1,1,0,0,1-.36,1.368l-.222.129a20.935,20.935,0,0,0-8.3,8.964,1,1,0,0,1-1.607.272l-4.013-4.01a1,1,0,1,1,1.413-1.414l3.05,3.047a22.935,22.935,0,0,1,8.445-8.587l.222-.129A1,1,0,0,1,21.864,5Z" transform="translate(-2 -2)" fill="#ed2323" fill-rule="evenodd"/>
</svg>
