<svg xmlns="http://www.w3.org/2000/svg" xmlns:xlink="http://www.w3.org/1999/xlink" width="347" height="356" viewBox="0 0 347 356">
  <defs>
    <clipPath id="clip-path">
      <rect id="Rectangle_13822" data-name="Rectangle 13822" width="347" height="356" transform="translate(1573 6249)" fill="#fff" stroke="#707070" stroke-width="1"/>
    </clipPath>
  </defs>
  <g id="Mask_Group_31" data-name="Mask Group 31" transform="translate(-1573 -6249)" clip-path="url(#clip-path)">
    <g id="Group_60" data-name="Group 60" transform="translate(1277.946 925.459)" opacity="0.1">
      <g id="Group_55" data-name="Group 55" transform="translate(743.113 5214.342)">
        <g id="Group_47" data-name="Group 47" transform="translate(0 0)">
          <path id="Path_67" data-name="Path 67" d="M657.034,95.522a33.958,33.958,0,0,1-1.3-20.32c1.53-7,3.536-14,4.092-21.092,1.411-18.04-7.954-34.125-22.928-40.645-9.776-4.256-19.825-3.892-30.089-2.016-28,5.11-54.5,14.48-80,26.995-10.776,5.288-22.19,8.547-34.4,7.844-10.638-.613-20.17-4.359-29.687-10.573,4.419-.3,8.005-.556,11.59-.769,21.775-1.29,41.889-8.053,60.627-18.915C545.316,10.018,555.2,3.157,565.517-2.958a162.734,162.734,0,0,1,55.923-20.9C644.694-27.812,664.373-21,679.71-2.809c8.638,10.242,9.651,22.206,5.422,34.226-4.864,13.827-10.816,27.281-16.581,40.777-3.023,7.088-6.658,13.919-10.034,20.861C658.173,93.757,657.709,94.41,657.034,95.522Z" transform="translate(-448.462 24.945)" fill="#fff"/>
          <path id="Path_68" data-name="Path 68" d="M734.9,298.594a6.812,6.812,0,0,1,.109.814c-1.108,11-1.108,11-12,11-4.389,0-8.778.044-13.165-.024-1.634-.026-2.368.512-2.731,2.208-2.157,10.083-4.489,20.13-6.67,30.208-.69,3.192.42,4.821,3.7,5.793,3.49,1.035,7.009,1.969,10.876,3.048-.362,1.87-.706,3.642-1.062,5.5H664.01c-.124-5.023.119-5.361,4.616-6.6,2.612-.719,5.213-1.483,7.838-2.15a6.854,6.854,0,0,0,5.354-5.176c2.449-10.552,4.707-21.15,7.023-31.734.041-.18-.08-.4-.219-1.008H623.27c1.525-5.442,1.394-10.536,5.757-14.745,30.592-29.514,60.926-59.3,91.4-88.937a6.34,6.34,0,0,1,3.519-1.444,64.093,64.093,0,0,1,6.819-.063l-20.549,93.307Zm-28.484-65.086-.57-.374L638.173,298.65h53.535Z" transform="translate(-508.31 -60.861)" fill="#fff"/>
          <path id="Path_69" data-name="Path 69" d="M440.894,515.917c0-5.162,2.082-11.244,3.449-18.381,5.712-29.853,14.982-58.727,24.4-87.553,4.005-12.264,7.167-24.93,12.477-36.612,7.452-16.395,16.472-32.082,24.993-47.979,2.138-3.986,5.157-7.357,9.748-8.842,5.109-1.653,9-.645,12.232,3.606a27.063,27.063,0,0,1,4.148,6.959c4.277,11.955,8.423,23.963,12.332,36.045.935,2.89,1.8,8.576,0,9.821s-5.475-1.844-7.192-4.837a35.238,35.238,0,0,1-2.582-6.007c-3.406-9.834-13.578-12.236-19.829-3.936-7.257,9.636-14.292,19.665-19.753,30.376-8.745,17.16-16.62,34.815-23.861,52.67-4.086,10.078-6.14,20.972-9.152,31.487-3.961,13.823-8.547,27.419-15.005,40.311-.886,1.767-1.952,3.446-2.971,5.14C444.077,518.609,440.891,521.08,440.894,515.917Z" transform="translate(-440.894 -102.078)" fill="#fff"/>
        </g>
        <path id="Subtraction_9" data-name="Subtraction 9" d="M36.7,105.791c-.779,0-1.579-.015-2.377-.041a36.244,36.244,0,0,1-11.825-2.355,32.368,32.368,0,0,1-9.776-5.924,34.265,34.265,0,0,1-7.28-9.122A41.843,41.843,0,0,1,1.1,76.4C-1.33,64.528.3,50.3,5.593,37.376A69.393,69.393,0,0,1,16.074,19.585,53.17,53.17,0,0,1,31.462,6.551a54.6,54.6,0,0,1,11.91-4.889A46.617,46.617,0,0,1,55.644,0,49.391,49.391,0,0,1,69.437,2.029a19.591,19.591,0,0,1,8.119,4.629,19.885,19.885,0,0,1,4.927,7.491,22.474,22.474,0,0,1,1.253,10.286,24.945,24.945,0,0,1-3.77,10.652A33.518,33.518,0,0,1,67.74,46.615a58.7,58.7,0,0,1-15.728,5.758,62.041,62.041,0,0,1-13.56,2.016,24.415,24.415,0,0,1-2.988-.168c-.975.018-1.852.027-2.684.027a53.608,53.608,0,0,1-10.408-.838,7.458,7.458,0,0,0-1.411-.161c-1.464,0-2.217.743-2.378,2.338-.944,9.565-.965,20.608,6.04,29.986,4.249,5.7,11.5,8.96,19.879,8.96a33.345,33.345,0,0,0,16.469-4.411c3.145-1.792,6.184-3.9,9.122-5.935l.01-.008.025-.017c1.6-1.109,3.26-2.261,4.917-3.346.162-.106.325-.221.495-.344a3.817,3.817,0,0,1,2.06-.944,1.734,1.734,0,0,1,.965.3c1.008.651.742,1.557.487,2.435a4.912,4.912,0,0,0-.236,1.128,9.821,9.821,0,0,1-2.4,6.164,26.138,26.138,0,0,1-4.92,4.127c-.632.447-1.284.907-1.915,1.386a52.182,52.182,0,0,1-15.615,8.15A56.752,56.752,0,0,1,36.7,105.791ZM50.235,8.09a17.1,17.1,0,0,0-10.763,3.954c-8.74,6.913-13.428,16.463-16.535,24.013-2,4.849-3,7.441-2.14,8.739s3.658,1.358,8.534,1.358h1.29l.013.178c1.235-.088,2.492-.162,3.709-.234l.108-.006h.018c2.7-.159,5.494-.326,8.224-.63C56.9,43.875,65.924,34.03,65.686,20.385c-.08-4.584-2.135-7.991-5.946-9.854A21.768,21.768,0,0,0,50.235,8.09Z" transform="translate(240.411 144.252)" fill="#fff" stroke="rgba(0,0,0,0)" stroke-miterlimit="10" stroke-width="1"/>
      </g>
      <path id="Subtraction_13" data-name="Subtraction 13" d="M-27.815-4074.442a18.713,18.713,0,0,1-4.143-.458,18.16,18.16,0,0,1-11.394-7.89,17.88,17.88,0,0,1-2.46-13.564,18.48,18.48,0,0,1,2.341-5.83,18.188,18.188,0,0,1,3.988-4.572,17.718,17.718,0,0,1,11.216-4.026,17.52,17.52,0,0,1,3.792.4,18.792,18.792,0,0,1,8.72,4.256,17.678,17.678,0,0,1,5.1,8.39c.579,1.983,1.661,3.079,3.046,3.079a4.742,4.742,0,0,0,3.159-1.64c3.955-3.906,8.057-8.031,11.675-11.672l.089-.084q2.066-2.071,4.132-4.151c.891-.892,1.8-1.8,2.682-2.675l.2-.2c2.849-2.838,5.791-5.765,8.585-8.736a6.094,6.094,0,0,0,1.574-3.665c.069-2.828.059-5.7.048-8.483-.012-3.292-.025-6.69.1-10.032a7.886,7.886,0,0,1,1.974-4.819c5.184-5.354,10.532-10.712,15.705-15.9l.012,0c3.1-3.111,6.3-6.318,9.467-9.53a6.8,6.8,0,0,1,5.23-2.245h.163c3.778.061,7.536.068,11.035.068h6.508c3.015,0,6.587.007,10.239.059h.219c2.923,0,4.577-.935,5.723-3.233-.2-.042-.4-.091-.57-.133a4.53,4.53,0,0,0-1.089-.194l-4.676-.009h-.546c-4.9-.012-9.972-.026-14.954-.026-5.845,0-10.956.017-15.633.057a5.462,5.462,0,0,0-3.426,1.574c-8.3,8.225-19.2,19.076-30.016,30.162a7.91,7.91,0,0,0-1.944,4.776c-.134,2.551-.118,5.146-.1,7.649v.073c.013,2.226.027,4.524-.065,6.783a6.666,6.666,0,0,1-1.66,3.992c-1.892,1.99-3.923,3.915-5.887,5.774l-.014.017c-1.252,1.184-2.549,2.413-3.8,3.644a6.979,6.979,0,0,0-1.283,2.153l-.072.168a11.637,11.637,0,0,1-4.1,5.031,10.583,10.583,0,0,1-6,1.766h-.005a14,14,0,0,1-2.439-.235,10.644,10.644,0,0,1-8.643-10.208,11.606,11.606,0,0,1,2.065-7.227,10.621,10.621,0,0,1,5.981-4.165,10.756,10.756,0,0,1,2.822-.374,10.923,10.923,0,0,1,5.692,1.61,11.911,11.911,0,0,1,4.233,4.51c.185.339.354.685.589,1.164l.012.026c.127.261.272.563.449.913.692-.693,1.384-1.378,2.052-2.032l.026-.03c1.866-1.843,3.628-3.574,5.309-5.436a4.041,4.041,0,0,0,.5-2.476v-.152q.009-1.05.02-2.113c.04-4.055.082-8.264-.059-12.387a6.352,6.352,0,0,1,2.128-5.1c3.962-3.943,7.979-7.961,11.863-11.843l.182-.182.011-.01c6.764-6.77,13.76-13.774,20.713-20.59,1.292-1.257,3.978-1.376,4.77-1.39,7.1-.049,13.5-.072,19.561-.072,7.12,0,13.642.03,19.94.107h.134a6.251,6.251,0,0,0,5.835-3.343c-.377-.014-.717-.038-1.06-.065-.653-.035-1.218-.074-1.793-.074l-9.01-.013c-4.3,0-9.661-.009-14.736-.009-10.475,0-18.574.028-26.259.077a6.718,6.718,0,0,0-4.271,1.7c-7.271,7.176-14.571,14.482-21.63,21.543-4.274,4.279-8.693,8.7-13.118,13.1-1.512,1.5-2.1,2.6-1.319,4.765a9.51,9.51,0,0,1-.437,7.1A11.539,11.539,0,0,1,.2-4135.831a10.843,10.843,0,0,1-5.1,1.254,11.526,11.526,0,0,1-4.708-1.014,11.044,11.044,0,0,1-3.914-2.957,11.15,11.15,0,0,1-2.569-6.958,10.939,10.939,0,0,1,2.281-7,11.118,11.118,0,0,1,8.69-4.328,10.406,10.406,0,0,1,4.579,1.056c.541.264,1.081.561,1.706.893h.009c.316.175.686.374,1.1.591,3.146-3.153,6.34-6.346,9.43-9.428l.234-.235c8.31-8.3,16.9-16.876,25.21-25.462a13.165,13.165,0,0,1,10.387-4.485l.329,0c8.709.131,17.211.152,24.38.152,2.785,0,5.62,0,8.365,0h.939c2.971,0,6.148-.015,9.21-.015,3.729,0,6.868.015,9.886.024h.047a6.067,6.067,0,0,0,5.039-2.138,65.845,65.845,0,0,1,7.919-7.745,9.021,9.021,0,0,1,2.022-1.213c-.26,2.866-.658,7.26-1.073,11.913-7.962,7.853-15.3,15.229-22.436,22.549a7.248,7.248,0,0,0-1.921,4.454c-.154,10.567-.163,21.574-.026,32.708a9.056,9.056,0,0,1-2.923,7.092c-3.339,3.266-6.7,6.615-9.942,9.861l-.019.019c-3.317,3.315-6.745,6.739-10.188,10.1-1.473,1.443-2.065,2.606-1.209,4.978a18.951,18.951,0,0,1,.44,11.954,19.818,19.818,0,0,1-6.882,9.82A18.4,18.4,0,0,1,54-4076.442a18.894,18.894,0,0,1-6.07,1,19.376,19.376,0,0,1-10.133-2.866,18.871,18.871,0,0,1-7.646-8.872,20.067,20.067,0,0,1-1.008-11.912,18.266,18.266,0,0,1,6.876-10.661,19.669,19.669,0,0,1,11.881-4.106,17.041,17.041,0,0,1,7.875,1.89,6.669,6.669,0,0,0,3.018.909c1.241,0,2.308-.591,3.685-2.054,2.963-3.144,6.068-6.243,9.07-9.24l.019-.021c2.7-2.7,5.5-5.5,8.18-8.308a7.26,7.26,0,0,0,1.886-4.489c.088-5.936.086-11.957.084-17.79v-.224c0-4.618,0-9.395.037-14.09a27.4,27.4,0,0,1,.572-4.606c.137-.759.277-1.534.394-2.338H71.9c-4.448,0-9.726.01-15.152.065a3.728,3.728,0,0,0-2.245,1.341c-8.709,8.636-16.558,16.43-24.406,24.432a5.607,5.607,0,0,0-1.288,3.52c-.058,2.729-.057,5.506-.056,8.2v.285c0,3.4,0,6.9-.1,10.348a6.866,6.866,0,0,1-1.788,4.23c-4.922,5.02-9.977,10.083-14.86,14.967l-.055.063-.061.059c-4.434,4.44-9.018,9.028-13.492,13.583-1.318,1.334-2.833,2.576-4.98,2.576a5.488,5.488,0,0,1-.916-.072,4.923,4.923,0,0,0-.7-.051c-1.216,0-1.864.642-2.233,2.209a18.225,18.225,0,0,1-6.367,10.235A17.448,17.448,0,0,1-27.815-4074.442Zm-.13-29.968a11.74,11.74,0,0,0-8.382,3.274,11.711,11.711,0,0,0-3.591,8.248v.329A11.855,11.855,0,0,0-28.586-4080.7c.117-.007.236,0,.353,0a12.214,12.214,0,0,0,12.212-11.406,11.735,11.735,0,0,0-3.216-8.451,11.963,11.963,0,0,0-8.4-3.84h-.312Zm75.841-1.063a10.7,10.7,0,0,0-7.61,3.086,10.663,10.663,0,0,0-3.162,7.577v.1A10.7,10.7,0,0,0,47.6-4083.8h.17a11.068,11.068,0,0,0,7.873-3.293,10.849,10.849,0,0,0,3.225-7.72c-.009-5.678-5.14-10.651-10.971-10.651Zm-52.972-20.874h-.191a7.066,7.066,0,0,0-6.682,6.948v.138a6.894,6.894,0,0,0,6.827,6.755h.147a7.092,7.092,0,0,0,5-2.292,6.826,6.826,0,0,0,1.9-4.907A7.223,7.223,0,0,0-5.075-4126.348Zm-.087-26.2h-.114a6.768,6.768,0,0,0-6.651,6.867v.138a6.678,6.678,0,0,0,2,4.772,6.668,6.668,0,0,0,4.812,1.922h.145a6.968,6.968,0,0,0,6.9-6.86,6.994,6.994,0,0,0-7.089-6.837Zm-107.734,57.11a18.527,18.527,0,0,1-5.787-.93,19.517,19.517,0,0,1-5.269-2.642,19.673,19.673,0,0,1-7.256-9.607,18.035,18.035,0,0,1-.933-7.449,19.651,19.651,0,0,1,1.991-7.142,19.607,19.607,0,0,1,4.427-5.879,17.755,17.755,0,0,1,6.428-3.747,21.06,21.06,0,0,1,6.551-1.112,17.31,17.31,0,0,1,8.646,2.317,3.574,3.574,0,0,0,1.745.572,3.091,3.091,0,0,0,2.187-1.212c2.632-2.708,5.341-5.4,7.962-8l.071-.062c2.8-2.787,5.7-5.665,8.481-8.557a7.529,7.529,0,0,1,5.9-2.424h.1c4.221.031,9.786.063,15.409.063,6.018,0,11.377-.042,16.385-.126a7.691,7.691,0,0,0,4.76-1.972c7.088-6.8,13.875-13.7,19-18.957a5.55,5.55,0,0,0,1.4-3.452c.154-6.246.1-12.524.042-17.287a7.9,7.9,0,0,1,2.546-6.293c3.989-3.812,7.942-7.764,11.764-11.592l.136-.138c1.462-1.462,2.975-2.976,4.462-4.455-.677-.714-1.374-1.4-2.046-2.064a29.961,29.961,0,0,1-4.095-4.583,28.511,28.511,0,0,1-2.574-5.419l0-.019c-.364-.921-.741-1.878-1.173-2.856h-.012c-.723,0-1.475-.012-2.271-.023h-.049c-.864-.019-1.756-.026-2.668-.026-1.658,0-3.012.04-4.264.139-1.008.079-2.068,1.021-2.977,1.922-5.376,5.363-10.985,10.974-15.924,15.923l-.075.078c-10.109,10.116-20.559,20.571-30.9,30.806-1.054,1.047-2.832,1.509-4.6,1.85a11.262,11.262,0,0,1-2.061.178c-.643,0-1.3-.04-1.938-.078h-.018c-.325-.014-.619-.03-.907-.046-.139-.007-.267-.012-.389-.012-1.31,0-2.121.341-2.649,2.111a10.408,10.408,0,0,1-3.945,5.555,11.1,11.1,0,0,1-6.467,2.028,12.473,12.473,0,0,1-1.288-.068,11.253,11.253,0,0,1-6.508-3.058,10.5,10.5,0,0,1-3.233-6.231,11.609,11.609,0,0,1,1.5-7.5,10.839,10.839,0,0,1,5.786-4.721,11.114,11.114,0,0,1,3.7-.643,11.345,11.345,0,0,1,9.451,5.34c.928,1.4,2,2.824,2.9,2.824h.163c.677,0,1.367.063,2.032.126h.014c.676.056,1.374.116,2.064.116a6.131,6.131,0,0,0,4.675-1.826c8.365-8.472,16.915-17.033,25.18-25.294l.126-.126c6.9-6.912,14.039-14.053,21.031-21.107a7.2,7.2,0,0,1,5.407-2.531c.175,0,.35.009.518.021,1.042.063,2.159.089,3.513.089.866,0,1.743-.008,2.59-.019h.1c.813-.014,1.735-.028,2.631-.028a43.2,43.2,0,0,1,3.472-7.771,21.521,21.521,0,0,1,4.256-5.323,15.35,15.35,0,0,1,5.256-3.06,20.141,20.141,0,0,1,6.469-1.007h.208c9.279,0,14.693,4.8,19.313,17.13H43.442c4.713,0,8.453,0,11.77.007,1.57,0,3.167.024,4.713.045h.128c1.669.021,3.393.044,5.089.044,1.564,0,2.955-.023,4.253-.061a6.523,6.523,0,0,0,4.111-1.437c10.931-10.857,21.97-21.987,32.636-32.75l.113-.11,1.5-1.516,4.838-4.872a3.071,3.071,0,0,0,.368-.519c.081-.128.171-.269.289-.446H74.79a25.565,25.565,0,0,1-3.869,17.145,23.82,23.82,0,0,1-8.8,8,24.64,24.64,0,0,1-11.508,2.843,25.086,25.086,0,0,1-7.039-1.009,24.441,24.441,0,0,1-17.241-23.4,23.111,23.111,0,0,1,1.238-7.516,24.473,24.473,0,0,1,3.5-6.683,24.724,24.724,0,0,1,5.367-5.333,23.775,23.775,0,0,1,6.834-3.434,25.577,25.577,0,0,1,7.64-1.214,22.5,22.5,0,0,1,8.153,1.532,29.116,29.116,0,0,1,7.591,4.455,8.432,8.432,0,0,0,4.857,1.817c10.27.063,20.591.1,30.676.1,6.233,0,12.579-.016,18.863-.044.267,5.6.3,11.28.095,16.89-.6.553-1.219,1.17-1.894,1.875-6.711,7.015-13.77,13.912-20.6,20.593-3.351,3.27-6.815,6.661-10.2,10.027-1.384,1.382-2.746,2.816-4.062,4.216l-.009,0c-2.074,2.193-4.217,4.461-6.488,6.517a9.4,9.4,0,0,1-5.617,2.314c-6.887.1-14.109.141-22.08.141-6.3,0-12.918-.028-20.829-.082h-.083a3.942,3.942,0,0,0-4.1,2.539,18.8,18.8,0,0,1-6.364,7.357,20.694,20.694,0,0,1-9.264,3.172,5.2,5.2,0,0,0-2.866,1.376c-5.181,5.064-11.279,11.069-17.222,17.229a6.51,6.51,0,0,0-1.653,3.98c-.189,5.915-.12,11.861-.041,16.977a8,8,0,0,1-2.557,6.288c-3.5,3.422-7.014,6.946-10.413,10.354h0c-4.023,4.022-8.183,8.2-12.347,12.228a7.724,7.724,0,0,1-4.878,1.89c-5.021.087-10.346.124-16.28.124-4.513,0-9.3-.023-15.52-.072h-.1a6.914,6.914,0,0,0-5.573,2.289c-4.262,4.522-8.9,9.158-14.179,14.188-1.734,1.651-1.982,2.8-1.063,4.933a18,18,0,0,1,.034,14.213,19.423,19.423,0,0,1-4.434,6.46,20.583,20.583,0,0,1-6.984,4.431,17.572,17.572,0,0,1-6.366,1.2Zm-.062-30.229a11.29,11.29,0,0,0-10.944,10.784v.273a11.1,11.1,0,0,0,10.874,10.766H-113a10.753,10.753,0,0,0,10.791-10.693,11.018,11.018,0,0,0-3.2-7.944,10.446,10.446,0,0,0-7.476-3.177Zm19.174-62.4a7.029,7.029,0,0,0-6.893,6.6c-.007.131-.01.255-.01.383a6.832,6.832,0,0,0,6.5,6.818,4.716,4.716,0,0,0,.475.023,6.841,6.841,0,0,0,6.792-6.428,6.874,6.874,0,0,0-1.75-5.071,6.925,6.925,0,0,0-4.876-2.324c-.091,0-.164,0-.234,0ZM8.141-4243.445A10.859,10.859,0,0,0-2.81-4232.988v.2a11.008,11.008,0,0,0,3.265,7.806,11,11,0,0,0,7.837,3.16h.076a11.141,11.141,0,0,0,10.685-10.564,10.6,10.6,0,0,0-3-7.7,10.9,10.9,0,0,0-7.792-3.366ZM50.7-4284.463a11.743,11.743,0,0,0-11.733,11.62v.084a11.707,11.707,0,0,0,3.33,8.428,11.7,11.7,0,0,0,8.349,3.508h.031a11.87,11.87,0,0,0,11.752-11.756,11.653,11.653,0,0,0-3.408-8.337,11.611,11.611,0,0,0-8.234-3.547Zm-225.931,129a11.155,11.155,0,0,1-6.57-2.163,11.206,11.206,0,0,1-4.148-6.031,10.757,10.757,0,0,1,.4-7.2,11.589,11.589,0,0,1,4.08-4.939,10.439,10.439,0,0,1,5.914-1.906,9.252,9.252,0,0,1,2.306.29,7.107,7.107,0,0,0,1.675.243,4.867,4.867,0,0,0,3.6-1.838c10.234-10.4,19.3-19.436,27.714-27.623a8.747,8.747,0,0,1,5.073-2.077c1.621-.135,3.343-.2,5.268-.2,2.09,0,4.123.075,5.836.149.181.011.365.011.546.011a7.336,7.336,0,0,0,5.941-2.676,42.526,42.526,0,0,1,4.447-4.193l.024-.023c.664-.562,1.35-1.151,2.007-1.742l-.163-.246-.373-.553c-.243-.023-.491-.051-.73-.077a12.083,12.083,0,0,0-1.558-.134h-25.9c-18.525,0-37.681,0-56.521-.03h-.031c-2.055,0-3.181.383-4.014,2.579a10.458,10.458,0,0,1-10.065,6.727,12.414,12.414,0,0,1-2.217-.2,10.693,10.693,0,0,1-6.127-3.537,10.958,10.958,0,0,1-2.721-6.589,11.021,11.021,0,0,1,7.951-11.48,10.607,10.607,0,0,1,3.187-.493,10.429,10.429,0,0,1,9.372,5.746c1.345,2.665,2.942,3.151,5.6,3.151h.085c12.8-.04,26.766-.07,42.688-.07,13.752,0,27.614.021,40.637.038h.98c5.02,0,10.211.007,15.292.369.15.012.3.012.446.012,2.3,0,3.466-1.337,4.817-2.883a18.622,18.622,0,0,1,2.038-2.1c-.987-.077-1.882-.168-2.673-.245h-.022a43.751,43.751,0,0,0-4.385-.3h-.109c-14.746.084-27.74.217-39.725.4h-.18a6.422,6.422,0,0,1-5.224-2.242c-2.35-2.623-4.837-5.149-7.234-7.6l-.113-.112c-.915-.935-1.86-1.895-2.771-2.836a20.681,20.681,0,0,1-8.139,2.1c-3.182,0-5.73-1.32-8.018-4.161a10.687,10.687,0,0,1-2.318-6.952,11.182,11.182,0,0,1,2.627-6.969,11.383,11.383,0,0,1,3.874-2.985,10.707,10.707,0,0,1,4.572-1.014,11.429,11.429,0,0,1,5.776,1.611,10.751,10.751,0,0,1,4.644,13.1c-.705,1.68-.273,2.516.892,3.635,1.349,1.294,2.686,2.649,3.978,3.964h0c1.613,1.63,3.278,3.319,4.988,4.914a5.193,5.193,0,0,0,3.242,1.234c5.288.046,10.994.06,18.5.06,3.151,0,6.321,0,9.008,0h7.35c1.209,0,2.434-.021,3.518-.025h.015c1.148-.017,2.335-.032,3.5-.032,1.8,0,3.283.034,4.667.1.241.019.474.023.693.023a7.922,7.922,0,0,0,6.125-2.489c6.575-6.611,13.317-13.228,19.837-19.633l.364-.357c2.25-2.207,4.576-4.489,6.853-6.738l-.487-.792c-.285-.021-.575-.036-.857-.049l-.084-.008c-.6-.034-1.3-.077-1.959-.077H-68.54c-2.793,0-5.312,0-7.861,0-4.851,0-11.252-.012-17.737-.075h-.093a3.8,3.8,0,0,0-2.461.654,4.687,4.687,0,0,0-1.411,2.131,15.513,15.513,0,0,1-5.894,7.283,16.332,16.332,0,0,1-8.988,2.606,18.886,18.886,0,0,1-3.469-.33,15.507,15.507,0,0,1-8.907-5.439,15.461,15.461,0,0,1-3.772-9.72,18.9,18.9,0,0,1,.859-5.9,15.211,15.211,0,0,1,2.572-4.835,15.393,15.393,0,0,1,4.155-3.623,19.506,19.506,0,0,1,5.611-2.24,13.373,13.373,0,0,1,3.117-.357,16.02,16.02,0,0,1,8.473,2.546,15.588,15.588,0,0,1,5.934,6.822,3.37,3.37,0,0,0,3.64,2.334h.032c10.6-.038,21.378-.038,31.8-.056h.745c10.884,0,22.131-.014,33.193-.044a4.619,4.619,0,0,0,2.972-1.07c6.087-5.944,12.2-12.055,18.121-17.971l2.891-2.889c.067-.067.081-.18.114-.43.023-.172.052-.406.111-.726h-9.677c-2.186,0-3.978,0-5.644.012-2.275,0-4.577.019-6.934.028-2.83.023-6.349.042-9.7.042-1.155,0-2.174,0-3.114,0h-.064c-1.747,0-2.7.32-3.388,2.139a10.516,10.516,0,0,1-4.031,5.09,11.045,11.045,0,0,1-6.172,1.808,12.587,12.587,0,0,1-2.591-.268,10.48,10.48,0,0,1-6-3.874,11.537,11.537,0,0,1-2.48-6.946,11.057,11.057,0,0,1,9.035-10.941,10.547,10.547,0,0,1,2.152-.222,10.879,10.879,0,0,1,6.027,1.828,10.734,10.734,0,0,1,4.058,4.992c.613,1.539,1.216,2.277,2.986,2.277h.025c2.269-.012,4.684-.012,7.382-.012,4.324,0,8.8.012,12.742.014h1.5c3.937.012,8.009.017,12.011.017,1.98,0,3.8,0,5.565,0a3.844,3.844,0,0,0,2.35-1.062c2.356-2.224,4.622-4.461,7.245-7.047l.23-.229c.885-.872,1.8-1.78,2.766-2.717h-.065c-.9,0-1.713.03-2.439.061-.637.019-1.238.042-1.8.042a10.563,10.563,0,0,1-2.19-.189c-1.956-.4-4.132-.985-5.429-2.23-4.215-4.041-8.4-8.2-12.446-12.224l-.017-.013c-3.667-3.653-7.457-7.426-11.245-11.072a7.666,7.666,0,0,0-4.775-2c-4.519-.1-9.147-.145-13.753-.145-4.535,0-9.15.049-13.717.14a7.671,7.671,0,0,0-4.794,1.928c-3.71,3.583-7.422,7.294-11.013,10.875l-.023.021c-3.764,3.767-7.654,7.647-11.549,11.4a8.294,8.294,0,0,1-5.1,2.084c-6.434.1-12.976.1-19.3.107h-.052c-5.581,0-11.352.009-17.07.076a6.748,6.748,0,0,0-4.208,1.79c-6.058,5.972-12.186,12.083-18.113,17.983l-.086.08-.04.044c-6.773,6.753-13.777,13.725-20.711,20.537a7.65,7.65,0,0,1-4.814,1.919c-5.744.077-11.824.112-18.6.112-4.97,0-10.44-.021-17.211-.063h-.122c-2.092,0-3.266.388-4.279,2.609a13.508,13.508,0,0,1-5.152,5.858,13.834,13.834,0,0,1-7.3,2.088,13.766,13.766,0,0,1-3.785-.532,14.1,14.1,0,0,1-10.425-14.578,14.386,14.386,0,0,1,3.81-8.733,14.29,14.29,0,0,1,8.448-4.377,13.339,13.339,0,0,1,1.861-.131,14.3,14.3,0,0,1,13.326,9.654c.135.385.284.754.457,1.187.089.219.181.443.279.705h13.282c7.76,0,16.118-.009,24.647-.04a3.405,3.405,0,0,0,2.145-.941c11.1-11.062,22.26-22.27,33.048-33.107l.915-.916a3.043,3.043,0,0,0,.376-.538c.082-.135.18-.3.308-.488-.313-.026-.6-.059-.88-.087h-.029c-.505-.061-1.014-.1-1.522-.109h-17.109c-5.414,0-11.832-.01-18.387-.086h-.136c-2.312,0-3.283.708-4,2.9a18.635,18.635,0,0,1-17.97,13.05,20.167,20.167,0,0,1-3.594-.325,18.966,18.966,0,0,1-11.364-6.73,19.357,19.357,0,0,1-4.359-12.575,19.146,19.146,0,0,1,4.479-11.877,19.189,19.189,0,0,1,10.921-6.491,19.842,19.842,0,0,1,3.877-.385,18.79,18.79,0,0,1,17.522,11.6c.907,2.217,2.036,2.6,4.077,2.6h.015c13.627-.016,25.854-.03,37.383-.03,16.2,0,31.033.015,45.351.057h.033a8.168,8.168,0,0,0,6.415-2.745c1.265-1.314,2.569-2.64,3.83-3.92l.05-.049c3.567-3.615,7.256-7.355,10.72-11.5h-30.062c-10.244,0-18.14.019-25.6.04h-.049a9.285,9.285,0,0,1-7.089-2.917c-5.249-5.29-10.589-10.611-15.753-15.761l-.091-.1c-4.822-4.8-9.809-9.767-14.69-14.686a6.738,6.738,0,0,0-5.181-2.319h-.165c-3.854.07-7.861.107-12.259.107-3.915,0-8.062-.026-13.052-.086h-.158c-1.842,0-2.838.383-3.51,2.552a23.367,23.367,0,0,1-3.42,6.8,24.8,24.8,0,0,1-5.276,5.334,23.257,23.257,0,0,1-13.752,4.721c-.6,0-1.2-.023-1.792-.077a25.922,25.922,0,0,1-15.494-6.611,23.934,23.934,0,0,1-7.486-14.577,23.808,23.808,0,0,1,3.291-15.452,24.57,24.57,0,0,1,12.24-10.263,24.873,24.873,0,0,1,8.913-1.673,23.156,23.156,0,0,1,12.639,3.726,25.947,25.947,0,0,1,9.164,10.588c.945,1.959,1.959,2.623,4.016,2.623h.108c3.394-.038,6.691-.047,9.468-.047h6.849c3.719,0,8.1-.007,12.39-.084h.331a12.714,12.714,0,0,1,4.844.862,12.043,12.043,0,0,1,4.115,2.877c5.953,6.133,12.082,12.251,18.01,18.168l.021.023c3.788,3.782,7.706,7.694,11.535,11.564a6.827,6.827,0,0,0,5.341,2.247h.022c19.082-.054,38.485-.054,57.249-.056h.2c12.778,0,27.262-.014,41.32-.028h.017a8.5,8.5,0,0,1,6.565,2.67c9.182,9.306,16.314,16.43,23.126,23.094a6.768,6.768,0,0,0,4.144,2.016c18.457.077,37.092.08,51.266.08h32.7c.356,0,.705-.019,1.244-.066h.012c.348-.016.728-.051,1.209-.084-.912-.9-1.814-1.8-2.691-2.679l-.648-.649-.01-.017c-3.57-3.562-6.942-6.927-10.375-10.214a4.079,4.079,0,0,0-2.568-.537h-.039c-1.082-.008-2.211-.015-3.551-.015h-5.7c-1.79,0-4.145,0-6.482-.056h-.163a3.024,3.024,0,0,0-3.231,2.217,11.135,11.135,0,0,1-4.132,5.043,10.8,10.8,0,0,1-6.012,1.8,11.153,11.153,0,0,1-3.9-.705,10.816,10.816,0,0,1-5.965-5.393,11.57,11.57,0,0,1-.776-8.182,10.522,10.522,0,0,1,3.931-5.77,11.111,11.111,0,0,1,6.671-2.182,11.959,11.959,0,0,1,2.38.245,9.816,9.816,0,0,1,7.609,6.112,3.6,3.6,0,0,0,3.919,2.677c.131,0,.275,0,.428-.012,1.159-.046,2.4-.062,3.9-.062,1.076,0,2.17.012,3.225.016h.116c.934.014,2.1.023,3.2.023,1.822,0,3.309-.023,4.677-.088.165,0,.33-.012.491-.012a7.937,7.937,0,0,1,6.2,2.892c1.492,1.577,3.075,3.121,4.605,4.606a96.781,96.781,0,0,1,7,7.309,10.081,10.081,0,0,0,8.451,3.828,29.984,29.984,0,0,0,4.526-.423c-1.333-1.28-2.678-2.56-3.757-3.595l-.071-.067c-2.638-2.521-5.131-4.892-7.587-7.316-2.151-2.116-4.3-4.277-6.379-6.356l-.027-.028c-3.547-3.55-7.215-7.227-10.9-10.756a6.813,6.813,0,0,0-4.217-1.757c-5.531-.065-11.095-.072-16.319-.072H58.5c-4.265,0-9.1,0-13.817-.035h-.1a3.5,3.5,0,0,0-3.808,2.4A11.156,11.156,0,0,1,30.7-4341.81a10.664,10.664,0,0,1-2.419-.28,11.085,11.085,0,0,1-6.021-3.768,11.182,11.182,0,0,1-2.541-6.659,11.39,11.39,0,0,1,1.979-6.928,10.518,10.518,0,0,1,5.654-4.129,13.1,13.1,0,0,1,3.537-.514,10.716,10.716,0,0,1,9.448,5.568,22.5,22.5,0,0,1,1.1,2.277c.178.413.36.829.565,1.277,2.692,0,5.426.052,8.071.1,2.674.054,5.442.1,8.186.1,4.021,0,7.328-.12,10.4-.364,1.1-.091,2.162-.131,3.166-.131,8.062,0,14.015,2.831,19.305,9.166a214.154,214.154,0,0,0,17.234,17.675l.006,0c1.93,1.832,4.118,3.91,6.181,5.924a8,8,0,0,0,2.418,1.611c.894,4.263,1.657,8.589,2.271,12.864H100.288c-21.653,0-47.278-.012-73.167-.089H27.08a8.94,8.94,0,0,0-6.91,2.955c-5.376,5.379-10.855,10.828-16.153,16.105l-.1.1c-8.176,8.14-16.629,16.563-24.993,24.962a7.513,7.513,0,0,1-5.8,2.359h-.235c-3.124-.061-6-.091-8.79-.091-3.426,0-6.6.044-9.72.138a6.393,6.393,0,0,0-4.005,1.621c-7.524,7.409-15.049,14.958-22.326,22.263-2.084,2.093-4.508,4.524-6.9,6.918-.789.792-1.627,1.563-2.439,2.317a40.016,40.016,0,0,0-4.909,5.112c-3.312,4.406-7.63,5-11.419,5-1.221,0-2.47-.072-3.527-.143-.583-.037-1.069-.062-1.541-.062a5.3,5.3,0,0,0-4.991,2.734,45.663,45.663,0,0,1-7.559,8c-.768.691-1.558,1.406-2.318,2.114a5.133,5.133,0,0,1-3.1.906c-1.411.034-2.8.037-3.857.037h-3.836c-1.749,0-3.817.021-5.889.1a6.12,6.12,0,0,0-3.729,1.542c-5.71,5.61-11.445,11.336-16.989,16.881-3.3,3.3-6.718,6.708-10.132,10.091-1.347,1.345-1.779,2.3-.586,4.129,2.8,4.277,1.863,10.037-2.217,13.7a11.048,11.048,0,0,1-7.348,2.845Zm.021-17.971a6.681,6.681,0,0,0-4.87,1.917,6.7,6.7,0,0,0-2,4.842v.009a6.852,6.852,0,0,0,1.981,4.931,6.866,6.866,0,0,0,4.91,2.03h.115a6.79,6.79,0,0,0,4.807-2.069,6.805,6.805,0,0,0,1.915-4.88,6.724,6.724,0,0,0-1.986-4.821,6.714,6.714,0,0,0-4.833-1.959Zm-35.237-53.707a6.852,6.852,0,0,0-4.932,2.037,6.883,6.883,0,0,0-1.992,4.945v.088a6.691,6.691,0,0,0,2.044,4.8,6.667,6.667,0,0,0,4.868,1.88h.042a6.734,6.734,0,0,0,4.849-1.99,6.777,6.777,0,0,0,1.967-4.863,6.992,6.992,0,0,0-6.834-6.9Zm52.216-28.693a6.888,6.888,0,0,0-6.937,6.8v.138a6.794,6.794,0,0,0,1.978,4.876,6.829,6.829,0,0,0,4.866,2l.174-.01a6.952,6.952,0,0,0,6.8-6.953,6.922,6.922,0,0,0-6.878-6.84Zm45.207-17.18a7.868,7.868,0,0,0-7.783,7.832v.065a7.781,7.781,0,0,0,2.321,5.491,7.767,7.767,0,0,0,5.53,2.231h.093a7.7,7.7,0,0,0,7.722-7.5,8.025,8.025,0,0,0-2.272-5.795,7.77,7.77,0,0,0-5.579-2.32h-.032Zm-112.981-7.255a10.054,10.054,0,0,0-10.086,9.871v.072a10.088,10.088,0,0,0,10.039,9.866h.018a9.886,9.886,0,0,0,6.954-2.885,9.535,9.535,0,0,0,2.907-6.841,9.764,9.764,0,0,0-2.752-7.125,9.765,9.765,0,0,0-7.036-2.959Zm172.555-21.575h-.1a6.923,6.923,0,0,0-6.841,6.855v.033a6.818,6.818,0,0,0,1.992,4.849,6.808,6.808,0,0,0,4.845,2h.028a7.067,7.067,0,0,0,5.065-2.064,6.5,6.5,0,0,0,1.927-4.625,6.933,6.933,0,0,0-1.977-4.978,6.931,6.931,0,0,0-4.938-2.069Zm-143.945-21.6h-.077a10.938,10.938,0,0,0-10.783,10.689v.118a10.866,10.866,0,0,0,3.2,7.7,10.866,10.866,0,0,0,7.715,3.16h.086a10.816,10.816,0,0,0,7.671-3.23,10.924,10.924,0,0,0,3.124-7.841,10.992,10.992,0,0,0-10.938-10.6Zm247.362-20.288a6.77,6.77,0,0,0-4.858,2.027,6.771,6.771,0,0,0-1.936,4.9v.1a6.716,6.716,0,0,0,1.942,4.827,6.732,6.732,0,0,0,4.8,1.986h.1a7.118,7.118,0,0,0,6.9-6.771,7.06,7.06,0,0,0-6.712-7.068h-.242Zm-19.148-16.126h-.042a6.888,6.888,0,0,0-6.935,6.764,7.054,7.054,0,0,0,6.767,7h.1a7.066,7.066,0,0,0,5-2.109,6.764,6.764,0,0,0,2-4.865,6.911,6.911,0,0,0-6.887-6.8Zm-253.436-28.331a11.823,11.823,0,0,0-11.809,11.352c0,.1,0,.224,0,.36a11.557,11.557,0,0,0,3.32,8.319,11.552,11.552,0,0,0,8.27,3.453h.225a11.6,11.6,0,0,0,11.764-11.4,11.914,11.914,0,0,0-3.356-8.6,11.64,11.64,0,0,0-8.329-3.487Zm129.592,22.124a8.988,8.988,0,0,1-2.217-.275c-5.664-1.382-9.249-5.79-9.133-11.226a11.1,11.1,0,0,1,9.062-10.623,14.287,14.287,0,0,1,2.318-.2,9.55,9.55,0,0,1,6.4,2.284,17.136,17.136,0,0,1,4.592,6.989l4.92,0c2.3,0,4.279,0,6.065-.011.389,0,.784-.026,1.166-.061h.084c.157-.017.321-.026.48-.033l.284-.376.159-.208.269-.352c-.464-.376-.946-.75-1.411-1.11l-.012-.012a32.377,32.377,0,0,1-2.975-2.506c-3.336-3.315-6.713-6.685-9.977-9.95-5.736-5.749-11.668-11.682-17.58-17.465a7.363,7.363,0,0,0-4.529-1.867c-3.011-.1-6.109-.159-9.207-.159-2.956,0-5.984.049-9,.145a7.4,7.4,0,0,0-4.238,1.817c-1.3,1.114-2.514,2.379-3.688,3.6h0l-.012,0c-1.068,1.11-2.174,2.257-3.34,3.291a3.687,3.687,0,0,0-1.4,2.138,4.2,4.2,0,0,0,.637,2.534,10.739,10.739,0,0,1,.673,8.164,10.874,10.874,0,0,1-1.909,3.595,10.3,10.3,0,0,1-3.155,2.623,12.125,12.125,0,0,1-5.674,1.451,10.8,10.8,0,0,1-5.323-1.385,11.2,11.2,0,0,1-4.08-3.995,11.376,11.376,0,0,1,.54-12.221,10.5,10.5,0,0,1,8.525-4.543,10.364,10.364,0,0,1,2.829.407,6.692,6.692,0,0,0,1.865.3,4.119,4.119,0,0,0,3.386-1.906,16.748,16.748,0,0,1,2.117-2.143,16.109,16.109,0,0,0,2.2-2.253,14.868,14.868,0,0,1,5.259-4.577,14.368,14.368,0,0,1,6.583-1.439,20.784,20.784,0,0,1,2.292.126,54.812,54.812,0,0,0,5.705.257c1.561,0,3.129-.046,4.646-.077h.024c1.419-.038,3.023-.084,4.625-.084h.083a7.665,7.665,0,0,1,6.11,2.828c3.085,3.366,6.419,6.61,9.644,9.745l.016.019.031.033c1.6,1.553,3.263,3.164,4.87,4.769l.881.89c5.836,5.831,11.872,11.875,17.718,17.9a6.06,6.06,0,0,0,5.158,2.161,34.245,34.245,0,0,0,4.557-.4c-1.418-1.373-2.822-2.721-4.173-4.012l-.011-.01c-2.911-2.792-5.659-5.423-8.4-8.17-4.344-4.361-8.743-8.811-13-13.106l-.009-.012-.058-.06c-5.208-5.263-10.593-10.7-15.923-16.033a4.194,4.194,0,0,0-2.729-.987c-6.816-.029-13.746-.029-20.449-.038h-.113c-9.11-.012-18.529-.014-27.835-.077h-.035c-1.971,0-2.469,1.126-3.044,2.42l-.1.217a10.662,10.662,0,0,1-9.842,6.379,11.782,11.782,0,0,1-3.822-.645,10.985,10.985,0,0,1-7.054-13.085,11.443,11.443,0,0,1,3.884-6.129,10.548,10.548,0,0,1,6.622-2.408,9.563,9.563,0,0,1,1.484.112,12.4,12.4,0,0,1,5.415,2.07,9.865,9.865,0,0,1,3.487,4.643c.737,1.969,1.844,2.336,3.628,2.336h.03c5.428-.017,10.61-.023,15.4-.023,11.959,0,22.865.044,33.34.133a6.28,6.28,0,0,1,3.974,1.666c14.123,14.021,28.415,28.344,42.477,42.567,1.78,1.8,3.633,2.34,6.43,2.695a17.438,17.438,0,0,0,2.366.159c4.655,0,8.527-1.962,12.554-6.377,4.818-5.281,10.054-10.336,15.117-15.231l.011,0c2.023-1.957,4.315-4.176,6.491-6.322l-.221-.837h-.035c-.871,0-1.756.031-2.614.057h-.023c-.826.021-1.761.051-2.662.051a24.671,24.671,0,0,1-3.3-.177,7.236,7.236,0,0,0-.925-.063c-2.784,0-4.473,1.731-6.261,3.569l-.126.126-.676.7-.3.31c-2.859,2.932-5.813,5.963-8.859,8.788a6.919,6.919,0,0,1-3.735,1.579,10.865,10.865,0,0,1-1.507.077c-.513,0-1.034-.017-1.538-.04h-.036c-.5-.023-1.014-.037-1.524-.037a11.129,11.129,0,0,0-1.855.135,17.733,17.733,0,0,1-2.836.236A14.213,14.213,0,0,1-55-4394.1a24.24,24.24,0,0,1-5.953-4.849c-8.179-8.759-16.882-17.3-25.3-25.562l-.016-.014q-2-1.966-4-3.929a6.791,6.791,0,0,0-4.35-1.635c-4.989-.054-10.138-.086-15.743-.086-4.894,0-10.128.023-16,.072a35.286,35.286,0,0,0-6.893.767,10.924,10.924,0,0,1-2.336.244,11.35,11.35,0,0,1-10.636-7.227,10.856,10.856,0,0,1,.058-7.878,11.821,11.821,0,0,1,5.478-5.982,10.3,10.3,0,0,1,4.809-1.159,11.219,11.219,0,0,1,9.171,4.688,10.841,10.841,0,0,1,1.641,5.384,20.3,20.3,0,0,1-.824,6.968c2.427,0,4.887.049,7.267.089h.008c2.365.04,4.81.086,7.207.086,3.537,0,6.449-.1,9.16-.306.968-.065,1.915-.109,2.8-.109,7.224,0,12.6,2.457,17.411,7.956,5.744,6.554,12.1,12.747,18.255,18.731,2.979,2.9,6.06,5.893,9.036,8.906a7.86,7.86,0,0,0,5.086,2.224,27.906,27.906,0,0,0,3.819.269,17.577,17.577,0,0,0,15.514-8.32,10.717,10.717,0,0,1,1.411-1.563c.307-.3.69-.684,1.121-1.135h-.015c-.92,0-1.79-.016-2.49-.031-.66-.007-1.343-.023-2-.023-.962,0-1.745.031-2.46.089-.269.023-.535.033-.79.033a8.066,8.066,0,0,1-6.036-2.756c-6.866-6.922-13.782-13.838-20.469-20.529l-.044-.042c-7.273-7.279-14.8-14.8-22.156-22.239a7.077,7.077,0,0,0-5.543-2.257h-.132c-4.5.047-9.035.057-12.484.057h-8.79c-2.923,0-6.38,0-9.906.023h-.078a7.57,7.57,0,0,1-5.936-2.483c-2.217-2.327-4.516-4.6-6.736-6.809-2-1.99-4.069-4.045-6.066-6.12a5.364,5.364,0,0,0-4.2-1.91,7.928,7.928,0,0,0-.881.044c-.725.07-1.453.114-2.183.114a19.432,19.432,0,0,1-11.59-3.737,18.679,18.679,0,0,1-6.886-9.866,19.306,19.306,0,0,1-.762-6.764,18.635,18.635,0,0,1,1.581-6.37,19.048,19.048,0,0,1,3.709-5.489,20.52,20.52,0,0,1,5.62-4.127,18.163,18.163,0,0,1,8.3-1.971,19.194,19.194,0,0,1,8.2,1.854,19.823,19.823,0,0,1,6.874,5.38,18.769,18.769,0,0,1,4.112,11.971,19.113,19.113,0,0,1-4.179,12.038c-.435.535-.9,1.075-1.427,1.7l-.028.033c-.279.325-.588.689-.942,1.112,1.045,1,2.079,2.014,3.134,3.032l.018.014c3.17,3.076,6.45,6.26,9.738,9.292.621.565,1.875.577,2.883.577h.012l3.25.014h.141c5.074.023,10.321.049,15.479.049,4.9,0,9.232-.019,13.234-.063h.118a7.956,7.956,0,0,1,6.113,2.651c16.779,16.872,30.516,30.58,43.235,43.137a7.025,7.025,0,0,0,4.5,1.857l.007,0c11.208-.021,22.6-.1,33.623-.191H.912c7.145-.057,15.244-.122,23.126-.159,2.354,0,3.714-.5,4.607-3.2a16,16,0,0,1,2.643-4.858,18.02,18.02,0,0,1,4.089-3.782,19.327,19.327,0,0,1,10.683-3.329h.015a19.935,19.935,0,0,1,11.086,3.292,17.172,17.172,0,0,1,6.876,8.786c.833,2.451,1.883,3.366,3.871,3.366a8.839,8.839,0,0,0,.895-.054,6.043,6.043,0,0,1,.677-.046c2.543,0,4.031,1.78,5.463,3.5l.005,0c.462.552.942,1.126,1.443,1.621,3.207,3.143,6.7,6.6,10.673,10.556,3.061,7.129,6.135,14.2,9.139,21.02-5.809-5.795-11.738-11.735-16.969-16.967l-.062-.063c-3.056-3.055-6.216-6.22-9.324-9.331-1.586-1.581-2.549-2.229-3.326-2.229-.934,0-1.656.914-2.663,3.366a18.82,18.82,0,0,1-17.613,11.52c-.148,0-.3,0-.466,0a19.2,19.2,0,0,1-10.738-3.527,17.822,17.822,0,0,1-6.628-8.953c-.6-1.836-1.411-2.422-3.314-2.422h-.179c-5.227.087-10.931.126-17.948.126-1.857,0-3.7,0-5.808-.007H1.132a7.62,7.62,0,0,0-5.91,2.56c-9.622,9.834-19.158,19.359-28.347,28.319A8.141,8.141,0,0,1-38.212-4375c-8.27.109-16.38.126-23.912.126H-82.1C-84.666-4369.281-88.646-4366.062-93.028-4366.062Zm-.188-18.245a7.393,7.393,0,0,0-7.007,7.031v.046a7.224,7.224,0,0,0,6.876,6.886h.039a7.094,7.094,0,0,0,4.952-2.116,6.981,6.981,0,0,0,2.086-4.877,7.473,7.473,0,0,0-6.871-6.96h-.076Zm-52.058-17.59h-.2a7.125,7.125,0,0,0-6.678,6.876v.24a6.924,6.924,0,0,0,6.879,6.734h.117a7.065,7.065,0,0,0,6.878-6.912,7.256,7.256,0,0,0-7-6.943Zm191.389-21.176a10.746,10.746,0,0,0-10.708,10.744v.025a11.208,11.208,0,0,0,10.85,10.953h.17a10.974,10.974,0,0,0,10.657-10.959,10.644,10.644,0,0,0-3.024-7.624,11.086,11.086,0,0,0-7.937-3.135ZM-160.972-4431h-.089a7.529,7.529,0,0,0-6.933,6.93c0,.047,0,.086,0,.133,0,3.434,3.545,6.939,7.024,6.939h.1a7.2,7.2,0,0,0,6.853-6.939,7.081,7.081,0,0,0-2.126-4.949,6.908,6.908,0,0,0-4.829-2.116Zm25.232-16.061a6.636,6.636,0,0,0-4.79,1.756,6.645,6.645,0,0,0-2.123,4.648c-.009.159-.013.295-.013.444a6.731,6.731,0,0,0,1.9,4.821,6.72,6.72,0,0,0,4.764,2.051h.2a6.757,6.757,0,0,0,6.9-6.586,6.754,6.754,0,0,0-1.755-4.934,6.765,6.765,0,0,0-4.752-2.2,2.685,2.685,0,0,0-.33-.014Zm-11.488-55.152a10.658,10.658,0,0,0-7.613,3.1,10.652,10.652,0,0,0-3.15,7.589v.082a10.991,10.991,0,0,0,10.823,10.99h.079a11.136,11.136,0,0,0,10.762-10.81,10.818,10.818,0,0,0-3.124-7.751,10.891,10.891,0,0,0-7.76-3.2ZM-7.2-4437.642c-.318,0-.658,0-1.008-.019a18.666,18.666,0,0,1-6.412-1.374,16.1,16.1,0,0,1-5.208-3.52,21.7,21.7,0,0,1-4-5.709,37.881,37.881,0,0,1-2.8-7.937h-9.5c-2.923,0-5.064,0-6.945.007-1.422,0-2.87.016-4.27.037h-.127c-1.57.017-3.193.037-4.8.037-2.03,0-3.716-.03-5.305-.1a7.024,7.024,0,0,1-4.263-1.745c-10.911-10.714-21.693-21.539-30.8-30.706a6.187,6.187,0,0,0-4.722-2.177c-.192,0-.4.007-.6.021-.274.021-.552.035-.826.035a10.425,10.425,0,0,1-6.939-2.561,11.341,11.341,0,0,1-3.636-6.551,11.119,11.119,0,0,1,1.422-7.605,10.727,10.727,0,0,1,5.916-4.844,11.938,11.938,0,0,1,3.648-.589,10.967,10.967,0,0,1,5.8,1.637,10.785,10.785,0,0,1,4.091,4.632c2.286,4.871,1.293,9.355-3.033,13.721,1.517,1.46,3.032,2.925,4.5,4.326l.113.1c3.384,3.258,6.882,6.615,10.273,9.953,2.352,2.3,4.691,4.634,6.954,6.887,3.225,3.22,6.559,6.548,9.918,9.795a5.469,5.469,0,0,0,3.421,1.476c5.215.073,10.519.073,15.648.08h.041c3.747,0,7.994,0,12.08.035h.068c1.76,0,2.519-.575,3.142-2.362a20.249,20.249,0,0,1,6.063-9.165,18.492,18.492,0,0,1,10.158-4.034c.8-.077,1.588-.115,2.356-.115,7.035,0,12.589,3.3,16.508,9.8A3.951,3.951,0,0,0,12.4-4464.3c12.154.077,24.4.086,35.816.086H64.108c.526,2.777,1.149,5.618,1.852,8.437-4.558,0-8.9,0-13.282,0-5.678,0-11.464,0-17.059,0H33.773c-5.705,0-12.412-.007-18.9-.007-.532,0-1.058.03-1.668.063h-.019c-.284.019-.637.037-1.013.055a23.349,23.349,0,0,1-2.493,8.167,18.587,18.587,0,0,1-5.668,6.348,19.252,19.252,0,0,1-5.342,2.651A19.653,19.653,0,0,1-7.2-4437.642Zm.035-30.155a11.168,11.168,0,0,0-10.8,10.507c-.008.163-.011.32-.011.5a10.8,10.8,0,0,0,10.56,10.808c.115,0,.228.01.333.01a11.068,11.068,0,0,0,10.9-10.411,10.788,10.788,0,0,0-2.923-7.727,11.129,11.129,0,0,0-7.707-3.672c-.11,0-.228,0-.354,0Zm-91.318-40.89a6.968,6.968,0,0,0-6.862,6.827v.049a6.675,6.675,0,0,0,1.992,4.936,6.67,6.67,0,0,0,4.97,1.913h.093a6.573,6.573,0,0,0,4.848-2,6.577,6.577,0,0,0,1.846-4.908,6.775,6.775,0,0,0-2-4.861,6.76,6.76,0,0,0-4.867-1.952Zm59.722,43.333c-2.588,0-4.837-.668-6.018-1.793-.214-.2-.431-.41-.675-.626a11.738,11.738,0,0,1-1.713-1.775c-1.234-1.7-2.508-2.452-4.132-2.452a7.816,7.816,0,0,0-2.6.5,8.39,8.39,0,0,1-2.788.459,9.794,9.794,0,0,1-5.379-1.672,11.653,11.653,0,0,1-3.941-4.379,11.249,11.249,0,0,1-1.17-7.059,10.819,10.819,0,0,1,3.375-6.2,11.387,11.387,0,0,1,7.7-3.011,10.339,10.339,0,0,1,5.7,1.649,11.446,11.446,0,0,1,4.629,5.806,11.178,11.178,0,0,1-.02,7.389,12.9,12.9,0,0,1-1.964,3.427c.478.383.972.759,1.449,1.111l.01.01a36.658,36.658,0,0,1,3.117,2.543,6.484,6.484,0,0,0,4.434,1.95,6.318,6.318,0,0,0,4.434-2.013c1.165-1.161,2.338-2.34,3.473-3.492l.016-.014c2.345-2.375,4.77-4.828,7.256-7.131a6.6,6.6,0,0,1,3.953-1.763c4.063-.073,8.352-.109,12.745-.109,4.175,0,8.487.032,13.183.1a5.768,5.768,0,0,1,3.46,1.446,43.751,43.751,0,0,1,3.268,3.368c2.025,2.237,4.119,4.55,6.684,5.594a13.935,13.935,0,0,0,5.311.84c1.315,0,2.688-.091,4.016-.182h.016c1.327-.089,2.7-.187,4.021-.187h.071c1.847,0,3.791.011,6.118.011,4.714,0,9.506-.014,14.141-.03h1.965a3.156,3.156,0,0,0,2.176-.9c-1.259-1.219-2.569-2.434-3.836-3.608l-.033-.028a101.027,101.027,0,0,1-8.541-8.556c-3.247-3.819-6.967-5.37-12.841-5.37h-.591c-8.948.14-17.682.154-25.044.154-3.2,0-6.443,0-9.473,0h-.092l-9.38,0c-5.723,0-10.38,0-14.656.042h-.1a10.029,10.029,0,0,1-4.078-.785,10.652,10.652,0,0,1-3.343-2.441c-4.148-4.268-8.414-8.521-12.539-12.636-3.233-3.224-6.575-6.552-9.877-9.906a3.544,3.544,0,0,0-2.62-1.3,5.687,5.687,0,0,0-1.653.292,20.881,20.881,0,0,1-6.02.946,16.843,16.843,0,0,1-13-6.208,18.289,18.289,0,0,1-4.547-9.11,17.744,17.744,0,0,1,1.494-10.13c3.052-6.919,8.656-10.688,16.207-10.9.209-.009.421-.012.63-.012a17.759,17.759,0,0,1,9.121,2.353,17.444,17.444,0,0,1,6.519,6.948,18.442,18.442,0,0,1,2.387,9.869,18.688,18.688,0,0,1-3.535,9.614c-.3.437-.6.871-.983,1.425l-.2.29-.5.738c1.9,1.862,3.854,3.721,5.744,5.512,4.409,4.2,8.97,8.535,13.055,13.15,3.8,4.286,8.047,6.12,14.2,6.12.266,0,.532,0,.792-.015,6.867-.156,14.339-.226,23.514-.226,5.115,0,10.317.021,15.348.039h.369c4.948.023,10.065.045,15.1.045H37.7c0-1.052,0-2.093.008-3.1.012-2.917.023-5.678-.063-8.46a3.414,3.414,0,0,0-1.21-2.013c-4.785-4.859-10.74-10.889-16.581-16.584a3.4,3.4,0,0,0-2.19-.73,2.473,2.473,0,0,0-.639.069,18.758,18.758,0,0,1-4.493.565,16.1,16.1,0,0,1-9.286-2.831,13.826,13.826,0,0,1-5.448-7.671,16.968,16.968,0,0,1-.579-6.318,14.507,14.507,0,0,1,1.753-5.587,14.706,14.706,0,0,1,3.857-4.438,17.578,17.578,0,0,1,5.73-2.908,12.5,12.5,0,0,1,3.6-.509,15.45,15.45,0,0,1,6.643,1.557,15.334,15.334,0,0,1,5.442,4.326,15.716,15.716,0,0,1,3.161,8.393,12.911,12.911,0,0,1-2.006,8.393c-1.683,2.408-.842,3.517.744,5.054,6.248,6.083,11.287,11.163,15.855,15.988a7.929,7.929,0,0,1,1.886,4.567,84.723,84.723,0,0,1,.044,10.485,6.827,6.827,0,0,0,2.235,5.671q1.668,1.633,3.34,3.258l.014.019c4.177,4.066,8.5,8.288,12.676,12.492.132,1.462.291,2.964.476,4.478.241,1.969.53,3.982.86,5.972a5.434,5.434,0,0,0-3.841-1.42h-.119c-5.4.082-10.89.117-16.8.117-6.726,0-13.948-.052-22.08-.164-1.765-.021-4.132-.792-5.039-2.027-4.479-6.134-10.139-9.122-17.3-9.122a29.691,29.691,0,0,0-4.265.321,31.929,31.929,0,0,1-4.68.315c-2.117,0-4.208-.162-5.8-.3-.283-.023-.56-.03-.822-.03a7.17,7.17,0,0,0-5.614,2.7c-2.548,2.742-5.262,5.419-7.886,8.007h-.005c-.6.593-1.241,1.229-1.877,1.855C-33.777-4466.071-36.139-4465.354-38.764-4465.354Zm-17.608-23.715a6.908,6.908,0,0,0-6.818,6.872v.011a7.03,7.03,0,0,0,6.908,6.854l.062,0a6.9,6.9,0,0,0,6.87-6.79,6.82,6.82,0,0,0-1.915-4.937,6.966,6.966,0,0,0-5.017-2.011h-.091ZM-66.519-4547.3a12,12,0,0,0-11.988,11.933v.023a11.953,11.953,0,0,0,11.983,11.871h.014A11.869,11.869,0,0,0-54.724-4535.2a11.943,11.943,0,0,0-3.5-8.588,11.6,11.6,0,0,0-8.283-3.511Zm78.7-4.588h-.115a9.292,9.292,0,0,0-8.777,8.918v.039a9.057,9.057,0,0,0,8.949,8.857h.21a9,9,0,0,0,8.749-8.91,9.187,9.187,0,0,0-9.015-8.9Z" transform="translate(556.221 9749.561)" fill="#fff" stroke="rgba(0,0,0,0)" stroke-miterlimit="10" stroke-width="1"/>
      <path id="Path_87" data-name="Path 87" d="M326.26,423.673c-.5.72-7.166-6.435-10.135-9.848-13.97-16.064-21.577-34.979-24.659-55.893-2.593-17.6-1.742-35.191-.195-52.8,2.249-25.574,4.775-51.13,6.567-76.737,2.459-35.135-4.266-68.664-18.664-100.793Q265.044,96.075,251.8,64.151A166.317,166.317,0,0,1,239.719,20.27c-2.923-24.037.129-46.843,15.948-66.243,14.22-17.435,33.033-24.7,55.413-23.117,13.859.981,26.2,6.289,38.325,12.585q30.4,15.787,61.073,31.04c6.5,3.225,13.468,5.49,20.3,8.857-3.808.4-7.606.937-11.424,1.178-17.483,1.1-66.7-27.2-83.354-31.661-9.491-2.543-19.086-4.575-28.955-4.622-20.625-.1-42.721,14.953-47.352,35.106-4.7,20.472,1.19,55.08,6.721,75.5,1.989,7.339,8.454,27.326,11.7,34.314,9.828,26.817,14.061,37.316,23.588,72.249,2.822,15.173,8.534,40.66,5.348,72.429-2.955,17.891-2.449,31.655-5.709,49.5a253.651,253.651,0,0,0-1.522,80.423c4.317,25.74,14.245,36.743,18.287,43.139C318.4,411.68,326.951,423.187,326.26,423.673Z" transform="translate(378.151 5255.817)" fill="#fff"/>
    </g>
  </g>
</svg>
