<svg xmlns="http://www.w3.org/2000/svg" width="271.518" height="91.771" viewBox="0 0 271.518 91.771">
  <g id="Group_60" data-name="Group 60" transform="translate(-308.726 -5179)">
    <text id="ARTI" transform="translate(450.244 5249)" fill="#fff" font-size="65" font-family="SegoeUI, Segoe UI"><tspan x="0" y="0">ARTI</tspan></text>
    <g id="Group_55" data-name="Group 55" transform="translate(383.377 5191.271)">
      <g id="Group_47" data-name="Group 47" transform="translate(0 0)">
        <path id="Path_67" data-name="Path 67" d="M495.931-4.358a5.8,5.8,0,0,1-.222-3.473,27.034,27.034,0,0,0,.7-3.6,6.858,6.858,0,0,0-3.918-6.946,8.618,8.618,0,0,0-5.142-.344,52.218,52.218,0,0,0-13.672,4.613,11.71,11.71,0,0,1-5.879,1.34,10.185,10.185,0,0,1-5.073-1.807c.755-.05,1.368-.1,1.981-.131a23.2,23.2,0,0,0,10.361-3.233c1.773-1.028,3.462-2.2,5.225-3.245a27.81,27.81,0,0,1,9.557-3.572,10.054,10.054,0,0,1,9.958,3.6,5.683,5.683,0,0,1,.927,5.849c-.831,2.363-1.848,4.662-2.834,6.968-.517,1.211-1.138,2.379-1.715,3.565C496.126-4.66,496.047-4.548,495.931-4.358Z" transform="translate(-460.288 24.945)" fill="#fff"/>
        <path id="Path_68" data-name="Path 68" d="M642.347,221.181a1.159,1.159,0,0,1,.019.139c-.189,1.881-.189,1.881-2.051,1.881-.75,0-1.5.008-2.25,0a.4.4,0,0,0-.467.377c-.369,1.723-.767,3.44-1.14,5.162-.118.545.072.824.632.99.6.177,1.2.337,1.859.521-.062.32-.121.622-.181.939h-8.535c-.021-.858.02-.916.789-1.128.446-.123.891-.253,1.339-.367a1.171,1.171,0,0,0,.915-.885c.419-1.8.8-3.614,1.2-5.423.007-.031-.014-.068-.037-.172H623.27c.261-.93.238-1.8.984-2.52,5.228-5.044,10.412-10.134,15.619-15.2a1.083,1.083,0,0,1,.6-.247,10.954,10.954,0,0,1,1.165-.011l-3.512,15.946Zm-4.868-11.123-.1-.064-11.565,11.2h9.149Z" transform="translate(-603.624 -180.554)" fill="#fff"/>
        <path id="Path_69" data-name="Path 69" d="M440.894,350a20.221,20.221,0,0,1,.589-3.141,122.611,122.611,0,0,1,4.169-14.962,59.933,59.933,0,0,1,2.132-6.257c1.273-2.8,2.815-5.483,4.271-8.2a2.931,2.931,0,0,1,1.666-1.511,1.694,1.694,0,0,1,2.09.616,4.626,4.626,0,0,1,.709,1.189c.731,2.043,1.439,4.1,2.108,6.16.16.494.307,1.466,0,1.678s-.936-.315-1.229-.827a6.02,6.02,0,0,1-.441-1.027c-.582-1.681-2.32-2.091-3.389-.673a35.819,35.819,0,0,0-3.376,5.191c-1.494,2.933-2.84,5.95-4.078,9a53.146,53.146,0,0,0-1.564,5.381,39.637,39.637,0,0,1-2.564,6.889c-.151.3-.334.589-.508.878C441.438,350.457,440.893,350.879,440.894,350Z" transform="translate(-440.894 -279.274)" fill="#fff"/>
      </g>
      <path id="Subtraction_9" data-name="Subtraction 9" d="M6.271,18.079c-.133,0-.27,0-.406-.007a6.194,6.194,0,0,1-2.021-.4,5.532,5.532,0,0,1-1.671-1.012A5.856,5.856,0,0,1,.929,15.1a7.151,7.151,0,0,1-.741-2.041,11.863,11.863,0,0,1,.767-6.67A11.859,11.859,0,0,1,2.747,3.347a9.086,9.086,0,0,1,2.63-2.227A9.33,9.33,0,0,1,7.412.284,7.967,7.967,0,0,1,9.509,0a8.441,8.441,0,0,1,2.357.347,3.348,3.348,0,0,1,1.387.791,3.4,3.4,0,0,1,.842,1.28,3.841,3.841,0,0,1,.214,1.758A4.263,4.263,0,0,1,13.666,6a5.728,5.728,0,0,1-2.089,1.97,10.032,10.032,0,0,1-2.688.984,10.6,10.6,0,0,1-2.317.344,4.172,4.172,0,0,1-.511-.029c-.167,0-.317,0-.459,0a9.161,9.161,0,0,1-1.779-.143A1.275,1.275,0,0,0,3.582,9.1c-.25,0-.379.127-.406.4a7.051,7.051,0,0,0,1.032,5.124,4.142,4.142,0,0,0,3.4,1.531A5.7,5.7,0,0,0,10.42,15.4c.538-.306,1.057-.666,1.559-1.014h0l0,0c.274-.189.557-.386.84-.572.028-.018.055-.038.085-.059a.652.652,0,0,1,.352-.161.3.3,0,0,1,.165.052c.172.111.127.266.083.416a.84.84,0,0,0-.04.193,1.678,1.678,0,0,1-.41,1.053,4.467,4.467,0,0,1-.841.705c-.108.076-.219.155-.327.237a8.918,8.918,0,0,1-2.668,1.393,9.7,9.7,0,0,1-2.951.44Zm2.314-16.7a2.922,2.922,0,0,0-1.839.676,9.8,9.8,0,0,0-2.826,4.1c-.341.829-.513,1.272-.366,1.493s.625.232,1.458.232h.22l0,.03c.211-.015.426-.028.634-.04h.022c.462-.027.939-.056,1.405-.108a4.109,4.109,0,0,0,3.93-4.285A1.786,1.786,0,0,0,10.209,1.8a3.72,3.72,0,0,0-1.624-.417Z" transform="translate(41.085 24.652)" fill="#fff" stroke="rgba(0,0,0,0)" stroke-miterlimit="10" stroke-width="1"/>
    </g>
    <path id="Subtraction_13" data-name="Subtraction 13" d="M-209.536-4475.484a3.2,3.2,0,0,1-.708-.079,3.1,3.1,0,0,1-1.947-1.348,3.056,3.056,0,0,1-.42-2.318,3.16,3.16,0,0,1,.4-1,3.109,3.109,0,0,1,.681-.781,3.027,3.027,0,0,1,1.917-.688,3.011,3.011,0,0,1,.648.069,3.21,3.21,0,0,1,1.49.728,3.019,3.019,0,0,1,.872,1.434c.1.339.284.526.521.526a.81.81,0,0,0,.54-.28c.676-.667,1.377-1.373,2-1.995l.015-.015.706-.709.458-.457.034-.035c.487-.485.99-.985,1.467-1.493a1.042,1.042,0,0,0,.269-.626c.012-.483.01-.974.008-1.45,0-.562,0-1.143.017-1.714a1.348,1.348,0,0,1,.337-.824c.886-.915,1.8-1.831,2.684-2.717h0c.529-.532,1.077-1.08,1.618-1.628a1.162,1.162,0,0,1,.894-.384h.028c.646.01,1.288.012,1.886.012h1.112c.515,0,1.126,0,1.75.01h.037a.947.947,0,0,0,.978-.552l-.1-.023a.8.8,0,0,0-.186-.033h-.892c-.838,0-1.7,0-2.556,0-1,0-1.872,0-2.672.01a.933.933,0,0,0-.586.269c-1.418,1.405-3.282,3.26-5.13,5.154a1.353,1.353,0,0,0-.332.816c-.023.436-.02.879-.017,1.307v.013c0,.38,0,.773-.011,1.159a1.14,1.14,0,0,1-.284.682c-.323.34-.67.669-1.006.987l0,0c-.214.2-.436.413-.649.623a1.192,1.192,0,0,0-.219.368l-.012.029a1.987,1.987,0,0,1-.7.86,1.808,1.808,0,0,1-1.025.3h0a2.388,2.388,0,0,1-.417-.04,1.819,1.819,0,0,1-1.477-1.745,1.983,1.983,0,0,1,.353-1.235,1.815,1.815,0,0,1,1.022-.712,1.848,1.848,0,0,1,.482-.064,1.864,1.864,0,0,1,.973.275,2.034,2.034,0,0,1,.723.771c.032.058.06.117.1.2l0,0c.022.045.047.1.077.156.118-.119.236-.235.351-.347l0-.005c.319-.315.62-.611.907-.929a.692.692,0,0,0,.086-.423v-.026q0-.179,0-.361c.007-.693.014-1.412-.01-2.117a1.085,1.085,0,0,1,.364-.872c.677-.674,1.364-1.36,2.027-2.024l.031-.031h0c1.156-1.157,2.351-2.354,3.54-3.519a1.349,1.349,0,0,1,.815-.238c1.214-.008,2.308-.012,3.343-.012,1.217,0,2.331.005,3.408.019h.023a1.069,1.069,0,0,0,1-.571c-.064,0-.122-.006-.181-.011-.112-.006-.208-.013-.306-.013l-1.54,0-2.518,0c-1.79,0-3.174,0-4.488.013a1.15,1.15,0,0,0-.73.29c-1.243,1.226-2.49,2.475-3.7,3.682-.73.731-1.486,1.486-2.242,2.238a.662.662,0,0,0-.225.814,1.624,1.624,0,0,1-.075,1.213,1.971,1.971,0,0,1-.853.928,1.856,1.856,0,0,1-.871.214,1.97,1.97,0,0,1-.8-.173,1.89,1.89,0,0,1-.669-.505,1.9,1.9,0,0,1-.439-1.189,1.869,1.869,0,0,1,.39-1.2,1.9,1.9,0,0,1,1.485-.74,1.774,1.774,0,0,1,.782.181c.092.045.185.1.292.152h0l.188.1c.538-.539,1.084-1.084,1.612-1.611l.04-.04c1.42-1.418,2.889-2.884,4.308-4.352a2.249,2.249,0,0,1,1.775-.766h.056c1.488.022,2.941.026,4.166.026h1.59l1.574,0c.637,0,1.174,0,1.689,0h.008a1.036,1.036,0,0,0,.861-.365,11.261,11.261,0,0,1,1.353-1.324,1.545,1.545,0,0,1,.345-.207c-.044.49-.112,1.241-.183,2.036-1.361,1.342-2.615,2.6-3.834,3.854a1.239,1.239,0,0,0-.328.761c-.026,1.806-.028,3.687,0,5.59a1.548,1.548,0,0,1-.5,1.212c-.571.558-1.144,1.13-1.7,1.685l0,0c-.567.566-1.153,1.151-1.741,1.725a.68.68,0,0,0-.207.851,3.239,3.239,0,0,1,.075,2.043,3.387,3.387,0,0,1-1.176,1.678,3.146,3.146,0,0,1-.937.505,3.23,3.23,0,0,1-1.037.17,3.31,3.31,0,0,1-1.732-.49,3.225,3.225,0,0,1-1.307-1.516,3.429,3.429,0,0,1-.172-2.036,3.12,3.12,0,0,1,1.175-1.822,3.361,3.361,0,0,1,2.03-.7,2.912,2.912,0,0,1,1.346.323,1.139,1.139,0,0,0,.516.155.859.859,0,0,0,.63-.351c.506-.537,1.037-1.067,1.55-1.579l0,0c.462-.462.94-.94,1.4-1.42a1.24,1.24,0,0,0,.322-.767c.015-1.014.015-2.043.014-3.04v-.039c0-.789,0-1.605.006-2.408a4.681,4.681,0,0,1,.1-.787c.023-.13.047-.262.067-.4h-1.85c-.76,0-1.662,0-2.589.011a.635.635,0,0,0-.384.229c-1.488,1.476-2.83,2.808-4.171,4.175a.959.959,0,0,0-.22.6c-.01.466-.01.941-.009,1.4v.049c0,.581,0,1.179-.017,1.769a1.173,1.173,0,0,1-.306.723c-.841.858-1.705,1.723-2.539,2.558l-.009.011-.01.01c-.758.759-1.541,1.543-2.306,2.321a1.193,1.193,0,0,1-.851.44.935.935,0,0,1-.157-.013.882.882,0,0,0-.119-.009c-.208,0-.318.11-.382.378a3.116,3.116,0,0,1-1.088,1.749A2.981,2.981,0,0,1-209.536-4475.484Zm-.022-5.122a2.007,2.007,0,0,0-1.432.56,2,2,0,0,0-.614,1.41v.056a2.026,2.026,0,0,0,1.936,2.026c.02,0,.04,0,.06,0a2.087,2.087,0,0,0,2.087-1.949,2.006,2.006,0,0,0-.55-1.444,2.045,2.045,0,0,0-1.435-.656h-.053Zm12.961-.182a1.827,1.827,0,0,0-1.3.527,1.822,1.822,0,0,0-.54,1.295v.017a1.829,1.829,0,0,0,1.79,1.865h.029a1.891,1.891,0,0,0,1.345-.563,1.854,1.854,0,0,0,.551-1.319,1.9,1.9,0,0,0-1.875-1.82Zm-9.053-3.567h-.033a1.208,1.208,0,0,0-1.142,1.188v.023a1.179,1.179,0,0,0,1.167,1.155h.025a1.214,1.214,0,0,0,.855-.392,1.167,1.167,0,0,0,.324-.839A1.235,1.235,0,0,0-205.65-4484.355Zm-.015-4.478h-.019a1.157,1.157,0,0,0-1.137,1.174v.023a1.141,1.141,0,0,0,.342.815,1.141,1.141,0,0,0,.822.329h.025a1.191,1.191,0,0,0,1.178-1.172,1.2,1.2,0,0,0-1.211-1.168Zm-18.411,9.76a3.166,3.166,0,0,1-.989-.159,3.338,3.338,0,0,1-.9-.452,3.361,3.361,0,0,1-1.24-1.642,3.082,3.082,0,0,1-.159-1.273,3.357,3.357,0,0,1,.34-1.221,3.349,3.349,0,0,1,.757-1,3.034,3.034,0,0,1,1.1-.64,3.6,3.6,0,0,1,1.12-.19,2.956,2.956,0,0,1,1.478.4.613.613,0,0,0,.3.1.528.528,0,0,0,.374-.207c.45-.463.913-.923,1.361-1.367l.012-.011c.479-.476.973-.968,1.449-1.462a1.288,1.288,0,0,1,1.009-.415h.017c.721.005,1.672.011,2.633.011,1.028,0,1.944-.007,2.8-.021a1.313,1.313,0,0,0,.813-.337c1.211-1.162,2.371-2.341,3.246-3.24a.948.948,0,0,0,.239-.59c.026-1.067.017-2.14.007-2.954a1.351,1.351,0,0,1,.435-1.076c.682-.651,1.357-1.327,2.01-1.981l.023-.023c.25-.25.508-.509.763-.761-.116-.122-.235-.24-.35-.353a5.123,5.123,0,0,1-.7-.783,4.873,4.873,0,0,1-.44-.926v0c-.062-.157-.127-.321-.2-.488h0c-.124,0-.252,0-.388,0h-.008c-.148,0-.3,0-.456,0-.283,0-.515.007-.729.023a.982.982,0,0,0-.509.329c-.919.917-1.877,1.875-2.721,2.721l-.013.013c-1.728,1.729-3.513,3.516-5.28,5.265a1.549,1.549,0,0,1-.785.316,1.936,1.936,0,0,1-.352.03c-.11,0-.222-.007-.331-.013h0l-.155-.008-.066,0c-.224,0-.363.059-.453.361a1.778,1.778,0,0,1-.674.949,1.9,1.9,0,0,1-1.105.347,2.072,2.072,0,0,1-.22-.012,1.922,1.922,0,0,1-1.112-.522,1.8,1.8,0,0,1-.553-1.065,1.984,1.984,0,0,1,.256-1.282,1.852,1.852,0,0,1,.989-.807,1.9,1.9,0,0,1,.633-.11,1.938,1.938,0,0,1,1.615.913c.159.239.342.482.5.482h.028c.116,0,.234.011.347.021h0c.116.01.235.02.353.02a1.047,1.047,0,0,0,.8-.312c1.43-1.448,2.891-2.911,4.3-4.323l.021-.021c1.18-1.181,2.4-2.4,3.594-3.607a1.23,1.23,0,0,1,.924-.433c.03,0,.06,0,.089,0,.178.011.369.015.6.015l.443,0h.017c.139,0,.3,0,.45,0a7.383,7.383,0,0,1,.593-1.328,3.676,3.676,0,0,1,.727-.91,2.626,2.626,0,0,1,.9-.523,3.441,3.441,0,0,1,1.105-.172h.035c1.586,0,2.511.821,3.3,2.927h2.711c.806,0,1.445,0,2.011,0,.268,0,.541,0,.805.007h.022c.285,0,.58.008.87.008.267,0,.5,0,.727-.01a1.115,1.115,0,0,0,.7-.246c1.868-1.855,3.755-3.757,5.577-5.6l.019-.019.256-.259.827-.833a.5.5,0,0,0,.063-.088l.049-.076H-192a4.368,4.368,0,0,1-.661,2.93,4.069,4.069,0,0,1-1.5,1.367,4.209,4.209,0,0,1-1.967.486,4.286,4.286,0,0,1-1.2-.172,4.177,4.177,0,0,1-2.946-4,3.95,3.95,0,0,1,.212-1.285,4.184,4.184,0,0,1,.6-1.142,4.231,4.231,0,0,1,.917-.911,4.057,4.057,0,0,1,1.168-.587,4.374,4.374,0,0,1,1.306-.208,3.842,3.842,0,0,1,1.393.262,4.975,4.975,0,0,1,1.3.761,1.438,1.438,0,0,0,.83.311c1.755.011,3.519.017,5.242.017,1.065,0,2.15,0,3.224-.008.046.957.052,1.928.016,2.887-.1.094-.208.2-.324.32-1.147,1.2-2.353,2.377-3.52,3.519-.573.559-1.165,1.139-1.744,1.714-.237.236-.469.481-.694.72h0c-.354.375-.721.762-1.109,1.114a1.606,1.606,0,0,1-.96.4c-1.177.017-2.411.024-3.773.024-1.076,0-2.208,0-3.56-.014h-.014a.674.674,0,0,0-.7.434,3.213,3.213,0,0,1-1.088,1.257,3.535,3.535,0,0,1-1.583.542.889.889,0,0,0-.49.235c-.885.865-1.928,1.892-2.943,2.944a1.112,1.112,0,0,0-.282.68c-.032,1.011-.021,2.027-.007,2.9a1.368,1.368,0,0,1-.437,1.075c-.6.585-1.2,1.187-1.779,1.77h0c-.687.688-1.4,1.4-2.11,2.09a1.321,1.321,0,0,1-.834.323c-.858.015-1.768.021-2.782.021-.771,0-1.589,0-2.652-.012h-.017a1.182,1.182,0,0,0-.952.391c-.728.773-1.521,1.565-2.423,2.425a.624.624,0,0,0-.182.843,3.076,3.076,0,0,1,.006,2.429,3.318,3.318,0,0,1-.758,1.1,3.518,3.518,0,0,1-1.194.757,3.005,3.005,0,0,1-1.088.2Zm-.011-5.166a1.93,1.93,0,0,0-1.87,1.843v.047a1.9,1.9,0,0,0,1.858,1.84h.005a1.838,1.838,0,0,0,1.844-1.828,1.883,1.883,0,0,0-.547-1.357,1.786,1.786,0,0,0-1.278-.543Zm3.277-10.663a1.2,1.2,0,0,0-1.178,1.128c0,.022,0,.043,0,.065a1.168,1.168,0,0,0,1.11,1.166c.027,0,.054,0,.081,0a1.169,1.169,0,0,0,1.161-1.1,1.175,1.175,0,0,0-.3-.867,1.183,1.183,0,0,0-.833-.4h-.04Zm17.418-9.464a1.856,1.856,0,0,0-1.871,1.787v.035a1.881,1.881,0,0,0,.558,1.334,1.879,1.879,0,0,0,1.339.54h.013a1.9,1.9,0,0,0,1.826-1.805,1.811,1.811,0,0,0-.513-1.315,1.862,1.862,0,0,0-1.332-.575Zm7.273-7.01a2.007,2.007,0,0,0-2.005,1.986v.014a2,2,0,0,0,.569,1.44,2,2,0,0,0,1.427.6h.005a2.029,2.029,0,0,0,2.008-2.009,1.991,1.991,0,0,0-.582-1.424,1.984,1.984,0,0,0-1.407-.606Zm-38.61,22.045a1.907,1.907,0,0,1-1.123-.37,1.916,1.916,0,0,1-.709-1.031,1.838,1.838,0,0,1,.068-1.231,1.98,1.98,0,0,1,.7-.844,1.781,1.781,0,0,1,1.011-.326,1.577,1.577,0,0,1,.394.049,1.206,1.206,0,0,0,.286.042.833.833,0,0,0,.615-.314c1.749-1.777,3.3-3.322,4.736-4.721a1.5,1.5,0,0,1,.867-.355c.277-.023.571-.034.9-.034.357,0,.7.013,1,.025.031,0,.062,0,.093,0a1.253,1.253,0,0,0,1.015-.458,7.266,7.266,0,0,1,.76-.716l0,0c.113-.1.231-.2.343-.3l-.028-.042-.064-.095-.125-.013a2.116,2.116,0,0,0-.266-.022h-4.425c-3.166,0-6.439,0-9.659-.005h-.005a.6.6,0,0,0-.686.441,1.788,1.788,0,0,1-1.72,1.149,2.143,2.143,0,0,1-.379-.034,1.828,1.828,0,0,1-1.047-.6,1.873,1.873,0,0,1-.465-1.126,1.883,1.883,0,0,1,1.359-1.962,1.808,1.808,0,0,1,.545-.084,1.783,1.783,0,0,1,1.6.982.888.888,0,0,0,.957.539h.015c2.187-.007,4.574-.012,7.3-.012,2.35,0,4.719,0,6.945.006h.167c.858,0,1.745,0,2.613.063.026,0,.052,0,.076,0a1.048,1.048,0,0,0,.823-.493,3.19,3.19,0,0,1,.348-.358c-.169-.013-.322-.029-.457-.042h0c-.274-.027-.511-.051-.749-.051h-.019c-2.52.015-4.741.037-6.789.068h-.031a1.1,1.1,0,0,1-.893-.383c-.4-.448-.827-.88-1.236-1.3l-.019-.019c-.156-.16-.318-.324-.474-.485a3.526,3.526,0,0,1-1.391.359,1.677,1.677,0,0,1-1.37-.711,1.827,1.827,0,0,1-.4-1.188,1.911,1.911,0,0,1,.449-1.191,1.947,1.947,0,0,1,.662-.51,1.831,1.831,0,0,1,.781-.173,1.957,1.957,0,0,1,.987.275,1.838,1.838,0,0,1,.794,2.239.472.472,0,0,0,.152.621c.231.221.459.453.68.677h0c.276.279.56.567.853.84a.888.888,0,0,0,.554.211c.9.008,1.879.01,3.162.01h2.8c.207,0,.416,0,.6,0h0c.2,0,.4-.005.6-.005.308,0,.561.006.8.017.041,0,.081,0,.118,0a1.354,1.354,0,0,0,1.047-.425c1.124-1.13,2.276-2.261,3.39-3.355l.062-.061c.384-.377.782-.768,1.171-1.152l-.083-.135-.146-.008h-.014c-.1-.006-.222-.013-.335-.013h-3.193c-.829,0-1.923,0-3.031-.013h-.016a.648.648,0,0,0-.421.112.8.8,0,0,0-.241.364,2.649,2.649,0,0,1-1.007,1.245,2.79,2.79,0,0,1-1.536.446,3.264,3.264,0,0,1-.593-.057,2.649,2.649,0,0,1-1.522-.93,2.641,2.641,0,0,1-.645-1.661,3.229,3.229,0,0,1,.147-1.009,2.6,2.6,0,0,1,.44-.826,2.629,2.629,0,0,1,.71-.619,3.322,3.322,0,0,1,.959-.383,2.25,2.25,0,0,1,.533-.061,2.736,2.736,0,0,1,1.448.435,2.662,2.662,0,0,1,1.014,1.166.575.575,0,0,0,.622.4h.006c1.811-.006,3.653-.006,5.435-.009h.127c1.86,0,3.782,0,5.672-.008a.788.788,0,0,0,.508-.183c1.04-1.016,2.086-2.06,3.1-3.071l.494-.494c.011-.012.014-.031.019-.074s.009-.069.019-.124h-1.654c-.374,0-.68,0-.964,0-.389,0-.782,0-1.185,0-.484,0-1.085.007-1.659.007h-.543c-.3,0-.461.055-.579.366a1.8,1.8,0,0,1-.689.87,1.89,1.89,0,0,1-1.055.309,2.142,2.142,0,0,1-.443-.046,1.791,1.791,0,0,1-1.025-.662,1.971,1.971,0,0,1-.424-1.187,1.889,1.889,0,0,1,1.544-1.87,1.789,1.789,0,0,1,.368-.038,1.859,1.859,0,0,1,1.03.313,1.836,1.836,0,0,1,.694.853c.1.263.208.389.51.389h0c.388,0,.8,0,1.262,0l2.177,0h.256l2.053,0h.951a.656.656,0,0,0,.4-.182c.4-.38.79-.762,1.238-1.2l.039-.039c.151-.149.308-.3.473-.464h-.011c-.154,0-.293.005-.417.01-.109,0-.212.007-.308.007a1.816,1.816,0,0,1-.374-.032,1.935,1.935,0,0,1-.928-.381c-.72-.69-1.435-1.4-2.127-2.089l0,0c-.627-.624-1.274-1.269-1.922-1.892a1.312,1.312,0,0,0-.816-.341c-.772-.016-1.563-.024-2.35-.024s-1.564.008-2.344.024a1.308,1.308,0,0,0-.819.329c-.634.612-1.268,1.247-1.882,1.858l0,0c-.643.644-1.308,1.307-1.974,1.948a1.416,1.416,0,0,1-.872.356c-1.1.017-2.218.017-3.3.019h-.009c-.954,0-1.94,0-2.917.013a1.152,1.152,0,0,0-.719.306c-1.035,1.021-2.083,2.065-3.1,3.073l-.015.014-.007.007c-1.158,1.154-2.354,2.346-3.539,3.51a1.308,1.308,0,0,1-.823.328c-.982.013-2.021.019-3.178.019-.849,0-1.784,0-2.941-.011h-.021a.66.66,0,0,0-.731.446,2.308,2.308,0,0,1-.88,1,2.363,2.363,0,0,1-1.248.357,2.357,2.357,0,0,1-.647-.091,2.41,2.41,0,0,1-1.782-2.491,2.459,2.459,0,0,1,.651-1.493,2.441,2.441,0,0,1,1.444-.748,2.311,2.311,0,0,1,.318-.022,2.445,2.445,0,0,1,2.277,1.65c.023.066.049.129.078.2.015.038.031.076.048.121h2.27c1.326,0,2.754,0,4.212-.007a.583.583,0,0,0,.367-.161c1.9-1.891,3.8-3.806,5.648-5.658l.156-.157a.522.522,0,0,0,.064-.092c.014-.023.031-.051.053-.083l-.15-.015h0c-.086-.01-.173-.017-.26-.019h-2.924c-.925,0-2.022,0-3.142-.015h-.023a.6.6,0,0,0-.683.5,3.184,3.184,0,0,1-3.071,2.23,3.455,3.455,0,0,1-.614-.055,3.24,3.24,0,0,1-1.942-1.15,3.307,3.307,0,0,1-.745-2.149,3.272,3.272,0,0,1,.765-2.03,3.28,3.28,0,0,1,1.866-1.109,3.392,3.392,0,0,1,.663-.066,3.211,3.211,0,0,1,2.994,1.982.617.617,0,0,0,.7.445h0c2.329,0,4.418-.005,6.388-.005,2.768,0,5.3,0,7.75.01h.006a1.4,1.4,0,0,0,1.1-.469c.216-.225.439-.451.654-.67l.008-.008c.609-.618,1.24-1.257,1.832-1.965h-5.137c-1.751,0-3.1,0-4.375.007h-.008a1.589,1.589,0,0,1-1.211-.5c-.9-.9-1.81-1.813-2.692-2.694l-.016-.017c-.824-.821-1.676-1.669-2.51-2.51a1.152,1.152,0,0,0-.885-.4h-.028c-.659.012-1.343.019-2.095.019-.669,0-1.378,0-2.231-.015h-.027a.517.517,0,0,0-.6.436,3.994,3.994,0,0,1-.585,1.163,4.239,4.239,0,0,1-.9.912,3.974,3.974,0,0,1-2.35.807c-.1,0-.2,0-.306-.013a4.428,4.428,0,0,1-2.648-1.129,4.092,4.092,0,0,1-1.279-2.491,4.068,4.068,0,0,1,.562-2.641,4.2,4.2,0,0,1,2.092-1.754,4.245,4.245,0,0,1,1.523-.286,3.961,3.961,0,0,1,2.16.637,4.437,4.437,0,0,1,1.566,1.81.655.655,0,0,0,.686.448h.018c.58-.006,1.143-.008,1.618-.008h1.17c.636,0,1.384,0,2.117-.015h.057a2.18,2.18,0,0,1,.828.147,2.055,2.055,0,0,1,.7.492c1.017,1.048,2.065,2.094,3.078,3.1l0,0c.647.646,1.317,1.315,1.971,1.976a1.167,1.167,0,0,0,.913.384h0c3.261-.009,6.577-.009,9.784-.01h.034c2.184,0,4.659,0,7.061,0h0a1.454,1.454,0,0,1,1.122.457c1.569,1.59,2.788,2.808,3.952,3.946a1.155,1.155,0,0,0,.708.345c3.154.013,6.339.014,8.761.014h5.588c.061,0,.121,0,.213-.011h0c.059,0,.124-.009.207-.015-.156-.154-.31-.308-.46-.458l-.111-.111,0,0c-.61-.609-1.186-1.184-1.773-1.746a.7.7,0,0,0-.439-.092h-.007l-.607,0h-.975c-.306,0-.708,0-1.108-.01h-.028a.517.517,0,0,0-.552.379,1.9,1.9,0,0,1-.706.862,1.845,1.845,0,0,1-1.027.308,1.9,1.9,0,0,1-.666-.121,1.849,1.849,0,0,1-1.019-.921,1.978,1.978,0,0,1-.133-1.4,1.8,1.8,0,0,1,.672-.986,1.9,1.9,0,0,1,1.14-.373,2.07,2.07,0,0,1,.407.042,1.677,1.677,0,0,1,1.3,1.044.614.614,0,0,0,.67.458c.022,0,.047,0,.073,0,.2-.008.41-.011.666-.011l.551,0h.02c.16,0,.358,0,.547,0,.311,0,.565,0,.8-.015l.084,0a1.356,1.356,0,0,1,1.06.494c.255.27.526.533.787.787a16.535,16.535,0,0,1,1.2,1.249,1.723,1.723,0,0,0,1.444.654,5.134,5.134,0,0,0,.773-.072l-.642-.614-.012-.012c-.451-.431-.877-.836-1.3-1.25-.368-.362-.735-.731-1.09-1.086l0,0c-.606-.606-1.233-1.235-1.863-1.838a1.162,1.162,0,0,0-.721-.3c-.945-.011-1.9-.012-2.789-.012h-.494c-.729,0-1.555,0-2.361-.006h-.017a.6.6,0,0,0-.651.41,1.906,1.906,0,0,1-1.721,1.117,1.811,1.811,0,0,1-.413-.048,1.894,1.894,0,0,1-1.029-.644,1.912,1.912,0,0,1-.434-1.138,1.946,1.946,0,0,1,.338-1.184,1.8,1.8,0,0,1,.966-.706,2.238,2.238,0,0,1,.6-.088,1.832,1.832,0,0,1,1.615.952,3.838,3.838,0,0,1,.188.389c.03.071.062.142.1.218.46,0,.927.009,1.379.017s.93.018,1.4.018c.687,0,1.252-.02,1.778-.062.187-.016.369-.022.541-.022a3.986,3.986,0,0,1,3.3,1.566,36.59,36.59,0,0,0,2.945,3.021h0c.33.313.7.668,1.056,1.012a1.365,1.365,0,0,0,.413.275c.153.729.283,1.468.388,2.2h-3.239c-3.7,0-8.08,0-12.5-.015h-.007a1.528,1.528,0,0,0-1.181.5c-.919.919-1.855,1.851-2.76,2.752l-.017.018c-1.4,1.391-2.842,2.831-4.271,4.266a1.283,1.283,0,0,1-.99.4h-.04c-.534-.01-1.026-.016-1.5-.016-.586,0-1.129.008-1.661.023a1.094,1.094,0,0,0-.684.277c-1.286,1.266-2.572,2.556-3.815,3.8l-1.179,1.183c-.135.135-.278.267-.417.4a6.816,6.816,0,0,0-.839.874,2.218,2.218,0,0,1-1.951.854c-.209,0-.422-.013-.6-.024-.1-.006-.183-.011-.263-.011a.905.905,0,0,0-.853.467,7.813,7.813,0,0,1-1.292,1.368c-.131.118-.266.24-.4.361a.879.879,0,0,1-.53.155c-.241.006-.479.006-.659.006h-.655c-.3,0-.652,0-1.006.018a1.045,1.045,0,0,0-.637.263c-.976.959-1.956,1.938-2.9,2.885-.564.563-1.148,1.146-1.731,1.725-.23.23-.3.393-.1.706a1.813,1.813,0,0,1-.379,2.341,1.888,1.888,0,0,1-1.256.486Zm0-3.071a1.143,1.143,0,0,0-.832.328,1.146,1.146,0,0,0-.342.828h0a1.172,1.172,0,0,0,.338.843,1.173,1.173,0,0,0,.839.347h.02a1.159,1.159,0,0,0,.822-.354,1.163,1.163,0,0,0,.327-.834,1.149,1.149,0,0,0-.339-.824,1.148,1.148,0,0,0-.826-.335Zm-6.022-9.178a1.17,1.17,0,0,0-.843.348,1.177,1.177,0,0,0-.34.845v.015a1.144,1.144,0,0,0,.349.82,1.14,1.14,0,0,0,.832.321h.007a1.152,1.152,0,0,0,.829-.34,1.158,1.158,0,0,0,.336-.831,1.2,1.2,0,0,0-1.168-1.179Zm8.923-4.9a1.177,1.177,0,0,0-1.185,1.162v.023a1.161,1.161,0,0,0,.338.833,1.168,1.168,0,0,0,.832.342h.03a1.188,1.188,0,0,0,1.163-1.188,1.183,1.183,0,0,0-1.175-1.169Zm7.726-2.936a1.345,1.345,0,0,0-1.33,1.338v.011a1.33,1.33,0,0,0,.4.938,1.328,1.328,0,0,0,.945.381h.016a1.315,1.315,0,0,0,1.32-1.282,1.371,1.371,0,0,0-.388-.99,1.328,1.328,0,0,0-.953-.4h-.005Zm-19.308-1.24a1.718,1.718,0,0,0-1.724,1.687v.012a1.724,1.724,0,0,0,1.716,1.686h0a1.689,1.689,0,0,0,1.188-.493,1.63,1.63,0,0,0,.5-1.169,1.668,1.668,0,0,0-.47-1.217,1.669,1.669,0,0,0-1.2-.506Zm29.489-3.687h-.017a1.183,1.183,0,0,0-1.169,1.171v.006a1.165,1.165,0,0,0,.34.829,1.166,1.166,0,0,0,.828.341h0a1.21,1.21,0,0,0,.866-.353,1.111,1.111,0,0,0,.329-.791,1.185,1.185,0,0,0-.338-.851,1.186,1.186,0,0,0-.844-.354Zm-24.6-3.691h-.013a1.869,1.869,0,0,0-1.843,1.827v.021a1.856,1.856,0,0,0,.547,1.315,1.857,1.857,0,0,0,1.319.54h.015a1.848,1.848,0,0,0,1.311-.552,1.868,1.868,0,0,0,.534-1.34,1.879,1.879,0,0,0-1.869-1.811Zm42.273-3.467a1.158,1.158,0,0,0-.83.347,1.157,1.157,0,0,0-.331.837v.017a1.148,1.148,0,0,0,.332.825,1.15,1.15,0,0,0,.821.339h.017a1.216,1.216,0,0,0,1.18-1.157,1.207,1.207,0,0,0-1.147-1.208h-.041Zm-3.272-2.756h-.007a1.177,1.177,0,0,0-1.185,1.156,1.205,1.205,0,0,0,1.156,1.2h.017a1.207,1.207,0,0,0,.854-.36,1.156,1.156,0,0,0,.341-.832,1.181,1.181,0,0,0-1.177-1.162Zm-43.311-4.841a2.02,2.02,0,0,0-2.018,1.94c0,.018,0,.038,0,.062a1.976,1.976,0,0,0,.567,1.422,1.974,1.974,0,0,0,1.413.59h.038a1.981,1.981,0,0,0,2.01-1.948,2.037,2.037,0,0,0-.574-1.47,1.988,1.988,0,0,0-1.423-.6Zm22.147,3.781a1.55,1.55,0,0,1-.379-.047,1.919,1.919,0,0,1-1.561-1.918,1.9,1.9,0,0,1,1.549-1.815,2.393,2.393,0,0,1,.4-.035,1.63,1.63,0,0,1,1.094.39,2.929,2.929,0,0,1,.785,1.194h.841c.392,0,.731,0,1.036,0,.067,0,.134,0,.2-.01h.014c.027,0,.055,0,.082-.006l.049-.064.027-.036.046-.061c-.079-.064-.162-.128-.241-.189l0,0a5.575,5.575,0,0,1-.508-.428c-.57-.566-1.147-1.143-1.705-1.7-.98-.982-1.994-2-3-2.984a1.256,1.256,0,0,0-.774-.319c-.515-.018-1.044-.027-1.573-.027-.505,0-1.023.008-1.538.025a1.265,1.265,0,0,0-.724.311c-.222.19-.43.407-.63.615h0c-.183.189-.372.386-.571.563a.63.63,0,0,0-.238.365.719.719,0,0,0,.109.433,1.835,1.835,0,0,1,.115,1.4,1.86,1.86,0,0,1-.326.614,1.756,1.756,0,0,1-.539.448,2.069,2.069,0,0,1-.97.248,1.845,1.845,0,0,1-.91-.237,1.913,1.913,0,0,1-.7-.683,1.944,1.944,0,0,1,.092-2.088,1.793,1.793,0,0,1,1.457-.776,1.76,1.76,0,0,1,.483.069,1.138,1.138,0,0,0,.319.051.7.7,0,0,0,.579-.326,2.846,2.846,0,0,1,.362-.366,2.752,2.752,0,0,0,.376-.385,2.539,2.539,0,0,1,.9-.782,2.451,2.451,0,0,1,1.125-.246,3.621,3.621,0,0,1,.392.021,9.285,9.285,0,0,0,.975.044c.267,0,.535-.008.794-.013h0c.242-.006.517-.014.79-.014h.014a1.31,1.31,0,0,1,1.044.483c.527.575,1.1,1.129,1.648,1.665l0,0,.005.005c.274.266.558.541.832.815l.151.152c1,1,2.029,2.029,3.028,3.059a1.036,1.036,0,0,0,.881.369,5.86,5.86,0,0,0,.779-.067c-.242-.235-.482-.465-.713-.686h0c-.5-.477-.967-.927-1.435-1.4-.742-.745-1.494-1.505-2.222-2.24v0l-.01-.01c-.89-.9-1.81-1.829-2.721-2.74a.718.718,0,0,0-.466-.169c-1.165,0-2.349,0-3.495-.006h-.019c-1.557,0-3.167,0-4.757-.013h-.006c-.337,0-.422.192-.52.414l-.016.037a1.821,1.821,0,0,1-1.682,1.09,2.009,2.009,0,0,1-.653-.11,1.878,1.878,0,0,1-1.206-2.236,1.954,1.954,0,0,1,.664-1.047,1.8,1.8,0,0,1,1.132-.412,1.634,1.634,0,0,1,.254.019,2.122,2.122,0,0,1,.925.354,1.685,1.685,0,0,1,.6.793.548.548,0,0,0,.62.4h.005c.928,0,1.813,0,2.632,0,2.044,0,3.908.008,5.7.023a1.07,1.07,0,0,1,.679.285c2.414,2.4,4.856,4.844,7.259,7.274a1.654,1.654,0,0,0,1.1.46,2.949,2.949,0,0,0,.4.027,2.8,2.8,0,0,0,2.145-1.09c.823-.9,1.718-1.766,2.583-2.6h0c.346-.334.737-.713,1.109-1.081l-.038-.143h-.006c-.149,0-.3,0-.447.009h0c-.141,0-.3.009-.455.009a4.2,4.2,0,0,1-.565-.03,1.223,1.223,0,0,0-.158-.011,1.483,1.483,0,0,0-1.07.61l-.022.021-.116.119-.052.053c-.489.5-.993,1.019-1.514,1.5a1.181,1.181,0,0,1-.638.27,1.891,1.891,0,0,1-.258.013c-.088,0-.177,0-.263-.007h-.006c-.085,0-.173-.006-.26-.006a1.914,1.914,0,0,0-.317.023,3.039,3.039,0,0,1-.485.041,2.431,2.431,0,0,1-1.192-.307,4.14,4.14,0,0,1-1.017-.829c-1.4-1.5-2.885-2.957-4.323-4.369l0,0-.684-.671a1.159,1.159,0,0,0-.743-.279c-.853-.009-1.732-.015-2.69-.015-.836,0-1.731,0-2.735.012a6.046,6.046,0,0,0-1.178.131,1.86,1.86,0,0,1-.4.042,1.94,1.94,0,0,1-1.818-1.235,1.856,1.856,0,0,1,.01-1.347,2.02,2.02,0,0,1,.936-1.022,1.763,1.763,0,0,1,.822-.2,1.917,1.917,0,0,1,1.567.8,1.852,1.852,0,0,1,.28.92,3.472,3.472,0,0,1-.141,1.191c.415,0,.835.008,1.242.015h0c.4.007.822.015,1.232.015.6,0,1.1-.017,1.565-.052.165-.011.327-.019.479-.019a3.67,3.67,0,0,1,2.975,1.359c.982,1.12,2.068,2.178,3.12,3.2.509.5,1.036,1.007,1.544,1.522a1.344,1.344,0,0,0,.869.38,4.782,4.782,0,0,0,.653.046,3,3,0,0,0,2.651-1.422,1.82,1.82,0,0,1,.241-.267c.053-.052.118-.117.192-.194h0c-.157,0-.306,0-.426-.005s-.23,0-.341,0c-.164,0-.3.005-.42.015-.046,0-.091.006-.135.006a1.379,1.379,0,0,1-1.031-.471c-1.173-1.183-2.355-2.365-3.5-3.508l-.008-.007c-1.243-1.244-2.528-2.529-3.786-3.8a1.209,1.209,0,0,0-.947-.386h-.023c-.769.008-1.544.01-2.133.01h-1.5c-.5,0-1.09,0-1.693,0h-.013a1.3,1.3,0,0,1-1.014-.424c-.379-.4-.772-.787-1.151-1.164-.342-.34-.7-.691-1.037-1.046a.918.918,0,0,0-.717-.327,1.293,1.293,0,0,0-.151.008c-.124.012-.248.02-.373.02a3.321,3.321,0,0,1-1.981-.639,3.193,3.193,0,0,1-1.177-1.686,3.3,3.3,0,0,1-.13-1.156,3.185,3.185,0,0,1,.27-1.088,3.254,3.254,0,0,1,.634-.938,3.514,3.514,0,0,1,.96-.706,3.106,3.106,0,0,1,1.418-.337,3.281,3.281,0,0,1,1.4.317,3.389,3.389,0,0,1,1.175.919,3.208,3.208,0,0,1,.7,2.046,3.266,3.266,0,0,1-.714,2.057c-.074.091-.153.184-.244.29l0,.005-.161.19c.179.171.355.344.535.518l0,0c.542.526,1.1,1.07,1.664,1.588a.8.8,0,0,0,.493.1h0l.555,0h.024c.867,0,1.764.008,2.645.008.838,0,1.578,0,2.262-.011h.02a1.361,1.361,0,0,1,1.045.453c2.867,2.883,5.215,5.226,7.389,7.372a1.2,1.2,0,0,0,.77.317h0c1.915,0,3.863-.018,5.746-.033h.005c1.221-.009,2.605-.021,3.952-.027a.685.685,0,0,0,.787-.547,2.736,2.736,0,0,1,.452-.831,3.086,3.086,0,0,1,.7-.646,3.3,3.3,0,0,1,1.826-.569h0a3.406,3.406,0,0,1,1.895.563,2.934,2.934,0,0,1,1.175,1.5c.142.419.322.575.662.575a1.455,1.455,0,0,0,.153-.009,1.02,1.02,0,0,1,.116-.008,1.237,1.237,0,0,1,.934.6h0c.079.094.161.192.247.277.548.537,1.145,1.127,1.824,1.8.523,1.218,1.049,2.426,1.562,3.592-.993-.99-2.006-2.005-2.9-2.9l-.011-.011-1.593-1.595c-.271-.27-.436-.381-.568-.381-.16,0-.283.156-.455.575a3.217,3.217,0,0,1-3.01,1.969h-.08a3.281,3.281,0,0,1-1.835-.6,3.046,3.046,0,0,1-1.133-1.53.5.5,0,0,0-.566-.414h-.031c-.893.015-1.868.021-3.067.021h-1a1.3,1.3,0,0,0-1.01.438c-1.644,1.681-3.274,3.309-4.844,4.84a1.39,1.39,0,0,1-.869.355c-1.413.019-2.8.021-4.086.021h-3.414A2.2,2.2,0,0,1-220.681-4525.321Zm-.032-3.118a1.263,1.263,0,0,0-1.2,1.2v.008a1.235,1.235,0,0,0,1.175,1.177h.007a1.213,1.213,0,0,0,.846-.362,1.192,1.192,0,0,0,.356-.833,1.277,1.277,0,0,0-1.174-1.189h-.013Zm-8.9-3.006h-.034a1.218,1.218,0,0,0-1.141,1.175v.041a1.184,1.184,0,0,0,1.176,1.151h.02a1.207,1.207,0,0,0,1.175-1.181,1.24,1.24,0,0,0-1.2-1.187Zm32.707-3.619a1.836,1.836,0,0,0-1.83,1.836v0a1.915,1.915,0,0,0,1.854,1.872h.029a1.875,1.875,0,0,0,1.821-1.873,1.82,1.82,0,0,0-.517-1.3,1.9,1.9,0,0,0-1.356-.536Zm-35.39-1.355h-.015a1.287,1.287,0,0,0-1.185,1.185c0,.008,0,.015,0,.022a1.293,1.293,0,0,0,1.2,1.186h.017a1.23,1.23,0,0,0,1.171-1.186,1.21,1.21,0,0,0-.363-.846,1.181,1.181,0,0,0-.825-.362Zm4.312-2.745a1.134,1.134,0,0,0-.819.3,1.135,1.135,0,0,0-.363.794c0,.027,0,.05,0,.076a1.15,1.15,0,0,0,.324.824,1.148,1.148,0,0,0,.814.351h.034a1.154,1.154,0,0,0,1.179-1.125,1.154,1.154,0,0,0-.3-.843,1.156,1.156,0,0,0-.812-.375.455.455,0,0,0-.056,0Zm-1.963-9.425a1.821,1.821,0,0,0-1.3.529,1.82,1.82,0,0,0-.538,1.3v.014a1.878,1.878,0,0,0,1.85,1.878h.014a1.9,1.9,0,0,0,1.839-1.847,1.849,1.849,0,0,0-.534-1.325,1.861,1.861,0,0,0-1.326-.547Zm23.929,11.036c-.054,0-.112,0-.172,0a3.188,3.188,0,0,1-1.1-.234,2.754,2.754,0,0,1-.89-.6,3.709,3.709,0,0,1-.684-.976,6.474,6.474,0,0,1-.479-1.356h-2.811c-.243,0-.491,0-.73.006h-.022c-.268,0-.546.006-.821.006-.347,0-.635,0-.907-.016a1.2,1.2,0,0,1-.729-.3c-1.865-1.831-3.707-3.681-5.263-5.248a1.058,1.058,0,0,0-.807-.372c-.033,0-.068,0-.1,0s-.094.006-.141.006a1.783,1.783,0,0,1-1.186-.437,1.938,1.938,0,0,1-.621-1.12,1.9,1.9,0,0,1,.243-1.3,1.834,1.834,0,0,1,1.011-.828,2.034,2.034,0,0,1,.623-.1,1.872,1.872,0,0,1,.991.28,1.84,1.84,0,0,1,.7.792,1.92,1.92,0,0,1-.518,2.345c.259.25.518.5.769.739l.019.018c.578.557,1.176,1.13,1.756,1.7.4.394.8.792,1.188,1.177.551.55,1.121,1.119,1.7,1.674a.935.935,0,0,0,.585.252c.891.013,1.8.013,2.674.014h.007c.64,0,1.366,0,2.064.006h.012c.3,0,.431-.1.537-.4a3.461,3.461,0,0,1,1.036-1.566,3.161,3.161,0,0,1,1.736-.689c.136-.013.271-.02.4-.02a3.152,3.152,0,0,1,2.821,1.675.674.674,0,0,0,.46.317c2.077.013,4.169.015,6.121.015h2.716c.09.475.2.96.317,1.442h-8.731c-.091,0-.181,0-.285.011h0l-.173.009a3.985,3.985,0,0,1-.426,1.4,3.176,3.176,0,0,1-.969,1.085,3.288,3.288,0,0,1-.913.453A3.358,3.358,0,0,1-206.014-4537.553Zm.006-5.153a1.909,1.909,0,0,0-1.846,1.8c0,.028,0,.055,0,.085a1.847,1.847,0,0,0,1.8,1.847h.057a1.891,1.891,0,0,0,1.863-1.779,1.844,1.844,0,0,0-.5-1.32,1.9,1.9,0,0,0-1.317-.627h-.06Zm-15.606-6.988a1.191,1.191,0,0,0-1.173,1.167v.008a1.141,1.141,0,0,0,.34.844,1.14,1.14,0,0,0,.849.327h.016a1.123,1.123,0,0,0,.828-.342,1.124,1.124,0,0,0,.315-.839,1.158,1.158,0,0,0-.341-.831,1.155,1.155,0,0,0-.832-.333Zm10.206,7.405a1.543,1.543,0,0,1-1.028-.307c-.037-.035-.074-.07-.115-.107a2.017,2.017,0,0,1-.293-.3.841.841,0,0,0-.706-.419,1.347,1.347,0,0,0-.445.085,1.426,1.426,0,0,1-.477.079,1.673,1.673,0,0,1-.919-.286,1.99,1.99,0,0,1-.673-.749,1.922,1.922,0,0,1-.2-1.206,1.848,1.848,0,0,1,.577-1.059,1.946,1.946,0,0,1,1.316-.515,1.767,1.767,0,0,1,.974.282,1.957,1.957,0,0,1,.791.993,1.909,1.909,0,0,1,0,1.262,2.2,2.2,0,0,1-.336.586c.082.065.166.129.248.19h0a6.312,6.312,0,0,1,.533.435,1.108,1.108,0,0,0,.758.333,1.079,1.079,0,0,0,.758-.344c.2-.2.4-.4.594-.6l0,0c.4-.406.815-.825,1.24-1.219a1.129,1.129,0,0,1,.676-.3c.694-.012,1.427-.019,2.178-.019.713,0,1.45.005,2.253.017a.986.986,0,0,1,.591.247,7.451,7.451,0,0,1,.559.576,3.471,3.471,0,0,0,1.142.956,2.384,2.384,0,0,0,.908.144c.225,0,.459-.016.686-.031h0c.227-.015.462-.032.687-.032h.012l1.046,0c.806,0,1.624,0,2.417-.005h.336a.539.539,0,0,0,.372-.154c-.215-.208-.439-.416-.656-.617l-.006,0a17.279,17.279,0,0,1-1.46-1.462,2.573,2.573,0,0,0-2.194-.917h-.1c-1.529.024-3.022.026-4.28.026h-3.238c-.978,0-1.774,0-2.5.007h-.017a1.707,1.707,0,0,1-.7-.134,1.821,1.821,0,0,1-.571-.417c-.709-.729-1.438-1.456-2.143-2.16-.553-.551-1.124-1.12-1.688-1.693a.606.606,0,0,0-.448-.222.96.96,0,0,0-.282.05,3.57,3.57,0,0,1-1.029.162,2.878,2.878,0,0,1-2.222-1.061,3.124,3.124,0,0,1-.777-1.557,3.033,3.033,0,0,1,.255-1.731,2.95,2.95,0,0,1,2.77-1.863l.108,0a3.033,3.033,0,0,1,1.559.4,2.982,2.982,0,0,1,1.114,1.188,3.152,3.152,0,0,1,.408,1.687,3.193,3.193,0,0,1-.6,1.643l-.168.244-.034.049-.086.126c.325.318.659.636.982.942.754.718,1.533,1.458,2.231,2.247a2.953,2.953,0,0,0,2.426,1.046c.045,0,.091,0,.135,0,1.174-.027,2.45-.039,4.018-.039.874,0,1.763,0,2.623.007h.063c.846,0,1.72.007,2.58.007h.54c0-.18,0-.357,0-.529,0-.5,0-.97-.011-1.446a.584.584,0,0,0-.207-.344c-.818-.83-1.835-1.861-2.834-2.834a.583.583,0,0,0-.374-.125.433.433,0,0,0-.109.012,3.23,3.23,0,0,1-.768.1,2.754,2.754,0,0,1-1.587-.484,2.363,2.363,0,0,1-.931-1.311,2.9,2.9,0,0,1-.1-1.08,2.48,2.48,0,0,1,.3-.955,2.514,2.514,0,0,1,.659-.758,3.011,3.011,0,0,1,.979-.5,2.154,2.154,0,0,1,.616-.087,2.637,2.637,0,0,1,1.135.266,2.623,2.623,0,0,1,.93.739,2.687,2.687,0,0,1,.54,1.435,2.206,2.206,0,0,1-.343,1.434c-.288.412-.144.6.127.864,1.068,1.04,1.929,1.908,2.709,2.732a1.355,1.355,0,0,1,.322.78,14.478,14.478,0,0,1,.008,1.792,1.168,1.168,0,0,0,.382.969q.285.279.571.557l0,0c.714.695,1.452,1.416,2.166,2.135.023.25.05.506.081.765.041.336.091.681.147,1.021a.93.93,0,0,0-.656-.243h-.02c-.922.014-1.861.02-2.871.02-1.149,0-2.384-.009-3.773-.028a1.206,1.206,0,0,1-.861-.347,3.476,3.476,0,0,0-2.957-1.559,5.058,5.058,0,0,0-.729.055,5.411,5.411,0,0,1-.8.054c-.362,0-.719-.027-.991-.052-.048,0-.1-.005-.14-.005a1.226,1.226,0,0,0-.959.461c-.435.469-.9.926-1.348,1.369h0l-.321.317A1.565,1.565,0,0,1-211.407-4542.289Zm-3.009-4.053a1.18,1.18,0,0,0-1.165,1.174v0a1.2,1.2,0,0,0,1.181,1.171h.011a1.179,1.179,0,0,0,1.174-1.161,1.166,1.166,0,0,0-.327-.844,1.192,1.192,0,0,0-.857-.344h-.016Zm-1.734-9.951a2.05,2.05,0,0,0-2.049,2.04v0a2.043,2.043,0,0,0,2.048,2.029h0a2.028,2.028,0,0,0,2.014-2,2.041,2.041,0,0,0-.6-1.468,1.984,1.984,0,0,0-1.416-.6Zm13.45-.784h-.02a1.588,1.588,0,0,0-1.5,1.524v.007a1.548,1.548,0,0,0,1.529,1.514h.036a1.538,1.538,0,0,0,1.5-1.523,1.57,1.57,0,0,0-1.541-1.521Z" transform="translate(556.221 9745.5)" fill="#fff" stroke="rgba(0,0,0,0)" stroke-miterlimit="10" stroke-width="1"/>
    <path id="Path_87" data-name="Path 87" d="M253.688,14.945c-.085.123-1.225-1.1-1.732-1.683a18.218,18.218,0,0,1-4.214-9.552,38.491,38.491,0,0,1-.033-9.023c.384-4.37.816-8.738,1.122-13.114a35.505,35.505,0,0,0-3.19-17.225q-2.415-5.388-4.678-10.843a28.422,28.422,0,0,1-2.065-7.5c-.5-4.108.022-8.005,2.725-11.321a10.586,10.586,0,0,1,9.47-3.951,16.754,16.754,0,0,1,6.55,2.151q5.2,2.7,10.437,5.3c1.11.551,2.3.938,3.469,1.514-.651.069-1.3.16-1.952.2-2.988.188-11.4-4.648-14.245-5.411a19.48,19.48,0,0,0-4.948-.79c-3.525-.017-7.3,2.555-8.092,6-.8,3.5.2,9.413,1.149,12.9a57.629,57.629,0,0,0,2,5.864,116.7,116.7,0,0,1,4.031,12.347A40.742,40.742,0,0,1,250.4-16.8c-.5,3.058-.419,5.41-.976,8.459a43.348,43.348,0,0,0-.26,13.744,16,16,0,0,0,3.125,7.372A18.565,18.565,0,0,1,253.688,14.945Z" transform="translate(123.075 5255.817)" fill="#fff"/>
  </g>
</svg>
