<svg xmlns="http://www.w3.org/2000/svg" width="240.319" height="71.415" viewBox="0 0 211.319 71.415">
  <g id="Group_60" data-name="Group 60" transform="translate(-310.726 -5180)">
    <text id="ARTI" transform="translate(418.045 5235)" font-size="51" font-family="SegoeUI, Segoe UI"><tspan x="0" y="0">ARTI</tspan></text>
    <g id="Group_55" data-name="Group 55" transform="translate(366.447 5190.068)">
      <g id="Group_47" data-name="Group 47" transform="translate(0 0)">
        <path id="Path_67" data-name="Path 67" d="M488.349-9.059a4.478,4.478,0,0,1-.171-2.68,20.867,20.867,0,0,0,.54-2.782,5.292,5.292,0,0,0-3.024-5.36,6.651,6.651,0,0,0-3.968-.266,40.3,40.3,0,0,0-10.55,3.56,9.036,9.036,0,0,1-4.537,1.034,7.859,7.859,0,0,1-3.915-1.394c.583-.039,1.056-.073,1.528-.1a17.9,17.9,0,0,0,8-2.494c1.368-.793,2.671-1.7,4.032-2.5a21.46,21.46,0,0,1,7.375-2.757,7.758,7.758,0,0,1,7.684,2.776,4.386,4.386,0,0,1,.715,4.513c-.641,1.823-1.426,3.6-2.187,5.377-.4.935-.878,1.836-1.323,2.751C488.5-9.292,488.438-9.205,488.349-9.059Z" transform="translate(-460.844 24.945)"/>
        <path id="Path_68" data-name="Path 68" d="M637.991,217.538a.894.894,0,0,1,.014.107c-.146,1.451-.146,1.451-1.583,1.451-.579,0-1.157.006-1.736,0a.306.306,0,0,0-.36.291c-.284,1.33-.592,2.655-.88,3.984-.091.421.055.636.488.764.46.136.924.26,1.434.4-.048.247-.093.48-.14.725h-6.586c-.016-.662.016-.707.609-.87.344-.095.687-.2,1.034-.283a.9.9,0,0,0,.706-.683c.323-1.392.621-2.789.926-4.185.005-.024-.01-.052-.029-.133H623.27c.2-.718.184-1.389.759-1.944,4.034-3.892,8.034-7.82,12.053-11.728a.836.836,0,0,1,.464-.19,8.459,8.459,0,0,1,.9-.008l-2.71,12.3Zm-3.756-8.583-.075-.049-8.924,8.64h7.06Z" transform="translate(-608.11 -186.187)"/>
        <path id="Path_69" data-name="Path 69" d="M440.894,342.188a15.6,15.6,0,0,1,.455-2.424,94.612,94.612,0,0,1,3.217-11.546,46.25,46.25,0,0,1,1.645-4.828c.983-2.162,2.172-4.231,3.3-6.327a2.261,2.261,0,0,1,1.285-1.166,1.307,1.307,0,0,1,1.613.475,3.569,3.569,0,0,1,.547.918c.564,1.577,1.111,3.16,1.626,4.753.123.381.237,1.131,0,1.3s-.722-.243-.948-.638a4.647,4.647,0,0,1-.34-.792,1.433,1.433,0,0,0-2.615-.519,27.64,27.64,0,0,0-2.6,4.006c-1.153,2.263-2.192,4.591-3.147,6.946a41.018,41.018,0,0,0-1.207,4.152,30.585,30.585,0,0,1-1.979,5.316c-.117.233-.257.454-.392.678C441.314,342.543,440.894,342.869,440.894,342.188Z" transform="translate(-440.894 -287.613)"/>
      </g>
      <path id="Subtraction_9" data-name="Subtraction 9" d="M4.839,13.951c-.1,0-.208,0-.314-.005a4.78,4.78,0,0,1-1.559-.311,4.269,4.269,0,0,1-1.289-.781,4.519,4.519,0,0,1-.96-1.2,5.518,5.518,0,0,1-.571-1.575A9.155,9.155,0,0,1,.738,4.929,9.151,9.151,0,0,1,2.12,2.583,7.012,7.012,0,0,1,4.149.864,7.2,7.2,0,0,1,5.72.219,6.148,6.148,0,0,1,7.338,0,6.513,6.513,0,0,1,9.157.268a2.583,2.583,0,0,1,1.071.61,2.622,2.622,0,0,1,.65.988,2.964,2.964,0,0,1,.165,1.356,3.29,3.29,0,0,1-.5,1.4,4.42,4.42,0,0,1-1.612,1.52,7.742,7.742,0,0,1-2.074.759,8.182,8.182,0,0,1-1.788.266,3.22,3.22,0,0,1-.394-.022c-.129,0-.244,0-.354,0a7.07,7.07,0,0,1-1.372-.111.983.983,0,0,0-.186-.021c-.193,0-.292.1-.314.308a5.441,5.441,0,0,0,.8,3.954,3.2,3.2,0,0,0,2.621,1.182,4.4,4.4,0,0,0,2.172-.582c.415-.236.815-.514,1.2-.783h0l0,0c.211-.146.43-.3.648-.441l.065-.045a.5.5,0,0,1,.272-.125.229.229,0,0,1,.127.04c.133.086.1.205.064.321a.648.648,0,0,0-.031.149,1.3,1.3,0,0,1-.317.813,3.447,3.447,0,0,1-.649.544c-.083.059-.169.12-.253.183a6.881,6.881,0,0,1-2.059,1.075,7.484,7.484,0,0,1-2.278.339ZM6.625,1.067a2.255,2.255,0,0,0-1.419.521A7.562,7.562,0,0,0,3.025,4.755c-.263.639-.4.981-.282,1.152s.482.179,1.125.179h.17l0,.024c.163-.012.329-.021.489-.031h.017C4.9,6.057,5.27,6.035,5.63,6A3.171,3.171,0,0,0,8.662,2.688a1.379,1.379,0,0,0-.784-1.3,2.871,2.871,0,0,0-1.254-.322Z" transform="translate(31.704 19.023)" fill="#ed2323" stroke="rgba(0,0,0,0)" stroke-miterlimit="10" stroke-width="1"/>
    </g>
    <path id="Subtraction_13" data-name="Subtraction 13" d="M-218.089-4494.359a2.478,2.478,0,0,1-.546-.061,2.394,2.394,0,0,1-1.5-1.041,2.357,2.357,0,0,1-.324-1.789,2.44,2.44,0,0,1,.309-.769,2.4,2.4,0,0,1,.526-.6,2.338,2.338,0,0,1,1.479-.531,2.326,2.326,0,0,1,.5.053,2.476,2.476,0,0,1,1.15.562,2.327,2.327,0,0,1,.673,1.106c.076.262.219.406.4.406a.625.625,0,0,0,.417-.216c.522-.515,1.062-1.059,1.54-1.539l.012-.011.545-.547.354-.353.027-.027c.376-.374.764-.76,1.132-1.152a.8.8,0,0,0,.208-.483c.009-.373.008-.751.006-1.119,0-.434,0-.882.013-1.323a1.041,1.041,0,0,1,.26-.636c.684-.706,1.389-1.413,2.071-2.1h0c.409-.41.831-.833,1.248-1.256a.9.9,0,0,1,.69-.3h.022c.5.008.994.009,1.455.009h.858c.4,0,.869,0,1.35.007h.029a.73.73,0,0,0,.755-.426l-.075-.018a.622.622,0,0,0-.144-.025h-.689c-.646,0-1.315,0-1.972,0-.771,0-1.445,0-2.062.008a.719.719,0,0,0-.452.208c-1.094,1.084-2.532,2.516-3.958,3.978a1.043,1.043,0,0,0-.256.63c-.018.336-.016.679-.013,1.009v.01c0,.293,0,.6-.009.895a.881.881,0,0,1-.219.526c-.25.262-.517.516-.776.761l0,0c-.165.156-.336.318-.5.481a.918.918,0,0,0-.169.284l-.01.022a1.533,1.533,0,0,1-.541.664,1.393,1.393,0,0,1-.791.233h0a1.823,1.823,0,0,1-.322-.031,1.4,1.4,0,0,1-1.14-1.346,1.53,1.53,0,0,1,.272-.953,1.4,1.4,0,0,1,.789-.549,1.429,1.429,0,0,1,.372-.049,1.439,1.439,0,0,1,.751.212,1.569,1.569,0,0,1,.558.595c.024.045.047.09.078.153l0,0c.017.035.036.074.059.121.091-.092.182-.182.271-.268l0,0c.246-.243.478-.472.7-.717a.534.534,0,0,0,.066-.327v-.02c0-.092,0-.186,0-.279.005-.535.011-1.09-.008-1.633a.837.837,0,0,1,.281-.673c.523-.52,1.052-1.05,1.564-1.562l.024-.024h0c.892-.893,1.815-1.816,2.732-2.715a1.04,1.04,0,0,1,.629-.184c.937-.006,1.781-.009,2.58-.009.939,0,1.8,0,2.63.014h.018a.825.825,0,0,0,.77-.441c-.05,0-.095,0-.14-.009-.086,0-.161-.01-.236-.01H-204.9c-1.381,0-2.449,0-3.463.01a.887.887,0,0,0-.563.224c-.959.946-1.921,1.91-2.852,2.841-.564.564-1.146,1.147-1.73,1.727a.51.51,0,0,0-.174.628,1.254,1.254,0,0,1-.058.936,1.52,1.52,0,0,1-.659.716,1.434,1.434,0,0,1-.672.166,1.521,1.521,0,0,1-.621-.134,1.46,1.46,0,0,1-.516-.39,1.47,1.47,0,0,1-.339-.917,1.442,1.442,0,0,1,.3-.923,1.466,1.466,0,0,1,1.146-.571,1.369,1.369,0,0,1,.6.139c.071.035.143.074.225.118h0l.145.078c.415-.416.836-.837,1.244-1.244l.031-.031c1.1-1.094,2.229-2.226,3.325-3.358a1.736,1.736,0,0,1,1.37-.591h.043c1.149.017,2.27.02,3.215.02h1.227l1.214,0c.492,0,.906,0,1.3,0h.006a.8.8,0,0,0,.665-.282,8.705,8.705,0,0,1,1.044-1.021,1.189,1.189,0,0,1,.267-.16c-.034.378-.087.958-.141,1.571-1.05,1.036-2.018,2.008-2.959,2.974a.956.956,0,0,0-.253.587c-.02,1.394-.022,2.845,0,4.313a1.194,1.194,0,0,1-.385.935c-.44.431-.883.873-1.311,1.3l0,0c-.437.437-.89.888-1.344,1.331a.525.525,0,0,0-.159.656,2.5,2.5,0,0,1,.058,1.577,2.613,2.613,0,0,1-.908,1.295,2.431,2.431,0,0,1-.723.39,2.492,2.492,0,0,1-.8.131,2.552,2.552,0,0,1-1.336-.378,2.486,2.486,0,0,1-1.008-1.17,2.646,2.646,0,0,1-.133-1.571,2.408,2.408,0,0,1,.907-1.406,2.6,2.6,0,0,1,1.567-.542,2.246,2.246,0,0,1,1.038.249.882.882,0,0,0,.4.12.663.663,0,0,0,.486-.271c.391-.415.8-.823,1.2-1.219l0,0c.357-.356.725-.726,1.079-1.1a.957.957,0,0,0,.249-.592c.012-.783.011-1.577.011-2.346v-.03c0-.609,0-1.239,0-1.858a3.615,3.615,0,0,1,.075-.607c.018-.1.037-.2.052-.308h-1.428c-.587,0-1.283,0-2,.009a.489.489,0,0,0-.3.177c-1.149,1.139-2.184,2.167-3.219,3.222a.74.74,0,0,0-.17.464c-.008.36-.007.726-.007,1.081v.038c0,.448,0,.91-.013,1.365a.905.905,0,0,1-.236.558c-.649.662-1.316,1.33-1.96,1.974l-.007.008-.008.007c-.585.585-1.189,1.191-1.779,1.792a.922.922,0,0,1-.657.34.771.771,0,0,1-.121-.01.642.642,0,0,0-.092-.007c-.16,0-.246.084-.295.292a2.4,2.4,0,0,1-.84,1.35A2.3,2.3,0,0,1-218.089-4494.359Zm-.017-3.952a1.549,1.549,0,0,0-1.105.432,1.545,1.545,0,0,0-.474,1.088v.043a1.563,1.563,0,0,0,1.494,1.563h.047a1.61,1.61,0,0,0,1.61-1.5,1.548,1.548,0,0,0-.424-1.115,1.577,1.577,0,0,0-1.107-.506h-.041Zm10-.14a1.41,1.41,0,0,0-1,.407,1.406,1.406,0,0,0-.417,1v.013a1.411,1.411,0,0,0,1.381,1.439h.022a1.459,1.459,0,0,0,1.038-.435,1.431,1.431,0,0,0,.425-1.018,1.465,1.465,0,0,0-1.447-1.4Zm-6.986-2.753h-.025a.932.932,0,0,0-.881.917v.018a.91.91,0,0,0,.9.891h.019a.938.938,0,0,0,.66-.3.9.9,0,0,0,.25-.647A.953.953,0,0,0-215.09-4501.2Zm-.011-3.455h-.015a.893.893,0,0,0-.877.906v.018a.881.881,0,0,0,.264.629.881.881,0,0,0,.635.253h.019a.919.919,0,0,0,.909-.9.922.922,0,0,0-.935-.9Zm-14.207,7.531a2.442,2.442,0,0,1-.763-.123,2.566,2.566,0,0,1-.695-.349,2.591,2.591,0,0,1-.957-1.267,2.379,2.379,0,0,1-.123-.982,2.592,2.592,0,0,1,.263-.942,2.587,2.587,0,0,1,.584-.775,2.344,2.344,0,0,1,.848-.494,2.781,2.781,0,0,1,.864-.146,2.28,2.28,0,0,1,1.14.306.472.472,0,0,0,.23.075.407.407,0,0,0,.288-.16c.347-.357.7-.712,1.05-1.055l.009-.008c.369-.367.751-.747,1.118-1.128a.993.993,0,0,1,.778-.32h.013c.557,0,1.29.008,2.032.008.794,0,1.5-.005,2.161-.017a1.012,1.012,0,0,0,.628-.26c.935-.9,1.83-1.807,2.505-2.5a.73.73,0,0,0,.185-.455c.02-.824.013-1.651.006-2.279a1.042,1.042,0,0,1,.336-.83c.526-.5,1.047-1.024,1.551-1.529l.018-.018.588-.587c-.089-.094-.181-.185-.27-.272a3.963,3.963,0,0,1-.54-.6,3.757,3.757,0,0,1-.339-.714v0c-.048-.122-.1-.248-.155-.377h0l-.3,0h-.006c-.114,0-.232,0-.352,0-.219,0-.4.005-.562.018a.759.759,0,0,0-.393.253c-.709.708-1.449,1.447-2.1,2.1l-.01.01c-1.333,1.334-2.711,2.713-4.074,4.063a1.2,1.2,0,0,1-.606.244,1.492,1.492,0,0,1-.272.023c-.085,0-.172-.005-.256-.01h0l-.12-.006h-.051c-.173,0-.28.045-.349.278a1.372,1.372,0,0,1-.52.732,1.464,1.464,0,0,1-.853.268,1.519,1.519,0,0,1-.17-.009,1.483,1.483,0,0,1-.858-.4,1.386,1.386,0,0,1-.426-.822,1.532,1.532,0,0,1,.2-.989,1.43,1.43,0,0,1,.763-.623,1.472,1.472,0,0,1,.488-.084,1.494,1.494,0,0,1,1.246.7c.122.185.264.372.382.372h.022c.089,0,.18.008.268.017h0c.089.008.181.016.272.016a.809.809,0,0,0,.617-.241c1.1-1.117,2.231-2.246,3.321-3.336l.017-.017c.91-.911,1.851-1.853,2.773-2.783a.951.951,0,0,1,.713-.334l.068,0c.137.008.285.012.463.012l.342,0h.013c.107,0,.229,0,.347,0a5.706,5.706,0,0,1,.458-1.025,2.837,2.837,0,0,1,.561-.7,2.028,2.028,0,0,1,.693-.4,2.65,2.65,0,0,1,.853-.132h.027c1.224,0,1.938.633,2.547,2.259h3.644c.207,0,.418,0,.621.006h.017c.22,0,.447.006.671.006.206,0,.39,0,.561-.008a.862.862,0,0,0,.542-.189c1.442-1.432,2.9-2.9,4.3-4.319l.015-.015.2-.2.638-.643a.386.386,0,0,0,.049-.068l.038-.059h-5.072a3.37,3.37,0,0,1-.51,2.261,3.139,3.139,0,0,1-1.161,1.055,3.249,3.249,0,0,1-1.518.375,3.3,3.3,0,0,1-.928-.133,3.223,3.223,0,0,1-2.274-3.085,3.047,3.047,0,0,1,.163-.991,3.223,3.223,0,0,1,.462-.881,3.267,3.267,0,0,1,.708-.7,3.132,3.132,0,0,1,.9-.453,3.377,3.377,0,0,1,1.008-.16,2.967,2.967,0,0,1,1.075.2,3.834,3.834,0,0,1,1,.587,1.111,1.111,0,0,0,.64.24c1.354.008,2.715.013,4.045.013.822,0,1.659,0,2.488-.006.035.738.04,1.487.012,2.228-.08.073-.161.154-.25.247-.885.925-1.816,1.834-2.716,2.715-.442.432-.9.879-1.346,1.323-.183.182-.362.372-.536.556h0c-.274.289-.556.588-.856.859a1.241,1.241,0,0,1-.741.305c-.908.013-1.861.019-2.912.019-.831,0-1.7,0-2.747-.011h-.011a.521.521,0,0,0-.541.335,2.478,2.478,0,0,1-.839.97,2.725,2.725,0,0,1-1.222.418.686.686,0,0,0-.378.182c-.683.667-1.487,1.459-2.271,2.272a.858.858,0,0,0-.218.525c-.025.78-.016,1.564-.005,2.238a1.056,1.056,0,0,1-.337.83c-.462.451-.925.916-1.373,1.365h0c-.531.531-1.079,1.082-1.628,1.613a1.017,1.017,0,0,1-.643.249c-.662.011-1.364.016-2.147.016-.6,0-1.226,0-2.047-.009h-.013a.912.912,0,0,0-.735.3c-.562.6-1.174,1.208-1.87,1.871a.482.482,0,0,0-.14.65,2.373,2.373,0,0,1,0,1.875,2.56,2.56,0,0,1-.585.852,2.718,2.718,0,0,1-.921.584,2.319,2.319,0,0,1-.84.158Zm-.008-3.986a1.489,1.489,0,0,0-1.443,1.422v.036a1.464,1.464,0,0,0,1.434,1.42h0a1.418,1.418,0,0,0,1.423-1.411,1.453,1.453,0,0,0-.422-1.047,1.377,1.377,0,0,0-.986-.419Zm2.529-8.229a.927.927,0,0,0-.909.871c0,.017,0,.033,0,.05a.9.9,0,0,0,.857.9l.063,0a.9.9,0,0,0,.9-.848.907.907,0,0,0-.231-.669.912.912,0,0,0-.643-.306h-.031Zm13.441-7.3a1.432,1.432,0,0,0-1.444,1.379v.027a1.451,1.451,0,0,0,.431,1.029,1.451,1.451,0,0,0,1.033.417h.01a1.469,1.469,0,0,0,1.409-1.393,1.4,1.4,0,0,0-.4-1.015,1.436,1.436,0,0,0-1.027-.444Zm5.612-5.409a1.548,1.548,0,0,0-1.547,1.532v.011a1.543,1.543,0,0,0,.439,1.111,1.543,1.543,0,0,0,1.1.463h0a1.566,1.566,0,0,0,1.55-1.551,1.536,1.536,0,0,0-.449-1.1,1.531,1.531,0,0,0-1.086-.468Zm-29.794,17.012a1.474,1.474,0,0,1-.866-.285,1.48,1.48,0,0,1-.547-.8,1.419,1.419,0,0,1,.052-.95,1.53,1.53,0,0,1,.538-.651,1.378,1.378,0,0,1,.78-.251,1.228,1.228,0,0,1,.3.038.913.913,0,0,0,.221.032.644.644,0,0,0,.474-.242c1.35-1.372,2.545-2.563,3.655-3.643a1.155,1.155,0,0,1,.669-.274c.214-.018.441-.026.695-.026.276,0,.544.01.77.02h.072a.967.967,0,0,0,.783-.353,5.6,5.6,0,0,1,.586-.553l0,0c.088-.074.178-.152.265-.23l-.022-.032-.049-.073-.1-.01a1.7,1.7,0,0,0-.205-.017h-3.415c-2.443,0-4.969,0-7.454,0h0a.461.461,0,0,0-.529.34,1.38,1.38,0,0,1-1.327.887,1.677,1.677,0,0,1-.292-.026,1.41,1.41,0,0,1-.808-.467,1.444,1.444,0,0,1-.359-.869,1.454,1.454,0,0,1,1.048-1.514,1.394,1.394,0,0,1,.42-.065,1.375,1.375,0,0,1,1.236.758.685.685,0,0,0,.739.416h.011c1.688-.005,3.53-.009,5.629-.009,1.814,0,3.641,0,5.359,0h.129c.662,0,1.347,0,2.017.049h.059a.808.808,0,0,0,.635-.38,2.441,2.441,0,0,1,.269-.276c-.13-.01-.248-.022-.352-.033h0c-.212-.021-.394-.039-.578-.039h-.014c-1.945.011-3.658.029-5.239.053h-.024a.845.845,0,0,1-.689-.3c-.31-.346-.638-.679-.954-1l-.015-.015c-.121-.124-.245-.25-.365-.375a2.718,2.718,0,0,1-1.073.277,1.294,1.294,0,0,1-1.057-.548,1.41,1.41,0,0,1-.306-.917,1.475,1.475,0,0,1,.346-.919,1.5,1.5,0,0,1,.511-.394,1.414,1.414,0,0,1,.6-.134,1.51,1.51,0,0,1,.762.212,1.418,1.418,0,0,1,.612,1.728.364.364,0,0,0,.118.479c.178.17.354.349.525.522h0c.213.215.432.438.658.648a.684.684,0,0,0,.428.163c.7.006,1.45.008,2.44.008h2.157c.159,0,.321,0,.464,0h0c.151,0,.308,0,.462,0,.237,0,.433,0,.615.013.032,0,.062,0,.091,0a1.045,1.045,0,0,0,.808-.328c.867-.872,1.756-1.745,2.616-2.589l.048-.047c.3-.291.6-.592.9-.889l-.064-.1-.113-.006h-.011c-.08,0-.171-.01-.258-.01H-224.5c-.64,0-1.484,0-2.339-.01h-.012a.5.5,0,0,0-.325.086.619.619,0,0,0-.186.281,2.045,2.045,0,0,1-.777.96,2.152,2.152,0,0,1-1.185.344,2.523,2.523,0,0,1-.457-.043,2.045,2.045,0,0,1-1.175-.717,2.039,2.039,0,0,1-.5-1.282,2.491,2.491,0,0,1,.113-.778,2,2,0,0,1,.339-.638,2.027,2.027,0,0,1,.548-.478,2.566,2.566,0,0,1,.74-.3,1.74,1.74,0,0,1,.411-.047,2.111,2.111,0,0,1,1.117.336,2.053,2.053,0,0,1,.783.9.444.444,0,0,0,.48.307h0c1.4,0,2.819,0,4.194-.007h.1c1.435,0,2.919,0,4.377-.006a.608.608,0,0,0,.392-.141c.8-.784,1.609-1.59,2.39-2.37l.381-.381c.009-.009.011-.024.015-.057s.007-.053.015-.1h-1.276c-.288,0-.525,0-.744,0l-.914,0c-.373,0-.837.006-1.28.006h-.419c-.23,0-.356.042-.447.282a1.387,1.387,0,0,1-.532.671,1.46,1.46,0,0,1-.814.239,1.64,1.64,0,0,1-.342-.036,1.383,1.383,0,0,1-.791-.511,1.521,1.521,0,0,1-.327-.916,1.458,1.458,0,0,1,1.191-1.443,1.385,1.385,0,0,1,.284-.029,1.435,1.435,0,0,1,.795.241,1.416,1.416,0,0,1,.535.658c.081.2.16.3.394.3h0c.3,0,.618,0,.974,0l1.68,0h.2l1.584,0h.734a.508.508,0,0,0,.31-.14c.311-.293.609-.588.955-.929l.03-.03c.117-.115.237-.235.365-.358h-.009c-.119,0-.226,0-.322.008s-.163.006-.238.006a1.4,1.4,0,0,1-.289-.025,1.492,1.492,0,0,1-.716-.294c-.556-.533-1.108-1.082-1.641-1.612l0,0c-.484-.481-.983-.979-1.483-1.46a1.011,1.011,0,0,0-.63-.263c-.6-.013-1.206-.019-1.814-.019s-1.207.006-1.809.019a1.01,1.01,0,0,0-.632.254c-.489.473-.979.962-1.452,1.434l0,0c-.5.5-1.009,1.008-1.523,1.5a1.094,1.094,0,0,1-.673.275c-.848.013-1.711.013-2.546.014h-.007c-.736,0-1.5,0-2.251.01a.888.888,0,0,0-.555.236c-.8.788-1.607,1.593-2.389,2.372l-.011.01-.005.006c-.893.891-1.817,1.81-2.731,2.708a1.01,1.01,0,0,1-.635.253c-.758.01-1.559.015-2.453.015-.655,0-1.377,0-2.27-.008h-.016a.51.51,0,0,0-.564.344,1.781,1.781,0,0,1-.679.772,1.823,1.823,0,0,1-.963.275,1.817,1.817,0,0,1-.5-.07,1.859,1.859,0,0,1-1.375-1.922,1.9,1.9,0,0,1,.5-1.152,1.885,1.885,0,0,1,1.114-.577,1.8,1.8,0,0,1,.245-.017,1.887,1.887,0,0,1,1.757,1.273c.018.051.037.1.06.156.012.029.024.059.037.093h1.751c1.023,0,2.125,0,3.25-.005a.449.449,0,0,0,.283-.124c1.464-1.459,2.935-2.937,4.358-4.366l.121-.121a.387.387,0,0,0,.05-.071c.011-.018.024-.039.041-.064l-.116-.011h0c-.067-.008-.134-.013-.2-.014H-235.1c-.714,0-1.56,0-2.425-.012h-.018a.462.462,0,0,0-.527.382,2.456,2.456,0,0,1-2.37,1.721,2.66,2.66,0,0,1-.474-.042,2.5,2.5,0,0,1-1.5-.888,2.552,2.552,0,0,1-.575-1.658,2.526,2.526,0,0,1,.591-1.566,2.53,2.53,0,0,1,1.44-.856,2.606,2.606,0,0,1,.511-.051,2.477,2.477,0,0,1,2.311,1.529.476.476,0,0,0,.538.344h0c1.8,0,3.409,0,4.93,0,2.136,0,4.092,0,5.981.008h0a1.079,1.079,0,0,0,.846-.362c.167-.173.339-.348.505-.517l.007-.006c.47-.477.957-.97,1.414-1.517h-3.964c-1.351,0-2.392,0-3.376.005h-.007a1.225,1.225,0,0,1-.935-.385c-.692-.7-1.4-1.4-2.077-2.079l-.012-.013c-.636-.634-1.293-1.288-1.937-1.937a.889.889,0,0,0-.683-.306h-.022c-.508.009-1.037.014-1.617.014-.516,0-1.063,0-1.721-.011h-.021a.4.4,0,0,0-.463.336,3.077,3.077,0,0,1-.451.9,3.264,3.264,0,0,1-.7.7,3.067,3.067,0,0,1-1.813.623c-.079,0-.158,0-.236-.01a3.417,3.417,0,0,1-2.043-.872,3.157,3.157,0,0,1-.987-1.922,3.139,3.139,0,0,1,.434-2.038,3.239,3.239,0,0,1,1.614-1.354,3.281,3.281,0,0,1,1.175-.221,3.054,3.054,0,0,1,1.667.491,3.424,3.424,0,0,1,1.208,1.4.505.505,0,0,0,.53.346h.014c.448,0,.882-.006,1.249-.006h.9c.49,0,1.068,0,1.634-.011h.044a1.68,1.68,0,0,1,.639.114,1.583,1.583,0,0,1,.543.379c.785.809,1.593,1.616,2.375,2.4l0,0c.5.5,1.016,1.015,1.521,1.525a.9.9,0,0,0,.7.3h0c2.516-.007,5.075-.007,7.55-.007h.027c1.685,0,3.6,0,5.449,0h0a1.123,1.123,0,0,1,.866.353c1.211,1.227,2.151,2.167,3.05,3.045a.89.89,0,0,0,.547.266c2.434.01,4.891.011,6.761.011h4.312c.047,0,.093,0,.164-.009h0l.159-.011c-.12-.119-.239-.238-.355-.353l-.085-.086v0c-.471-.47-.915-.914-1.368-1.347a.541.541,0,0,0-.339-.071h-.005l-.468,0h-.752c-.236,0-.547,0-.855-.007h-.022a.4.4,0,0,0-.426.292,1.469,1.469,0,0,1-.545.665,1.427,1.427,0,0,1-.793.238,1.466,1.466,0,0,1-.514-.093,1.427,1.427,0,0,1-.787-.711,1.526,1.526,0,0,1-.1-1.079,1.387,1.387,0,0,1,.518-.761,1.463,1.463,0,0,1,.88-.288,1.614,1.614,0,0,1,.314.033,1.294,1.294,0,0,1,1,.806.474.474,0,0,0,.517.353h.056c.153-.006.316-.008.514-.008l.425,0h.015c.123,0,.277,0,.422,0,.24,0,.436,0,.617-.012h.065a1.046,1.046,0,0,1,.818.381c.2.208.406.412.607.607a12.717,12.717,0,0,1,.923.964,1.331,1.331,0,0,0,1.114.5,4.009,4.009,0,0,0,.6-.056l-.5-.474-.009-.009c-.348-.332-.677-.645-1-.964-.284-.279-.567-.564-.841-.838l0,0c-.468-.468-.951-.953-1.437-1.418a.9.9,0,0,0-.556-.232c-.729-.009-1.463-.009-2.152-.009h-.381c-.562,0-1.2,0-1.822,0h-.013a.462.462,0,0,0-.5.316,1.471,1.471,0,0,1-1.328.862,1.4,1.4,0,0,1-.319-.037,1.46,1.46,0,0,1-.794-.5,1.476,1.476,0,0,1-.335-.878,1.5,1.5,0,0,1,.261-.914,1.387,1.387,0,0,1,.746-.544,1.731,1.731,0,0,1,.466-.068,1.413,1.413,0,0,1,1.246.734,2.958,2.958,0,0,1,.145.3c.023.055.047.109.075.168.355,0,.716.007,1.064.013s.718.014,1.08.014c.53,0,.966-.016,1.372-.048.145-.012.285-.018.417-.018a3.075,3.075,0,0,1,2.546,1.209,28.233,28.233,0,0,0,2.273,2.331h0c.255.242.543.516.815.781a1.055,1.055,0,0,0,.319.212c.118.562.219,1.133.3,1.7h-2.5c-2.855,0-6.235,0-9.649-.012h-.005a1.179,1.179,0,0,0-.911.39c-.709.709-1.431,1.428-2.13,2.124l-.013.014c-1.078,1.073-2.193,2.184-3.3,3.292a.989.989,0,0,1-.764.311H-218c-.412-.008-.792-.012-1.159-.012-.452,0-.871.006-1.282.018a.843.843,0,0,0-.528.214c-.992.977-1.985,1.973-2.944,2.936l-.91.913c-.1.1-.215.206-.322.306a5.281,5.281,0,0,0-.647.674,1.711,1.711,0,0,1-1.506.66c-.161,0-.326-.01-.465-.019-.077,0-.141-.008-.2-.008a.7.7,0,0,0-.658.361,6.026,6.026,0,0,1-1,1.055c-.1.091-.205.186-.306.279a.678.678,0,0,1-.409.12c-.186,0-.37,0-.509,0h-.506c-.231,0-.5,0-.777.014a.809.809,0,0,0-.492.2c-.753.74-1.509,1.5-2.24,2.226-.436.435-.886.885-1.336,1.331-.178.177-.235.3-.077.544a1.4,1.4,0,0,1-.292,1.806,1.456,1.456,0,0,1-.969.375Zm0-2.37a.883.883,0,0,0-.642.253.884.884,0,0,0-.264.639h0a.9.9,0,0,0,.261.65.9.9,0,0,0,.647.268h.015a.9.9,0,0,0,.634-.273.9.9,0,0,0,.253-.644.888.888,0,0,0-.262-.636.887.887,0,0,0-.637-.258Zm-4.647-7.083a.9.9,0,0,0-.65.269.908.908,0,0,0-.263.652v.012a.882.882,0,0,0,.27.633.881.881,0,0,0,.642.248h.006a.888.888,0,0,0,.639-.263.893.893,0,0,0,.259-.641.922.922,0,0,0-.9-.91Zm6.886-3.784a.908.908,0,0,0-.915.9v.018a.9.9,0,0,0,.261.643.9.9,0,0,0,.642.264h.023a.917.917,0,0,0,.9-.917.913.913,0,0,0-.907-.9Zm5.962-2.266a1.038,1.038,0,0,0-1.026,1.033v.009a1.026,1.026,0,0,0,.306.724,1.026,1.026,0,0,0,.729.294h.012a1.015,1.015,0,0,0,1.018-.99,1.059,1.059,0,0,0-.3-.764,1.026,1.026,0,0,0-.736-.306h0Zm-14.9-.957a1.326,1.326,0,0,0-1.33,1.3v.009a1.33,1.33,0,0,0,1.324,1.3h0a1.3,1.3,0,0,0,.917-.38,1.258,1.258,0,0,0,.383-.9,1.287,1.287,0,0,0-.363-.939,1.287,1.287,0,0,0-.928-.39Zm22.755-2.845h-.013a.913.913,0,0,0-.9.9v0a.9.9,0,0,0,.263.64.9.9,0,0,0,.639.263h0a.933.933,0,0,0,.668-.272.857.857,0,0,0,.254-.61.914.914,0,0,0-.261-.656.914.914,0,0,0-.651-.273Zm-18.983-2.848h-.01a1.443,1.443,0,0,0-1.422,1.41v.016a1.433,1.433,0,0,0,.422,1.015,1.433,1.433,0,0,0,1.017.417h.011a1.425,1.425,0,0,0,1.012-.426,1.441,1.441,0,0,0,.412-1.034,1.45,1.45,0,0,0-1.442-1.4Zm32.62-2.676a.9.9,0,0,0-.641.268.893.893,0,0,0-.255.646v.013a.886.886,0,0,0,.256.637.888.888,0,0,0,.634.262h.013a.938.938,0,0,0,.91-.893.931.931,0,0,0-.885-.932h-.032Zm-2.525-2.126h-.006a.909.909,0,0,0-.915.892.93.93,0,0,0,.892.922h.013a.93.93,0,0,0,.659-.278.892.892,0,0,0,.263-.642.911.911,0,0,0-.908-.9Zm-33.421-3.736a1.559,1.559,0,0,0-1.557,1.5c0,.014,0,.029,0,.047a1.525,1.525,0,0,0,.438,1.1,1.524,1.524,0,0,0,1.091.455h.03a1.529,1.529,0,0,0,1.551-1.5,1.572,1.572,0,0,0-.443-1.134,1.534,1.534,0,0,0-1.1-.459Zm17.09,2.917a1.205,1.205,0,0,1-.292-.036,1.481,1.481,0,0,1-1.2-1.48,1.463,1.463,0,0,1,1.2-1.4,1.832,1.832,0,0,1,.306-.027,1.257,1.257,0,0,1,.844.3,2.26,2.26,0,0,1,.606.921h.649c.3,0,.564,0,.8,0,.051,0,.1,0,.154-.008h.011l.063,0,.038-.049.021-.027.036-.047c-.061-.049-.125-.1-.186-.146h0a4.278,4.278,0,0,1-.392-.331c-.44-.437-.885-.882-1.316-1.312-.756-.758-1.539-1.54-2.318-2.3a.969.969,0,0,0-.6-.246c-.4-.014-.806-.021-1.214-.021-.39,0-.789.006-1.187.019a.975.975,0,0,0-.559.24c-.171.147-.331.314-.486.475h0c-.141.146-.287.3-.44.434a.485.485,0,0,0-.184.282.554.554,0,0,0,.084.334,1.416,1.416,0,0,1,.089,1.077,1.435,1.435,0,0,1-.252.474,1.35,1.35,0,0,1-.416.346,1.6,1.6,0,0,1-.748.191,1.421,1.421,0,0,1-.7-.183,1.478,1.478,0,0,1-.538-.527,1.5,1.5,0,0,1,.071-1.611,1.383,1.383,0,0,1,1.124-.6,1.358,1.358,0,0,1,.373.053.876.876,0,0,0,.246.04.542.542,0,0,0,.447-.251,2.182,2.182,0,0,1,.279-.283,2.132,2.132,0,0,0,.29-.3,1.961,1.961,0,0,1,.694-.6,1.888,1.888,0,0,1,.868-.19,2.719,2.719,0,0,1,.3.017,7.167,7.167,0,0,0,.752.034c.206,0,.413-.006.613-.01h0c.187,0,.4-.011.61-.011h.011a1.011,1.011,0,0,1,.806.373c.407.444.846.872,1.272,1.285l0,0,0,0c.212.205.43.417.642.629l.116.117c.77.769,1.566,1.566,2.337,2.36a.8.8,0,0,0,.68.285,4.5,4.5,0,0,0,.6-.052c-.187-.181-.372-.359-.55-.529h0c-.384-.368-.746-.715-1.107-1.078-.573-.575-1.153-1.162-1.714-1.729h0l-.008-.008c-.687-.694-1.4-1.412-2.1-2.114a.554.554,0,0,0-.36-.13c-.9,0-1.813,0-2.7,0h-.015c-1.2,0-2.444,0-3.671-.01h0c-.26,0-.326.148-.4.319l-.013.028a1.405,1.405,0,0,1-1.3.841,1.553,1.553,0,0,1-.5-.085,1.449,1.449,0,0,1-.93-1.726,1.506,1.506,0,0,1,.512-.808,1.391,1.391,0,0,1,.873-.318,1.251,1.251,0,0,1,.2.015,1.636,1.636,0,0,1,.714.273,1.3,1.3,0,0,1,.46.612.423.423,0,0,0,.478.308h0l2.031,0c1.577,0,3.015.006,4.4.018a.828.828,0,0,1,.524.22c1.862,1.849,3.747,3.738,5.6,5.613a1.277,1.277,0,0,0,.848.355,2.3,2.3,0,0,0,.312.021,2.159,2.159,0,0,0,1.656-.841c.635-.7,1.326-1.363,1.993-2.009h0c.267-.258.569-.55.856-.833l-.029-.11h0c-.115,0-.232,0-.345.007h0c-.109,0-.232.007-.351.007a3.25,3.25,0,0,1-.436-.023.927.927,0,0,0-.122-.008,1.145,1.145,0,0,0-.826.471l-.017.017-.089.092-.04.041c-.377.387-.767.787-1.168,1.159a.912.912,0,0,1-.493.208,1.5,1.5,0,0,1-.2.01c-.068,0-.136,0-.2-.005h0c-.066,0-.134,0-.2,0a1.465,1.465,0,0,0-.245.018,2.34,2.34,0,0,1-.374.031,1.877,1.877,0,0,1-.92-.237,3.19,3.19,0,0,1-.785-.64c-1.079-1.155-2.226-2.282-3.336-3.371l0,0-.527-.518a.894.894,0,0,0-.574-.215c-.658-.007-1.337-.011-2.076-.011-.645,0-1.336,0-2.11.009a4.662,4.662,0,0,0-.909.1,1.452,1.452,0,0,1-.308.032,1.5,1.5,0,0,1-1.4-.953,1.433,1.433,0,0,1,.008-1.04,1.559,1.559,0,0,1,.722-.789,1.364,1.364,0,0,1,.634-.153,1.48,1.48,0,0,1,1.209.618,1.431,1.431,0,0,1,.216.71,2.678,2.678,0,0,1-.109.919c.32,0,.644.006.958.012h0c.312.005.634.011.95.011.466,0,.851-.013,1.208-.04.128-.009.253-.015.369-.015a2.832,2.832,0,0,1,2.3,1.049c.758.864,1.6,1.681,2.407,2.47.393.382.8.777,1.192,1.174a1.037,1.037,0,0,0,.671.293,3.7,3.7,0,0,0,.5.036,2.318,2.318,0,0,0,2.046-1.1,1.389,1.389,0,0,1,.186-.206c.041-.04.091-.09.148-.15h0c-.121,0-.236,0-.328,0l-.263,0c-.127,0-.23,0-.324.012-.035,0-.071,0-.1,0a1.064,1.064,0,0,1-.8-.364c-.905-.913-1.817-1.825-2.7-2.707l-.006-.006c-.959-.959-1.951-1.952-2.922-2.933a.933.933,0,0,0-.731-.3h-.017c-.593.006-1.191.007-1.646.007h-1.159c-.385,0-.841,0-1.306,0h-.01a1,1,0,0,1-.783-.327c-.292-.307-.6-.607-.888-.9-.264-.263-.537-.534-.8-.807a.708.708,0,0,0-.554-.252,1.026,1.026,0,0,0-.116.006c-.1.009-.192.015-.288.015a2.565,2.565,0,0,1-1.528-.493,2.465,2.465,0,0,1-.908-1.3,2.546,2.546,0,0,1-.1-.892,2.454,2.454,0,0,1,.208-.84,2.512,2.512,0,0,1,.489-.724,2.717,2.717,0,0,1,.741-.544,2.4,2.4,0,0,1,1.094-.26,2.534,2.534,0,0,1,1.081.245,2.612,2.612,0,0,1,.907.709,2.475,2.475,0,0,1,.542,1.579,2.52,2.52,0,0,1-.551,1.587c-.057.07-.118.142-.188.224l0,0-.124.146c.138.132.274.266.413.4l0,0c.418.406.851.825,1.284,1.225a.615.615,0,0,0,.38.076h0l.429,0h.019c.669,0,1.361.006,2.041.006.647,0,1.217,0,1.745-.008h.016a1.05,1.05,0,0,1,.806.35c2.213,2.225,4.024,4.033,5.7,5.689a.929.929,0,0,0,.594.245h0c1.478,0,2.981-.014,4.434-.025h0c.942-.007,2.01-.016,3.05-.021a.529.529,0,0,0,.608-.422,2.112,2.112,0,0,1,.349-.641,2.381,2.381,0,0,1,.539-.5,2.544,2.544,0,0,1,1.409-.439h0a2.628,2.628,0,0,1,1.462.434,2.264,2.264,0,0,1,.907,1.159c.11.323.248.444.51.444a1.06,1.06,0,0,0,.118-.007.781.781,0,0,1,.089-.006.955.955,0,0,1,.72.461h0c.061.073.124.148.19.213.423.415.883.87,1.408,1.393.4.94.809,1.872,1.205,2.771-.766-.764-1.548-1.547-2.238-2.237l-.008-.008-1.23-1.23c-.209-.208-.336-.294-.439-.294-.123,0-.218.121-.351.444a2.482,2.482,0,0,1-2.323,1.519h-.061a2.531,2.531,0,0,1-1.416-.465,2.35,2.35,0,0,1-.874-1.181.385.385,0,0,0-.437-.319h-.024c-.689.011-1.441.017-2.367.017h-.77a1.006,1.006,0,0,0-.779.337c-1.269,1.3-2.526,2.553-3.738,3.735a1.075,1.075,0,0,1-.671.274c-1.091.015-2.16.017-3.153.017h-2.635A1.7,1.7,0,0,1-226.689-4532.816Zm-.025-2.406a.974.974,0,0,0-.924.927v.006a.953.953,0,0,0,.907.908h.005a.937.937,0,0,0,.653-.279.92.92,0,0,0,.275-.643.985.985,0,0,0-.906-.918h-.01Zm-6.865-2.32h-.027a.94.94,0,0,0-.881.907v.032a.914.914,0,0,0,.907.888h.015a.932.932,0,0,0,.907-.912.957.957,0,0,0-.922-.916Zm25.239-2.792a1.417,1.417,0,0,0-1.412,1.417v0a1.478,1.478,0,0,0,1.431,1.444h.022a1.447,1.447,0,0,0,1.405-1.445,1.4,1.4,0,0,0-.4-1.006,1.462,1.462,0,0,0-1.047-.413Zm-27.309-1.046h-.012a.993.993,0,0,0-.914.914c0,.006,0,.011,0,.017a1,1,0,0,0,.926.916h.013a.95.95,0,0,0,.9-.916.932.932,0,0,0-.28-.652.911.911,0,0,0-.637-.279Zm3.327-2.118a.875.875,0,0,0-.632.232.876.876,0,0,0-.28.613c0,.021,0,.039,0,.059a.888.888,0,0,0,.25.636.888.888,0,0,0,.628.271h.027a.891.891,0,0,0,.91-.869.891.891,0,0,0-.231-.651.892.892,0,0,0-.627-.289.339.339,0,0,0-.044,0Zm-1.515-7.273a1.405,1.405,0,0,0-1,.408,1.405,1.405,0,0,0-.415,1v.011a1.449,1.449,0,0,0,1.427,1.449h.01a1.468,1.468,0,0,0,1.419-1.425,1.427,1.427,0,0,0-.412-1.022,1.436,1.436,0,0,0-1.023-.422Zm18.465,8.516c-.042,0-.087,0-.133,0a2.455,2.455,0,0,1-.846-.181,2.126,2.126,0,0,1-.687-.464,2.865,2.865,0,0,1-.528-.753,5,5,0,0,1-.369-1.047H-220.1c-.188,0-.379,0-.563,0h-.017c-.207,0-.421,0-.633,0-.268,0-.49,0-.7-.013a.925.925,0,0,1-.562-.23c-1.439-1.413-2.861-2.84-4.062-4.049a.815.815,0,0,0-.623-.287l-.08,0c-.036,0-.073,0-.109,0a1.377,1.377,0,0,1-.915-.337,1.5,1.5,0,0,1-.479-.864,1.467,1.467,0,0,1,.188-1,1.417,1.417,0,0,1,.78-.639,1.579,1.579,0,0,1,.481-.078,1.45,1.45,0,0,1,.765.216,1.421,1.421,0,0,1,.54.611,1.482,1.482,0,0,1-.4,1.81l.593.57.015.014c.446.429.908.872,1.355,1.312.31.3.619.611.917.909.425.424.865.863,1.308,1.292a.722.722,0,0,0,.451.194c.688.01,1.387.01,2.064.011h.005c.494,0,1.054,0,1.593,0h.009c.232,0,.332-.076.414-.311a2.671,2.671,0,0,1,.8-1.209,2.437,2.437,0,0,1,1.34-.532c.1-.01.209-.015.311-.015a2.432,2.432,0,0,1,2.177,1.292.52.52,0,0,0,.355.245c1.6.01,3.217.011,4.723.011h2.1c.069.366.152.741.244,1.113h-6.738c-.07,0-.14,0-.22.008h0l-.134.007a3.073,3.073,0,0,1-.329,1.077,2.449,2.449,0,0,1-.747.837,2.533,2.533,0,0,1-.7.35A2.584,2.584,0,0,1-215.371-4542.256Zm0-3.977a1.473,1.473,0,0,0-1.424,1.385c0,.021,0,.042,0,.066a1.425,1.425,0,0,0,1.393,1.425h.044a1.46,1.46,0,0,0,1.438-1.373,1.422,1.422,0,0,0-.385-1.019,1.466,1.466,0,0,0-1.016-.484h-.047Zm-12.042-5.392a.918.918,0,0,0-.9.9v.006a.881.881,0,0,0,.263.651.881.881,0,0,0,.655.252h.012a.868.868,0,0,0,.639-.264.868.868,0,0,0,.243-.647.893.893,0,0,0-.263-.641.89.89,0,0,0-.642-.257Zm7.876,5.714a1.19,1.19,0,0,1-.794-.237l-.089-.083a1.56,1.56,0,0,1-.226-.234.649.649,0,0,0-.545-.324,1.045,1.045,0,0,0-.343.066,1.1,1.1,0,0,1-.368.061,1.29,1.29,0,0,1-.709-.22,1.536,1.536,0,0,1-.52-.578,1.483,1.483,0,0,1-.154-.931,1.427,1.427,0,0,1,.445-.817,1.5,1.5,0,0,1,1.016-.4,1.363,1.363,0,0,1,.752.217,1.51,1.51,0,0,1,.61.766,1.473,1.473,0,0,1,0,.974,1.705,1.705,0,0,1-.259.452c.063.05.128.1.191.146h0a4.881,4.881,0,0,1,.411.335.856.856,0,0,0,.585.257.833.833,0,0,0,.585-.266c.154-.153.308-.309.458-.46l0,0c.309-.313.629-.637.957-.94a.871.871,0,0,1,.521-.232c.536-.009,1.1-.014,1.681-.014.551,0,1.119,0,1.739.013a.759.759,0,0,1,.456.19,5.7,5.7,0,0,1,.431.444,2.683,2.683,0,0,0,.881.738,1.849,1.849,0,0,0,.7.111c.173,0,.354-.012.53-.024h0c.175-.012.356-.024.53-.024h.816c.622,0,1.254,0,1.865,0h.259a.418.418,0,0,0,.287-.119c-.166-.161-.339-.321-.506-.476l0,0a13.3,13.3,0,0,1-1.126-1.128,1.985,1.985,0,0,0-1.693-.708h-.078c-1.18.019-2.332.021-3.3.021h-2.5c-.755,0-1.369,0-1.933.006h-.013a1.32,1.32,0,0,1-.538-.1,1.406,1.406,0,0,1-.441-.322c-.547-.563-1.11-1.124-1.654-1.667-.426-.425-.867-.864-1.3-1.307a.467.467,0,0,0-.346-.171.737.737,0,0,0-.218.039,2.754,2.754,0,0,1-.794.125,2.221,2.221,0,0,1-1.714-.819,2.409,2.409,0,0,1-.6-1.2,2.34,2.34,0,0,1,.2-1.336,2.276,2.276,0,0,1,2.137-1.437h.083a2.339,2.339,0,0,1,1.2.31,2.3,2.3,0,0,1,.86.917,2.432,2.432,0,0,1,.315,1.3,2.465,2.465,0,0,1-.466,1.268l-.13.188-.027.038-.066.1c.251.246.508.491.758.727.581.554,1.183,1.125,1.722,1.734a2.278,2.278,0,0,0,1.872.807c.035,0,.07,0,.1,0,.906-.021,1.891-.03,3.1-.03.674,0,1.361,0,2.024.005h.049c.653,0,1.327.006,1.991.006h.417c0-.139,0-.276,0-.408,0-.385,0-.749-.008-1.116a.451.451,0,0,0-.16-.266c-.631-.641-1.416-1.436-2.187-2.187a.448.448,0,0,0-.289-.1.327.327,0,0,0-.084.009,2.5,2.5,0,0,1-.592.075,2.127,2.127,0,0,1-1.225-.374,1.823,1.823,0,0,1-.718-1.012,2.236,2.236,0,0,1-.076-.833,1.912,1.912,0,0,1,.231-.737,1.941,1.941,0,0,1,.509-.585,2.322,2.322,0,0,1,.756-.383,1.665,1.665,0,0,1,.475-.067,2.041,2.041,0,0,1,.876.206,2.026,2.026,0,0,1,.718.57,2.074,2.074,0,0,1,.417,1.107,1.7,1.7,0,0,1-.265,1.107c-.222.317-.111.464.1.667.824.8,1.488,1.472,2.091,2.108a1.046,1.046,0,0,1,.249.6,11.174,11.174,0,0,1,.006,1.383.9.9,0,0,0,.295.748l.44.43,0,0c.551.536,1.121,1.093,1.672,1.647.017.192.038.391.063.59.032.26.07.525.113.788a.718.718,0,0,0-.507-.187h-.016c-.712.011-1.436.016-2.215.016-.887,0-1.839-.007-2.912-.021a.93.93,0,0,1-.664-.268,2.682,2.682,0,0,0-2.282-1.2,3.943,3.943,0,0,0-.562.042,4.143,4.143,0,0,1-.617.042c-.279,0-.555-.021-.764-.04-.037,0-.074,0-.108,0a.946.946,0,0,0-.74.356c-.336.362-.694.715-1.04,1.056h0l-.247.245A1.208,1.208,0,0,1-219.533-4545.91Zm-2.322-3.127a.911.911,0,0,0-.9.906h0a.927.927,0,0,0,.911.9h.008a.91.91,0,0,0,.906-.9.9.9,0,0,0-.253-.651.92.92,0,0,0-.662-.266h-.012Zm-1.338-7.679a1.583,1.583,0,0,0-1.581,1.574v0a1.576,1.576,0,0,0,1.58,1.565h0a1.565,1.565,0,0,0,1.554-1.547,1.575,1.575,0,0,0-.461-1.132,1.531,1.531,0,0,0-1.092-.463Zm10.379-.6h-.015a1.225,1.225,0,0,0-1.157,1.176v.005a1.194,1.194,0,0,0,1.18,1.168h.028a1.187,1.187,0,0,0,1.154-1.175,1.211,1.211,0,0,0-1.189-1.173Z" transform="translate(556.221 9745.191)" fill="#c8c8c8" stroke="rgba(0,0,0,0)" stroke-miterlimit="10" stroke-width="1"/>
    <path id="Path_87" data-name="Path 87" d="M250.272-4.291c-.065.095-.945-.849-1.336-1.3a14.058,14.058,0,0,1-3.252-7.371,29.7,29.7,0,0,1-.026-6.963c.3-3.373.63-6.743.866-10.12a27.4,27.4,0,0,0-2.461-13.292q-1.863-4.158-3.61-8.368a21.933,21.933,0,0,1-1.593-5.787c-.385-3.17.017-6.177,2.1-8.736a8.169,8.169,0,0,1,7.307-3.049,12.929,12.929,0,0,1,5.054,1.66q4.009,2.082,8.054,4.093c.857.425,1.776.724,2.677,1.168-.5.053-1,.124-1.506.155-2.305.145-8.8-3.587-10.992-4.175a15.032,15.032,0,0,0-3.818-.609,6.558,6.558,0,0,0-6.244,4.63c-.62,2.7.157,7.264.886,9.957a44.475,44.475,0,0,0,1.543,4.525,90.056,90.056,0,0,1,3.111,9.528,31.439,31.439,0,0,1,.705,9.551c-.39,2.359-.323,4.174-.753,6.527a33.45,33.45,0,0,0-.2,10.606A12.349,12.349,0,0,0,249.2-5.97,14.325,14.325,0,0,1,250.272-4.291Z" transform="translate(111.07 5255.7)"/>
  </g>
</svg>
