<svg xmlns="http://www.w3.org/2000/svg" width="178.89" height="115.675" viewBox="0 0 178.89 115.675">
  <g id="Group_60" data-name="Group 60" transform="translate(-308.725 -5186.989)">
    <g id="Group_55" data-name="Group 55" transform="translate(411.028 5193.517)">
      <g id="Group_47" data-name="Group 47" transform="translate(0 0)">
        <path id="Path_67" data-name="Path 67" d="M508.314,3.319a7.967,7.967,0,0,1-.3-4.768,37.131,37.131,0,0,0,.96-4.949,9.415,9.415,0,0,0-5.379-9.536,11.832,11.832,0,0,0-7.06-.473,71.691,71.691,0,0,0-18.77,6.334,16.076,16.076,0,0,1-8.071,1.84,13.983,13.983,0,0,1-6.965-2.481c1.037-.069,1.878-.131,2.719-.18a31.854,31.854,0,0,0,14.225-4.438c2.434-1.411,4.753-3.021,7.174-4.455a38.18,38.18,0,0,1,13.121-4.9,13.8,13.8,0,0,1,13.671,4.94,7.8,7.8,0,0,1,1.272,8.03c-1.141,3.244-2.538,6.4-3.89,9.567-.709,1.663-1.562,3.266-2.354,4.895C508.581,2.905,508.473,3.058,508.314,3.319Z" transform="translate(-459.379 24.945)"/>
        <path id="Path_68" data-name="Path 68" d="M649.461,227.131a1.609,1.609,0,0,1,.026.191c-.26,2.582-.26,2.582-2.816,2.582-1.03,0-2.059.01-3.089-.006a.545.545,0,0,0-.641.518c-.506,2.366-1.053,4.723-1.565,7.087-.162.749.1,1.131.868,1.359.819.243,1.645.462,2.552.715-.085.439-.165.855-.249,1.29H632.828c-.029-1.178.028-1.258,1.083-1.548.613-.169,1.223-.348,1.839-.5a1.608,1.608,0,0,0,1.256-1.214c.575-2.476,1.1-4.962,1.648-7.445.01-.042-.019-.093-.051-.236H623.27c.358-1.277.327-2.472,1.351-3.459,7.178-6.925,14.294-13.912,21.444-20.867a1.488,1.488,0,0,1,.826-.339,15.053,15.053,0,0,1,1.6-.015l-4.821,21.892Zm-6.683-15.271-.134-.088-15.877,15.372h12.561Z" transform="translate(-596.298 -171.354)"/>
        <path id="Path_69" data-name="Path 69" d="M440.894,362.75a27.765,27.765,0,0,1,.809-4.312,168.336,168.336,0,0,1,5.724-20.542,82.289,82.289,0,0,1,2.927-8.59c1.748-3.847,3.865-7.527,5.864-11.257a4.023,4.023,0,0,1,2.287-2.075,2.326,2.326,0,0,1,2.87.846,6.349,6.349,0,0,1,.973,1.633c1,2.8,1.976,5.622,2.893,8.457.219.678.422,2.012,0,2.3s-1.285-.433-1.687-1.135a8.271,8.271,0,0,1-.606-1.409c-.8-2.307-3.186-2.871-4.652-.923a49.18,49.18,0,0,0-4.635,7.127c-2.052,4.026-3.9,8.168-5.6,12.358a72.961,72.961,0,0,0-2.147,7.388,54.409,54.409,0,0,1-3.521,9.458c-.208.415-.458.809-.7,1.206C441.641,363.382,440.893,363.961,440.894,362.75Z" transform="translate(-440.894 -265.654)"/>
      </g>
      <path id="Subtraction_9" data-name="Subtraction 9" d="M8.61,24.821c-.183,0-.371,0-.558-.01a8.5,8.5,0,0,1-2.774-.553,7.594,7.594,0,0,1-2.294-1.39,8.039,8.039,0,0,1-1.708-2.14,9.817,9.817,0,0,1-1.017-2.8A16.288,16.288,0,0,1,1.312,8.769,16.281,16.281,0,0,1,3.772,4.595a12.475,12.475,0,0,1,3.61-3.058A12.81,12.81,0,0,1,10.176.39,10.937,10.937,0,0,1,13.055,0a11.588,11.588,0,0,1,3.236.476,4.6,4.6,0,0,1,1.9,1.086A4.665,4.665,0,0,1,19.353,3.32a5.273,5.273,0,0,1,.294,2.413,5.853,5.853,0,0,1-.885,2.5,7.864,7.864,0,0,1-2.868,2.7,13.773,13.773,0,0,1-3.69,1.351,14.556,14.556,0,0,1-3.181.473,5.728,5.728,0,0,1-.7-.039c-.229,0-.435.006-.63.006a12.578,12.578,0,0,1-2.442-.2,1.75,1.75,0,0,0-.331-.038c-.344,0-.52.174-.558.549-.222,2.244-.227,4.835,1.417,7.035a5.687,5.687,0,0,0,4.664,2.1,7.824,7.824,0,0,0,3.864-1.035c.738-.42,1.451-.915,2.14-1.392l0,0,.006,0c.376-.26.765-.53,1.154-.785.038-.025.076-.052.116-.081a.9.9,0,0,1,.483-.222.407.407,0,0,1,.227.071c.236.153.174.365.114.571a1.152,1.152,0,0,0-.055.265,2.3,2.3,0,0,1-.563,1.446,6.132,6.132,0,0,1-1.154.968c-.148.1-.3.213-.449.325a12.243,12.243,0,0,1-3.664,1.912,13.315,13.315,0,0,1-4.052.6ZM11.786,1.9a4.011,4.011,0,0,0-2.525.928A13.454,13.454,0,0,0,5.382,8.46c-.469,1.138-.7,1.746-.5,2.05s.858.319,2,.319h.3l0,.042c.29-.021.585-.038.87-.055h.03c.634-.037,1.289-.076,1.929-.148a5.641,5.641,0,0,0,5.395-5.883,2.453,2.453,0,0,0-1.4-2.312A5.107,5.107,0,0,0,11.786,1.9Z" transform="translate(56.406 33.845)" fill="#ed2323" stroke="rgba(0,0,0,0)" stroke-miterlimit="10" stroke-width="1"/>
    </g>
    <path id="Subtraction_13" data-name="Subtraction 13" d="M-195.568-4444.659a4.427,4.427,0,0,1-.972-.107,4.264,4.264,0,0,1-2.673-1.852,4.2,4.2,0,0,1-.577-3.183,4.345,4.345,0,0,1,.549-1.368,4.272,4.272,0,0,1,.936-1.072,4.156,4.156,0,0,1,2.631-.945,4.128,4.128,0,0,1,.89.1,4.4,4.4,0,0,1,2.046,1,4.142,4.142,0,0,1,1.2,1.968c.136.466.39.723.715.723a1.113,1.113,0,0,0,.741-.385c.928-.916,1.89-1.884,2.739-2.738l.021-.02.969-.974c.209-.209.423-.421.629-.627l.047-.048c.669-.666,1.359-1.352,2.014-2.049a1.431,1.431,0,0,0,.369-.86c.016-.664.014-1.337.011-1.991,0-.772-.006-1.568.024-2.353a1.852,1.852,0,0,1,.463-1.131c1.216-1.255,2.471-2.514,3.685-3.731h0c.727-.73,1.478-1.482,2.221-2.236a1.6,1.6,0,0,1,1.227-.527h.038c.886.014,1.768.017,2.589.017h1.527c.707,0,1.546,0,2.4.013h.051a1.3,1.3,0,0,0,1.343-.758c-.047-.01-.093-.021-.134-.032a1.106,1.106,0,0,0-.255-.045l-1.1,0h-.128c-1.15,0-2.34-.006-3.509-.006-1.371,0-2.57,0-3.668.014a1.281,1.281,0,0,0-.8.369c-1.946,1.93-4.505,4.476-7.043,7.077a1.858,1.858,0,0,0-.456,1.121c-.031.6-.028,1.208-.024,1.795v.018c0,.522.006,1.061-.015,1.591a1.567,1.567,0,0,1-.389.937c-.444.467-.92.918-1.381,1.354l0,0c-.294.278-.6.566-.891.856a1.628,1.628,0,0,0-.3.5l-.017.039a2.726,2.726,0,0,1-.963,1.18,2.477,2.477,0,0,1-1.407.414h0a3.215,3.215,0,0,1-.572-.054,2.5,2.5,0,0,1-2.028-2.4,2.725,2.725,0,0,1,.484-1.7,2.494,2.494,0,0,1,1.4-.977,2.547,2.547,0,0,1,.662-.087,2.554,2.554,0,0,1,1.335.378,2.788,2.788,0,0,1,.993,1.058c.043.081.083.161.138.273l0,.006c.03.062.064.131.105.214.162-.163.325-.323.481-.477l.006-.007c.438-.433.851-.839,1.246-1.275a.949.949,0,0,0,.118-.581v-.036q0-.247,0-.5c.009-.951.019-1.939-.014-2.906a1.488,1.488,0,0,1,.5-1.2c.93-.925,1.872-1.867,2.783-2.779l.043-.042,0,0c1.587-1.588,3.228-3.231,4.86-4.83a1.855,1.855,0,0,1,1.119-.327c1.667-.011,3.169-.016,4.589-.016,1.671,0,3.2.007,4.678.025h.031a1.469,1.469,0,0,0,1.369-.785c-.089,0-.168-.008-.249-.015-.153-.008-.286-.018-.421-.018l-2.114,0c-1.01,0-2.267,0-3.458,0-2.458,0-4.358.007-6.161.019a1.578,1.578,0,0,0-1,.4c-1.706,1.684-3.419,3.4-5.075,5.055-1,1-2.04,2.041-3.078,3.072a.909.909,0,0,0-.31,1.119,2.23,2.23,0,0,1-.1,1.665,2.707,2.707,0,0,1-1.172,1.275,2.554,2.554,0,0,1-1.2.294,2.709,2.709,0,0,1-1.1-.238,2.616,2.616,0,0,1-.918-.694,2.617,2.617,0,0,1-.6-1.632,2.563,2.563,0,0,1,.535-1.643,2.6,2.6,0,0,1,2.039-1.016,2.437,2.437,0,0,1,1.074.247c.127.062.254.131.4.21h0c.074.041.161.087.258.138.738-.74,1.488-1.488,2.213-2.212l.055-.054c1.95-1.947,3.966-3.96,5.915-5.975a3.089,3.089,0,0,1,2.437-1.052h.077c2.043.031,4.038.036,5.72.036h2.183c.7,0,1.442,0,2.161,0,.875,0,1.611,0,2.319,0h.011a1.418,1.418,0,0,0,1.182-.5,15.468,15.468,0,0,1,1.858-1.817,2.087,2.087,0,0,1,.474-.284c-.061.672-.154,1.7-.252,2.794-1.868,1.842-3.59,3.573-5.264,5.29a1.7,1.7,0,0,0-.451,1.046c-.036,2.479-.038,5.062-.006,7.674a2.126,2.126,0,0,1-.686,1.664c-.783.766-1.571,1.552-2.333,2.313l0,.006c-.778.777-1.583,1.58-2.39,2.368a.934.934,0,0,0-.284,1.167,4.448,4.448,0,0,1,.1,2.805,4.651,4.651,0,0,1-1.615,2.3,4.314,4.314,0,0,1-1.287.694,4.454,4.454,0,0,1-1.424.233,4.537,4.537,0,0,1-2.377-.673,4.421,4.421,0,0,1-1.794-2.082,4.7,4.7,0,0,1-.236-2.794,4.285,4.285,0,0,1,1.613-2.5,4.616,4.616,0,0,1,2.788-.963,3.993,3.993,0,0,1,1.848.443,1.57,1.57,0,0,0,.708.213,1.18,1.18,0,0,0,.864-.482c.7-.737,1.424-1.464,2.128-2.168l0,0c.634-.634,1.29-1.291,1.919-1.949a1.7,1.7,0,0,0,.442-1.053c.021-1.393.02-2.806.02-4.174v-.053c0-1.083,0-2.2.009-3.306a6.448,6.448,0,0,1,.134-1.081c.032-.178.065-.359.092-.548h-2.54c-1.044,0-2.282,0-3.555.016a.871.871,0,0,0-.527.315c-2.043,2.025-3.885,3.854-5.726,5.731a1.316,1.316,0,0,0-.3.826c-.014.64-.013,1.292-.013,1.923v.067c0,.8,0,1.618-.024,2.428a1.608,1.608,0,0,1-.42.992c-1.155,1.178-2.341,2.366-3.486,3.512l-.013.016-.014.013c-1.04,1.042-2.116,2.119-3.165,3.187a1.639,1.639,0,0,1-1.168.6,1.322,1.322,0,0,1-.215-.018,1.143,1.143,0,0,0-.163-.012c-.285,0-.437.15-.524.519a4.274,4.274,0,0,1-1.494,2.4A4.091,4.091,0,0,1-195.568-4444.659Zm-.03-7.031a2.755,2.755,0,0,0-1.967.769,2.746,2.746,0,0,0-.842,1.935v.077a2.782,2.782,0,0,0,2.658,2.782c.027,0,.055,0,.083,0a2.865,2.865,0,0,0,2.865-2.676,2.756,2.756,0,0,0-.755-1.984,2.808,2.808,0,0,0-1.97-.9h-.073Zm17.794-.25a2.513,2.513,0,0,0-1.786.724,2.5,2.5,0,0,0-.742,1.779v.022a2.511,2.511,0,0,0,2.458,2.561h.04a2.594,2.594,0,0,0,1.847-.773,2.546,2.546,0,0,0,.757-1.811,2.607,2.607,0,0,0-2.574-2.5Zm-12.428-4.9h-.045a1.659,1.659,0,0,0-1.568,1.631v.032a1.618,1.618,0,0,0,1.6,1.585h.034a1.669,1.669,0,0,0,1.174-.538,1.6,1.6,0,0,0,.445-1.152A1.7,1.7,0,0,0-190.233-4456.837Zm-.02-6.147h-.027a1.588,1.588,0,0,0-1.561,1.611v.032a1.568,1.568,0,0,0,.47,1.12,1.568,1.568,0,0,0,1.129.451h.034a1.634,1.634,0,0,0,1.618-1.61,1.641,1.641,0,0,0-1.663-1.6Zm-25.277,13.4a4.349,4.349,0,0,1-1.358-.218,4.536,4.536,0,0,1-1.236-.62,4.611,4.611,0,0,1-1.7-2.254,4.23,4.23,0,0,1-.219-1.748,4.615,4.615,0,0,1,.467-1.676,4.607,4.607,0,0,1,1.039-1.379,4.17,4.17,0,0,1,1.508-.879,4.943,4.943,0,0,1,1.537-.261,4.058,4.058,0,0,1,2.029.544.844.844,0,0,0,.41.134.724.724,0,0,0,.513-.284c.617-.635,1.253-1.267,1.868-1.876l.017-.015c.657-.654,1.336-1.329,1.99-2.007a1.766,1.766,0,0,1,1.385-.569h.024c.99.007,2.3.015,3.615.015,1.412,0,2.669-.01,3.844-.029a1.8,1.8,0,0,0,1.117-.463c1.663-1.6,3.256-3.214,4.457-4.448a1.3,1.3,0,0,0,.328-.809c.036-1.466.024-2.938.01-4.055a1.853,1.853,0,0,1,.6-1.477c.936-.9,1.863-1.822,2.76-2.72l.032-.032c.343-.344.7-.7,1.047-1.045-.159-.168-.322-.33-.48-.485a7.011,7.011,0,0,1-.961-1.076,6.658,6.658,0,0,1-.6-1.271v0c-.085-.216-.174-.44-.275-.67h0c-.17,0-.346,0-.533,0h-.011c-.2,0-.412-.006-.626-.006-.389,0-.707.01-1,.032a1.353,1.353,0,0,0-.7.451c-1.261,1.259-2.577,2.575-3.736,3.736l-.018.019c-2.372,2.373-4.824,4.826-7.249,7.227a2.139,2.139,0,0,1-1.078.435,2.675,2.675,0,0,1-.484.041c-.151,0-.305-.009-.455-.018h0l-.213-.011-.091,0c-.307,0-.5.08-.622.5a2.442,2.442,0,0,1-.925,1.3,2.607,2.607,0,0,1-1.517.476,2.718,2.718,0,0,1-.3-.017,2.641,2.641,0,0,1-1.527-.717,2.465,2.465,0,0,1-.759-1.462,2.724,2.724,0,0,1,.352-1.759,2.547,2.547,0,0,1,1.358-1.108,2.632,2.632,0,0,1,.869-.15,2.661,2.661,0,0,1,2.217,1.253c.218.328.469.662.68.662h.038c.159,0,.321.015.477.029h0c.159.014.322.028.484.028a1.44,1.44,0,0,0,1.1-.429c1.963-1.988,3.969-4,5.908-5.935l.029-.029c1.619-1.621,3.294-3.3,4.934-4.952a1.693,1.693,0,0,1,1.269-.594c.041,0,.082,0,.122.005.245.015.506.021.824.021.2,0,.409,0,.608,0h.024c.191,0,.407-.006.617-.006a10.162,10.162,0,0,1,.815-1.824,5.048,5.048,0,0,1,1-1.248,3.6,3.6,0,0,1,1.233-.719,4.739,4.739,0,0,1,1.518-.235h.049c2.177,0,3.447,1.127,4.531,4.019h3.722c1.106,0,1.983,0,2.762,0,.368,0,.743.005,1.106.011h.03c.392,0,.8.01,1.194.01.367,0,.693-.005,1-.014a1.528,1.528,0,0,0,.965-.337c2.565-2.547,5.155-5.158,7.657-7.684l.027-.026.352-.355,1.135-1.144a.7.7,0,0,0,.086-.121c.019-.03.04-.063.068-.1h-9.023A6,6,0,0,1-172.4-4488a5.589,5.589,0,0,1-2.066,1.877,5.782,5.782,0,0,1-2.7.667,5.855,5.855,0,0,1-1.652-.237,5.733,5.733,0,0,1-4.045-5.488,5.423,5.423,0,0,1,.29-1.764,5.729,5.729,0,0,1,.821-1.568,5.83,5.83,0,0,1,1.259-1.251,5.572,5.572,0,0,1,1.6-.806,6.006,6.006,0,0,1,1.793-.285,5.275,5.275,0,0,1,1.913.359,6.835,6.835,0,0,1,1.781,1.045,1.974,1.974,0,0,0,1.139.427c2.41.015,4.831.022,7.2.022,1.462,0,2.951,0,4.426-.011.063,1.313.071,2.646.022,3.963-.142.13-.286.274-.444.44-1.575,1.646-3.231,3.264-4.832,4.832-.786.768-1.6,1.563-2.394,2.353-.325.324-.644.662-.953.988l0,0c-.487.515-.99,1.046-1.522,1.529a2.2,2.2,0,0,1-1.318.543c-1.616.022-3.31.033-5.181.033-1.478,0-3.031-.007-4.887-.02h-.019a.926.926,0,0,0-.963.6,4.4,4.4,0,0,1-1.493,1.726,4.841,4.841,0,0,1-2.173.745,1.218,1.218,0,0,0-.673.323c-1.216,1.187-2.646,2.6-4.041,4.042a1.527,1.527,0,0,0-.388.934c-.044,1.387-.028,2.783-.009,3.982a1.878,1.878,0,0,1-.6,1.476c-.821.8-1.646,1.63-2.443,2.43h0c-.944.944-1.92,1.924-2.9,2.869a1.811,1.811,0,0,1-1.144.443c-1.178.02-2.427.029-3.82.029-1.059,0-2.182,0-3.641-.016h-.024a1.62,1.62,0,0,0-1.308.537c-1,1.062-2.088,2.149-3.327,3.329a.857.857,0,0,0-.249,1.157,4.222,4.222,0,0,1,.008,3.335,4.546,4.546,0,0,1-1.04,1.516,4.842,4.842,0,0,1-1.639,1.04,4.125,4.125,0,0,1-1.494.281Zm-.015-7.092a2.648,2.648,0,0,0-2.568,2.53v.064a2.6,2.6,0,0,0,2.551,2.526h.007a2.523,2.523,0,0,0,2.532-2.509,2.585,2.585,0,0,0-.751-1.864,2.45,2.45,0,0,0-1.754-.746Zm4.5-14.64a1.649,1.649,0,0,0-1.617,1.549c0,.03,0,.059,0,.089a1.6,1.6,0,0,0,1.524,1.6c.037,0,.075,0,.112,0a1.6,1.6,0,0,0,1.594-1.508,1.613,1.613,0,0,0-.41-1.19,1.621,1.621,0,0,0-1.144-.544h-.055Zm23.914-12.994a2.548,2.548,0,0,0-2.569,2.454v.048a2.58,2.58,0,0,0,.766,1.831,2.579,2.579,0,0,0,1.839.742h.018a2.614,2.614,0,0,0,2.507-2.479,2.484,2.484,0,0,0-.7-1.806,2.557,2.557,0,0,0-1.828-.791Zm9.985-9.623a2.755,2.755,0,0,0-2.753,2.726v.02a2.745,2.745,0,0,0,.781,1.978,2.746,2.746,0,0,0,1.959.824h.007a2.785,2.785,0,0,0,2.757-2.759,2.734,2.734,0,0,0-.8-1.956,2.724,2.724,0,0,0-1.932-.832Zm-53.009,30.266a2.62,2.62,0,0,1-1.541-.507,2.632,2.632,0,0,1-.973-1.416,2.523,2.523,0,0,1,.093-1.69,2.723,2.723,0,0,1,.957-1.159,2.453,2.453,0,0,1,1.388-.447,2.174,2.174,0,0,1,.541.068,1.62,1.62,0,0,0,.393.057,1.144,1.144,0,0,0,.844-.431c2.4-2.44,4.528-4.561,6.5-6.481a2.052,2.052,0,0,1,1.19-.487c.38-.032.784-.046,1.236-.046.49,0,.967.018,1.369.035.042,0,.086,0,.128,0a1.718,1.718,0,0,0,1.394-.627,9.926,9.926,0,0,1,1.043-.983l.006-.006c.156-.131.317-.27.471-.409l-.038-.058-.088-.13-.171-.019a3.16,3.16,0,0,0-.366-.031h-6.076c-4.347,0-8.841,0-13.261-.007h-.007a.82.82,0,0,0-.942.605,2.454,2.454,0,0,1-2.361,1.578,2.95,2.95,0,0,1-.52-.047,2.506,2.506,0,0,1-1.438-.83,2.57,2.57,0,0,1-.638-1.545,2.587,2.587,0,0,1,1.865-2.694,2.489,2.489,0,0,1,.748-.115,2.445,2.445,0,0,1,2.2,1.348,1.219,1.219,0,0,0,1.315.739h.02c3-.009,6.28-.016,10.016-.016,3.227,0,6.479,0,9.534.008h.23c1.178,0,2.4,0,3.588.086.035,0,.071,0,.1,0a1.438,1.438,0,0,0,1.13-.677,4.325,4.325,0,0,1,.478-.491c-.231-.018-.441-.04-.627-.058h-.005c-.376-.038-.7-.07-1.029-.07h-.026c-3.46.02-6.508.052-9.32.094h-.042a1.5,1.5,0,0,1-1.226-.526c-.551-.615-1.135-1.208-1.7-1.783l-.026-.026c-.215-.22-.436-.444-.65-.667a4.839,4.839,0,0,1-1.91.494,2.3,2.3,0,0,1-1.881-.976,2.509,2.509,0,0,1-.544-1.632,2.623,2.623,0,0,1,.616-1.634,2.674,2.674,0,0,1,.909-.7,2.514,2.514,0,0,1,1.073-.238,2.685,2.685,0,0,1,1.355.378,2.523,2.523,0,0,1,1.09,3.073.648.648,0,0,0,.209.854c.317.3.63.621.933.929h0c.378.383.769.779,1.17,1.153a1.22,1.22,0,0,0,.761.291c1.241.011,2.579.014,4.341.014.739,0,1.483,0,2.113,0h1.724c.284,0,.571,0,.825-.006h0c.269,0,.548-.007.822-.007.423,0,.77.008,1.1.023.056,0,.111.006.163.006a1.862,1.862,0,0,0,1.437-.584c1.543-1.552,3.125-3.1,4.654-4.606l.085-.085c.528-.517,1.074-1.053,1.608-1.58l-.114-.187-.2-.011-.02,0c-.142-.008-.3-.018-.46-.018h-4.384c-1.138,0-2.64,0-4.162-.018h-.022a.89.89,0,0,0-.577.153,1.1,1.1,0,0,0-.331.5,3.633,3.633,0,0,1-1.383,1.708,3.822,3.822,0,0,1-2.109.612,4.506,4.506,0,0,1-.814-.077,3.64,3.64,0,0,1-2.09-1.277,3.625,3.625,0,0,1-.885-2.28,4.436,4.436,0,0,1,.2-1.385,3.564,3.564,0,0,1,.6-1.134,3.614,3.614,0,0,1,.975-.85,4.582,4.582,0,0,1,1.317-.526,3.1,3.1,0,0,1,.731-.084,3.751,3.751,0,0,1,1.988.6,3.652,3.652,0,0,1,1.392,1.6.79.79,0,0,0,.854.547h.008c2.487-.008,5.016-.008,7.462-.012h.175c2.554,0,5.192,0,7.788-.012a1.08,1.08,0,0,0,.7-.25c1.428-1.4,2.863-2.829,4.252-4.217l.678-.678c.016-.016.019-.042.027-.1.005-.04.012-.095.026-.17h-2.27c-.513,0-.933,0-1.324,0-.534,0-1.074.005-1.627.007-.664.005-1.49.01-2.277.01h-.746c-.41,0-.634.075-.795.5a2.466,2.466,0,0,1-.946,1.194,2.6,2.6,0,0,1-1.448.425,2.924,2.924,0,0,1-.608-.063,2.462,2.462,0,0,1-1.407-.909,2.707,2.707,0,0,1-.582-1.63,2.594,2.594,0,0,1,2.12-2.567,2.471,2.471,0,0,1,.5-.052,2.556,2.556,0,0,1,1.414.429,2.523,2.523,0,0,1,.952,1.172c.144.361.285.534.7.534h.006c.532,0,1.1,0,1.732,0,1.015,0,2.064,0,2.989,0h.351c.924,0,1.879,0,2.818,0h1.306a.9.9,0,0,0,.551-.249c.553-.522,1.084-1.047,1.7-1.653l.054-.054c.208-.2.422-.417.649-.637h-.015c-.211,0-.4.007-.572.014-.149,0-.291.01-.423.01a2.485,2.485,0,0,1-.514-.044,2.657,2.657,0,0,1-1.274-.523c-.989-.948-1.971-1.925-2.92-2.868l0,0c-.86-.857-1.75-1.742-2.638-2.6a1.8,1.8,0,0,0-1.12-.468c-1.06-.023-2.146-.034-3.227-.034-1.064,0-2.147.011-3.218.033a1.8,1.8,0,0,0-1.125.452c-.871.841-1.741,1.711-2.584,2.551l-.006,0c-.883.884-1.8,1.794-2.71,2.675a1.945,1.945,0,0,1-1.2.489c-1.51.023-3.045.023-4.529.025h-.012c-1.31,0-2.663,0-4.005.018a1.58,1.58,0,0,0-.987.419c-1.421,1.4-2.859,2.835-4.25,4.22l-.02.018-.009.011c-1.589,1.584-3.232,3.22-4.859,4.818a1.8,1.8,0,0,1-1.13.45c-1.348.018-2.774.027-4.364.027-1.166,0-2.449,0-4.038-.015h-.029a.907.907,0,0,0-1,.613,3.17,3.17,0,0,1-1.209,1.374,3.243,3.243,0,0,1-1.713.49,3.215,3.215,0,0,1-.888-.125,3.307,3.307,0,0,1-2.446-3.419,3.378,3.378,0,0,1,.894-2.05,3.354,3.354,0,0,1,1.982-1.026,3.112,3.112,0,0,1,.437-.031,3.357,3.357,0,0,1,3.127,2.265c.032.09.067.177.107.278.021.053.042.106.066.166h3.116c1.821,0,3.782,0,5.783-.009a.8.8,0,0,0,.5-.22c2.605-2.6,5.223-5.225,7.754-7.768l.215-.215a.664.664,0,0,0,.088-.126c.019-.031.042-.069.072-.114l-.206-.02h-.007c-.119-.014-.238-.022-.357-.025h-4.014c-1.27,0-2.776,0-4.314-.021h-.032a.822.822,0,0,0-.938.68,4.369,4.369,0,0,1-4.216,3.062,4.7,4.7,0,0,1-.843-.076,4.445,4.445,0,0,1-2.666-1.579,4.542,4.542,0,0,1-1.023-2.95,4.491,4.491,0,0,1,1.051-2.787,4.5,4.5,0,0,1,2.562-1.523,4.627,4.627,0,0,1,.91-.09,4.408,4.408,0,0,1,4.111,2.721.846.846,0,0,0,.956.612h0c3.2,0,6.066-.008,8.771-.008,3.8,0,7.281,0,10.64.014h.008a1.92,1.92,0,0,0,1.505-.645c.3-.309.6-.62.9-.92l.012-.011c.837-.848,1.7-1.726,2.515-2.7h-7.053c-2.4,0-4.256,0-6.006.01h-.012a2.18,2.18,0,0,1-1.663-.685c-1.231-1.242-2.484-2.49-3.7-3.7l-.021-.022c-1.131-1.127-2.3-2.292-3.446-3.446a1.583,1.583,0,0,0-1.216-.544h-.039c-.9.017-1.844.025-2.876.025-.919,0-1.892-.005-3.062-.02h-.037a.709.709,0,0,0-.824.6,5.478,5.478,0,0,1-.8,1.6,5.784,5.784,0,0,1-1.238,1.251,5.452,5.452,0,0,1-3.226,1.108c-.14,0-.281-.005-.42-.018a6.081,6.081,0,0,1-3.635-1.551,5.616,5.616,0,0,1-1.756-3.42,5.588,5.588,0,0,1,.772-3.626,5.763,5.763,0,0,1,2.872-2.408,5.847,5.847,0,0,1,2.091-.393,5.431,5.431,0,0,1,2.965.875,6.084,6.084,0,0,1,2.15,2.484.9.9,0,0,0,.942.615h.025c.8-.008,1.57-.011,2.222-.011h1.607c.873,0,1.9,0,2.907-.02h.078a2.985,2.985,0,0,1,1.137.2,2.81,2.81,0,0,1,.965.674c1.4,1.44,2.835,2.875,4.226,4.263l0,.005c.889.887,1.808,1.8,2.706,2.713a1.6,1.6,0,0,0,1.253.527h.005c4.477-.012,9.029-.012,13.432-.013h.047c3,0,6.4,0,9.695-.007h0a2,2,0,0,1,1.54.627c2.154,2.183,3.828,3.854,5.426,5.417a1.586,1.586,0,0,0,.972.474c4.33.018,8.7.019,12.028.019h7.672c.083,0,.165-.005.292-.015h0c.082,0,.171-.013.284-.021-.214-.211-.426-.423-.631-.628l-.152-.153,0,0c-.837-.835-1.629-1.625-2.434-2.4a.96.96,0,0,0-.6-.126h-.009c-.254,0-.519,0-.833,0h-1.338c-.42,0-.973,0-1.521-.013h-.038a.709.709,0,0,0-.758.521,2.615,2.615,0,0,1-.969,1.183,2.543,2.543,0,0,1-1.411.423,2.61,2.61,0,0,1-.914-.166,2.54,2.54,0,0,1-1.4-1.265,2.715,2.715,0,0,1-.182-1.92,2.468,2.468,0,0,1,.922-1.353,2.6,2.6,0,0,1,1.565-.513,2.9,2.9,0,0,1,.558.059,2.3,2.3,0,0,1,1.785,1.434.843.843,0,0,0,.92.628c.031,0,.065,0,.1,0,.272-.01.563-.015.915-.015.252,0,.509,0,.757,0h.027c.219,0,.492.005.75.005.428,0,.776-.005,1.1-.021l.115,0a1.864,1.864,0,0,1,1.455.679c.35.37.722.732,1.081,1.081a22.482,22.482,0,0,1,1.643,1.715,2.368,2.368,0,0,0,1.983.9,7.166,7.166,0,0,0,1.062-.1c-.313-.3-.628-.6-.881-.844l-.017-.016c-.619-.59-1.2-1.148-1.78-1.716-.5-.5-1.009-1-1.5-1.492l-.006-.007c-.832-.833-1.693-1.695-2.557-2.523a1.589,1.589,0,0,0-.989-.412c-1.3-.016-2.6-.017-3.829-.017h-.678c-1,0-2.135,0-3.242-.009h-.024a.821.821,0,0,0-.893.563,2.616,2.616,0,0,1-2.363,1.533,2.494,2.494,0,0,1-.568-.066,2.6,2.6,0,0,1-1.413-.883,2.626,2.626,0,0,1-.6-1.562,2.671,2.671,0,0,1,.464-1.625,2.468,2.468,0,0,1,1.326-.969,3.1,3.1,0,0,1,.83-.121,2.515,2.515,0,0,1,2.217,1.307,5.348,5.348,0,0,1,.257.534c.042.1.084.195.133.3.632,0,1.273.012,1.894.023s1.277.025,1.921.025c.943,0,1.719-.028,2.441-.085.257-.022.507-.031.743-.031a5.471,5.471,0,0,1,4.529,2.151,50.336,50.336,0,0,0,4.043,4.146h0c.453.43.966.917,1.45,1.39a1.89,1.89,0,0,0,.567.378c.21,1,.389,2.015.533,3.018h-4.446c-5.08,0-11.093,0-17.167-.021h-.01a2.1,2.1,0,0,0-1.621.693c-1.261,1.263-2.547,2.542-3.79,3.779l-.024.024c-1.918,1.91-3.9,3.886-5.864,5.856a1.76,1.76,0,0,1-1.36.554h-.055c-.733-.014-1.409-.021-2.062-.021-.8,0-1.549.01-2.281.032a1.5,1.5,0,0,0-.94.38c-1.765,1.739-3.531,3.51-5.238,5.223-.489.492-1.058,1.062-1.618,1.624-.185.186-.382.367-.572.544a9.389,9.389,0,0,0-1.152,1.2,3.044,3.044,0,0,1-2.679,1.174c-.287,0-.58-.018-.828-.034-.137-.008-.251-.015-.362-.015a1.243,1.243,0,0,0-1.171.642,10.729,10.729,0,0,1-1.773,1.877c-.18.163-.366.33-.544.5a1.2,1.2,0,0,1-.727.213c-.331.008-.658.009-.905.009h-.9c-.41,0-.9,0-1.382.023a1.442,1.442,0,0,0-.875.362c-1.34,1.317-2.685,2.66-3.986,3.96-.775.774-1.576,1.574-2.377,2.369-.316.315-.417.539-.138.969a2.487,2.487,0,0,1-.52,3.213,2.592,2.592,0,0,1-1.724.668Zm0-4.217a1.573,1.573,0,0,0-1.143.45,1.574,1.574,0,0,0-.469,1.137h0a1.611,1.611,0,0,0,.465,1.158,1.612,1.612,0,0,0,1.152.476h.027a1.593,1.593,0,0,0,1.128-.486,1.6,1.6,0,0,0,.449-1.145,1.58,1.58,0,0,0-.466-1.131,1.582,1.582,0,0,0-1.134-.46Zm-8.268-12.6a1.609,1.609,0,0,0-1.157.478,1.616,1.616,0,0,0-.467,1.161v.021a1.568,1.568,0,0,0,.48,1.125,1.563,1.563,0,0,0,1.142.441h.01a1.582,1.582,0,0,0,1.138-.467,1.588,1.588,0,0,0,.462-1.14,1.641,1.641,0,0,0-1.6-1.619Zm12.251-6.732a1.617,1.617,0,0,0-1.628,1.6v.032a1.6,1.6,0,0,0,.464,1.145,1.6,1.6,0,0,0,1.142.469h.041a1.632,1.632,0,0,0,1.6-1.631,1.625,1.625,0,0,0-1.614-1.606Zm10.607-4.031a1.846,1.846,0,0,0-1.826,1.838v.016a1.827,1.827,0,0,0,.545,1.289,1.827,1.827,0,0,0,1.3.523h.022a1.806,1.806,0,0,0,1.812-1.761,1.881,1.881,0,0,0-.533-1.359,1.82,1.82,0,0,0-1.309-.544h-.008Zm-26.508-1.7a2.359,2.359,0,0,0-2.366,2.316v.017a2.366,2.366,0,0,0,2.355,2.314h0a2.318,2.318,0,0,0,1.632-.677,2.236,2.236,0,0,0,.682-1.6,2.29,2.29,0,0,0-.646-1.671,2.289,2.289,0,0,0-1.651-.694Zm40.485-5.062h-.024a1.624,1.624,0,0,0-1.605,1.607v.008a1.6,1.6,0,0,0,.467,1.138,1.6,1.6,0,0,0,1.137.468h.007a1.663,1.663,0,0,0,1.188-.484,1.526,1.526,0,0,0,.452-1.086,1.628,1.628,0,0,0-.464-1.167,1.626,1.626,0,0,0-1.159-.485Zm-33.773-5.068h-.018a2.567,2.567,0,0,0-2.53,2.508v.028a2.548,2.548,0,0,0,.752,1.806,2.549,2.549,0,0,0,1.81.741h.02a2.533,2.533,0,0,0,1.8-.757,2.565,2.565,0,0,0,.733-1.84,2.579,2.579,0,0,0-2.566-2.486Zm58.037-4.761a1.594,1.594,0,0,0-1.14.476,1.589,1.589,0,0,0-.454,1.15v.023a1.578,1.578,0,0,0,.456,1.133,1.581,1.581,0,0,0,1.127.465h.024a1.669,1.669,0,0,0,1.62-1.589,1.657,1.657,0,0,0-1.575-1.659h-.057Zm-4.493-3.783h-.01a1.616,1.616,0,0,0-1.627,1.587,1.654,1.654,0,0,0,1.588,1.641h.024a1.654,1.654,0,0,0,1.173-.494,1.587,1.587,0,0,0,.469-1.142,1.621,1.621,0,0,0-1.616-1.595Zm-59.462-6.646a2.773,2.773,0,0,0-2.771,2.664c0,.024,0,.052,0,.084a2.713,2.713,0,0,0,.779,1.952,2.711,2.711,0,0,0,1.94.809h.053a2.72,2.72,0,0,0,2.76-2.674,2.8,2.8,0,0,0-.787-2.018,2.725,2.725,0,0,0-1.954-.818Zm30.405,5.191a2.149,2.149,0,0,1-.52-.064,2.635,2.635,0,0,1-2.143-2.634,2.6,2.6,0,0,1,2.126-2.493,3.222,3.222,0,0,1,.544-.047,2.233,2.233,0,0,1,1.5.535,4.024,4.024,0,0,1,1.077,1.639h1.154c.539,0,1,0,1.423,0,.091,0,.184-.006.274-.014h.02c.037,0,.075-.006.113-.008l.067-.088.037-.048.063-.083c-.109-.088-.222-.176-.331-.26l0,0a7.681,7.681,0,0,1-.7-.588c-.783-.778-1.575-1.569-2.341-2.335-1.346-1.348-2.737-2.74-4.125-4.1a1.729,1.729,0,0,0-1.063-.438c-.706-.023-1.433-.037-2.16-.037-.693,0-1.4.011-2.111.034a1.74,1.74,0,0,0-.994.427c-.3.261-.59.558-.865.844h0l0,0c-.251.259-.51.529-.784.772a.862.862,0,0,0-.327.5.985.985,0,0,0,.149.594,2.52,2.52,0,0,1,.158,1.916,2.552,2.552,0,0,1-.448.844,2.415,2.415,0,0,1-.74.615,2.836,2.836,0,0,1-1.331.34,2.517,2.517,0,0,1-1.249-.325,2.632,2.632,0,0,1-.957-.937,2.669,2.669,0,0,1,.127-2.867,2.463,2.463,0,0,1,2-1.066,2.422,2.422,0,0,1,.664.1,1.565,1.565,0,0,0,.437.07.964.964,0,0,0,.794-.447,3.884,3.884,0,0,1,.5-.5,3.8,3.8,0,0,0,.516-.528,3.485,3.485,0,0,1,1.234-1.073,3.362,3.362,0,0,1,1.545-.338,4.948,4.948,0,0,1,.538.029,12.761,12.761,0,0,0,1.339.061c.366,0,.734-.011,1.09-.019h.006c.333-.009.709-.02,1.085-.02h.02a1.8,1.8,0,0,1,1.434.665c.724.79,1.506,1.55,2.263,2.285l0,.005.007.007c.376.365.766.743,1.143,1.119l.207.208c1.369,1.368,2.785,2.787,4.157,4.2a1.423,1.423,0,0,0,1.21.507,8,8,0,0,0,1.069-.093c-.333-.322-.662-.638-.979-.941l0,0c-.683-.655-1.328-1.272-1.97-1.917-1.019-1.023-2.051-2.067-3.05-3.076l0,0-.014-.014c-1.222-1.235-2.485-2.512-3.736-3.762a.992.992,0,0,0-.64-.231c-1.6-.007-3.225-.007-4.8-.008h-.027c-2.137,0-4.347,0-6.531-.019h-.008c-.462,0-.579.264-.714.568l-.022.05a2.5,2.5,0,0,1-2.309,1.5,2.747,2.747,0,0,1-.9-.151,2.577,2.577,0,0,1-1.655-3.07,2.678,2.678,0,0,1,.911-1.438,2.478,2.478,0,0,1,1.553-.565,2.248,2.248,0,0,1,.348.026,2.9,2.9,0,0,1,1.27.486,2.313,2.313,0,0,1,.818,1.089.753.753,0,0,0,.851.547h.007c1.274,0,2.489,0,3.614,0,2.806,0,5.365.01,7.822.031a1.474,1.474,0,0,1,.932.391c3.314,3.29,6.667,6.65,9.966,9.987a2.269,2.269,0,0,0,1.509.632,4.061,4.061,0,0,0,.555.037,3.842,3.842,0,0,0,2.946-1.5c1.13-1.239,2.359-2.424,3.547-3.574h0c.475-.459,1.012-.979,1.523-1.483l-.052-.2h-.008c-.2,0-.412.007-.613.013h-.005c-.194,0-.413.012-.625.012a5.877,5.877,0,0,1-.775-.042,1.614,1.614,0,0,0-.217-.015,2.037,2.037,0,0,0-1.469.837l-.03.029-.159.164-.071.073c-.671.688-1.364,1.4-2.079,2.062a1.619,1.619,0,0,1-.876.371,2.592,2.592,0,0,1-.354.019c-.12,0-.243,0-.361-.009h-.009c-.117-.005-.238-.009-.357-.009a2.705,2.705,0,0,0-.435.032,4.159,4.159,0,0,1-.665.055,3.328,3.328,0,0,1-1.637-.421,5.656,5.656,0,0,1-1.4-1.138c-1.919-2.055-3.961-4.06-5.935-6l0,0-.939-.921a1.591,1.591,0,0,0-1.021-.384c-1.171-.013-2.379-.02-3.694-.02-1.148,0-2.376,0-3.755.016a8.335,8.335,0,0,0-1.617.18,2.554,2.554,0,0,1-.548.058,2.663,2.663,0,0,1-2.5-1.694,2.552,2.552,0,0,1,.013-1.85,2.773,2.773,0,0,1,1.285-1.4,2.425,2.425,0,0,1,1.128-.272,2.634,2.634,0,0,1,2.152,1.1,2.547,2.547,0,0,1,.385,1.263,4.767,4.767,0,0,1-.193,1.635c.569,0,1.147.011,1.705.021h0c.555.009,1.129.02,1.691.02.83,0,1.513-.023,2.149-.071.227-.016.449-.027.657-.027a5.038,5.038,0,0,1,4.085,1.868c1.348,1.537,2.84,2.99,4.283,4.4.7.68,1.422,1.381,2.12,2.089a1.843,1.843,0,0,0,1.193.521,6.471,6.471,0,0,0,.9.063,4.122,4.122,0,0,0,3.64-1.952,2.5,2.5,0,0,1,.331-.367c.072-.071.162-.16.263-.267h0c-.216,0-.42,0-.584-.007s-.315,0-.468,0c-.226,0-.409.007-.577.021-.063,0-.126.008-.185.008a1.894,1.894,0,0,1-1.416-.647c-1.611-1.624-3.233-3.247-4.8-4.816l-.01-.01c-1.706-1.708-3.471-3.473-5.2-5.217a1.658,1.658,0,0,0-1.3-.529h-.031c-1.056.01-2.12.013-2.929.013h-2.062c-.686,0-1.5,0-2.324,0h-.018a1.778,1.778,0,0,1-1.393-.582c-.52-.545-1.06-1.08-1.58-1.6-.469-.467-.955-.95-1.423-1.436a1.261,1.261,0,0,0-.985-.448,1.72,1.72,0,0,0-.207.01c-.17.016-.341.027-.512.027a4.563,4.563,0,0,1-2.719-.876,4.386,4.386,0,0,1-1.616-2.315,4.529,4.529,0,0,1-.179-1.587,4.362,4.362,0,0,1,.371-1.494,4.467,4.467,0,0,1,.87-1.289,4.833,4.833,0,0,1,1.319-.969,4.268,4.268,0,0,1,1.947-.462,4.492,4.492,0,0,1,1.924.436,4.646,4.646,0,0,1,1.613,1.262,4.4,4.4,0,0,1,.965,2.809,4.485,4.485,0,0,1-.98,2.824c-.1.125-.21.252-.335.4l-.006.008c-.065.077-.138.162-.221.261.245.235.488.473.735.711l0,0c.744.722,1.513,1.468,2.285,2.179a1.091,1.091,0,0,0,.676.136h0l.763,0h.033c1.191,0,2.421.011,3.632.011,1.15,0,2.166,0,3.105-.015h.028a1.866,1.866,0,0,1,1.434.622c3.937,3.959,7.16,7.174,10.144,10.122a1.656,1.656,0,0,0,1.057.435h0c2.63,0,5.3-.024,7.889-.045h.007c1.676-.012,3.577-.028,5.426-.037a.941.941,0,0,0,1.081-.75,3.759,3.759,0,0,1,.62-1.141,4.231,4.231,0,0,1,.959-.887,4.524,4.524,0,0,1,2.506-.781h0a4.676,4.676,0,0,1,2.6.772,4.028,4.028,0,0,1,1.613,2.062c.2.575.442.79.908.79a1.887,1.887,0,0,0,.21-.013,1.331,1.331,0,0,1,.159-.011,1.7,1.7,0,0,1,1.282.821v0c.108.129.221.264.339.379.752.738,1.571,1.548,2.5,2.478.718,1.672,1.44,3.331,2.144,4.931-1.363-1.36-2.754-2.753-3.981-3.98l-.015-.015-2.188-2.189c-.372-.371-.6-.523-.78-.523-.219,0-.388.214-.625.79a4.417,4.417,0,0,1-4.132,2.7h-.109a4.505,4.505,0,0,1-2.519-.828,4.176,4.176,0,0,1-1.555-2.1.685.685,0,0,0-.778-.568h-.042c-1.226.021-2.565.03-4.211.03-.436,0-.869,0-1.363,0h-.008a1.789,1.789,0,0,0-1.387.6c-2.257,2.307-4.495,4.542-6.651,6.645a1.911,1.911,0,0,1-1.193.487c-1.94.026-3.843.029-5.61.029h-4.687A3.017,3.017,0,0,1-210.869-4513.079Zm-.044-4.28a1.733,1.733,0,0,0-1.644,1.648v.011a1.7,1.7,0,0,0,1.613,1.616h.009a1.668,1.668,0,0,0,1.162-.5,1.637,1.637,0,0,0,.489-1.145,1.753,1.753,0,0,0-1.612-1.633h-.018Zm-12.214-4.127h-.047a1.671,1.671,0,0,0-1.567,1.613v.056a1.626,1.626,0,0,0,1.614,1.581h.027a1.658,1.658,0,0,0,1.614-1.622,1.7,1.7,0,0,0-1.641-1.629Zm44.9-4.969a2.521,2.521,0,0,0-2.512,2.521v.006a2.629,2.629,0,0,0,2.546,2.569h.04a2.574,2.574,0,0,0,2.5-2.57,2.5,2.5,0,0,0-.709-1.79,2.6,2.6,0,0,0-1.862-.735Zm-48.587-1.86h-.021a1.766,1.766,0,0,0-1.627,1.626c0,.01,0,.02,0,.031a1.775,1.775,0,0,0,1.648,1.629h.024a1.69,1.69,0,0,0,1.608-1.629,1.658,1.658,0,0,0-.5-1.161,1.618,1.618,0,0,0-1.133-.5Zm5.92-3.769a1.556,1.556,0,0,0-1.124.413,1.558,1.558,0,0,0-.5,1.09c0,.037,0,.069,0,.1a1.58,1.58,0,0,0,.445,1.131,1.579,1.579,0,0,0,1.118.481h.047a1.585,1.585,0,0,0,1.619-1.545,1.584,1.584,0,0,0-.412-1.158,1.588,1.588,0,0,0-1.115-.515.613.613,0,0,0-.077,0Zm-2.7-12.94a2.5,2.5,0,0,0-1.786.727,2.5,2.5,0,0,0-.739,1.78v.02a2.579,2.579,0,0,0,2.539,2.579h.019a2.613,2.613,0,0,0,2.525-2.536,2.539,2.539,0,0,0-.733-1.819,2.554,2.554,0,0,0-1.821-.751Zm32.853,15.15c-.075,0-.154,0-.236,0a4.364,4.364,0,0,1-1.5-.322,3.79,3.79,0,0,1-1.222-.825,5.108,5.108,0,0,1-.939-1.34,8.9,8.9,0,0,1-.657-1.862h-2.23c-.686,0-1.188,0-1.629,0-.334,0-.673,0-1,.009h-.03c-.368,0-.749.008-1.127.008-.476,0-.872-.007-1.245-.022a1.648,1.648,0,0,1-1-.41c-2.56-2.514-5.09-5.053-7.226-7.2a1.453,1.453,0,0,0-1.108-.511c-.045,0-.093,0-.142.006-.064,0-.13.008-.194.008a2.454,2.454,0,0,1-1.628-.6,2.663,2.663,0,0,1-.853-1.538,2.608,2.608,0,0,1,.334-1.784,2.519,2.519,0,0,1,1.388-1.136,2.818,2.818,0,0,1,.856-.139,2.586,2.586,0,0,1,1.361.384,2.53,2.53,0,0,1,.96,1.087,2.636,2.636,0,0,1-.712,3.219c.356.342.711.686,1.055,1.015l.026.025c.794.764,1.615,1.552,2.41,2.334.552.541,1.1,1.088,1.632,1.617.757.754,1.539,1.536,2.327,2.3a1.285,1.285,0,0,0,.8.346c1.224.018,2.468.018,3.671.019h.01c.879,0,1.876,0,2.834.007h.016c.413,0,.591-.134.737-.553a4.755,4.755,0,0,1,1.423-2.151,4.335,4.335,0,0,1,2.383-.946c.187-.018.373-.027.553-.027a4.327,4.327,0,0,1,3.873,2.3.924.924,0,0,0,.632.436c2.852.019,5.724.02,8.4.02H-174c.123.652.27,1.318.435,1.98h-7.552l-4.435,0c-.125,0-.248.007-.391.016h0l-.238.013a5.468,5.468,0,0,1-.585,1.916,4.362,4.362,0,0,1-1.33,1.49,4.5,4.5,0,0,1-1.253.622A4.6,4.6,0,0,1-190.732-4529.874Zm.008-7.075a2.62,2.62,0,0,0-2.534,2.465c0,.038,0,.076,0,.117a2.535,2.535,0,0,0,2.478,2.536l.078,0a2.6,2.6,0,0,0,2.558-2.443,2.531,2.531,0,0,0-.686-1.812,2.61,2.61,0,0,0-1.808-.861h-.083Zm-21.425-9.593a1.634,1.634,0,0,0-1.61,1.6v.011a1.567,1.567,0,0,0,.467,1.158,1.566,1.566,0,0,0,1.166.449h.022a1.544,1.544,0,0,0,1.137-.47,1.544,1.544,0,0,0,.433-1.151,1.591,1.591,0,0,0-.468-1.141,1.585,1.585,0,0,0-1.142-.458Zm14.012,10.167a2.118,2.118,0,0,1-1.412-.421c-.05-.048-.1-.1-.158-.147a2.772,2.772,0,0,1-.4-.417,1.156,1.156,0,0,0-.969-.576,1.88,1.88,0,0,0-.611.117,1.951,1.951,0,0,1-.654.108,2.287,2.287,0,0,1-1.262-.392,2.731,2.731,0,0,1-.925-1.027,2.638,2.638,0,0,1-.275-1.656,2.541,2.541,0,0,1,.792-1.455,2.674,2.674,0,0,1,1.807-.706,2.424,2.424,0,0,1,1.338.387,2.686,2.686,0,0,1,1.086,1.363,2.62,2.62,0,0,1,0,1.733,3.023,3.023,0,0,1-.461.8c.112.09.228.178.34.261h0a8.623,8.623,0,0,1,.731.6,1.52,1.52,0,0,0,1.04.458,1.483,1.483,0,0,0,1.04-.472c.273-.272.549-.55.815-.82l0,0c.55-.557,1.119-1.133,1.7-1.673a1.553,1.553,0,0,1,.927-.414c.953-.016,1.959-.025,2.99-.025.979,0,1.991.007,3.093.024a1.346,1.346,0,0,1,.812.339,10.114,10.114,0,0,1,.767.79,4.776,4.776,0,0,0,1.568,1.313,3.281,3.281,0,0,0,1.246.2c.309,0,.631-.021.942-.043h0c.311-.02.634-.043.943-.043h.017c.433,0,.889,0,1.435,0,1.106,0,2.23,0,3.318-.007h.461a.743.743,0,0,0,.51-.211c-.3-.287-.6-.571-.9-.847l-.008-.007a23.634,23.634,0,0,1-2-2.007,3.531,3.531,0,0,0-3.013-1.26h-.139c-2.1.033-4.149.036-5.876.036h-4.445c-1.343,0-2.435,0-3.439.011h-.024a2.348,2.348,0,0,1-.957-.184,2.509,2.509,0,0,1-.784-.573c-.973-1-1.974-2-2.942-2.965-.759-.756-1.543-1.538-2.317-2.325a.832.832,0,0,0-.615-.3,1.3,1.3,0,0,0-.388.069,4.9,4.9,0,0,1-1.413.221,3.949,3.949,0,0,1-3.05-1.457,4.288,4.288,0,0,1-1.067-2.137,4.163,4.163,0,0,1,.351-2.377,4.05,4.05,0,0,1,3.8-2.558c.049,0,.1,0,.148,0a4.166,4.166,0,0,1,2.14.551,4.1,4.1,0,0,1,1.53,1.631,4.329,4.329,0,0,1,.56,2.315,4.386,4.386,0,0,1-.83,2.256c-.071.1-.142.2-.231.334l-.047.068-.118.173c.446.437.9.873,1.348,1.293,1.034.985,2.1,2,3.063,3.085a4.055,4.055,0,0,0,3.331,1.436c.062,0,.125,0,.186,0,1.611-.037,3.364-.053,5.517-.053,1.2,0,2.421.005,3.6.01h.087c1.161,0,2.362.01,3.542.01h.741c0-.247,0-.491,0-.726,0-.685.005-1.332-.015-1.985a.8.8,0,0,0-.284-.472c-1.123-1.14-2.52-2.555-3.89-3.891a.8.8,0,0,0-.514-.171.6.6,0,0,0-.15.017,4.46,4.46,0,0,1-1.054.133,3.786,3.786,0,0,1-2.179-.665,3.245,3.245,0,0,1-1.278-1.8,3.978,3.978,0,0,1-.136-1.482,3.4,3.4,0,0,1,.411-1.311,3.448,3.448,0,0,1,.9-1.042,4.122,4.122,0,0,1,1.344-.682,2.966,2.966,0,0,1,.846-.12,3.632,3.632,0,0,1,1.559.366,3.6,3.6,0,0,1,1.277,1.014,3.691,3.691,0,0,1,.742,1.969,3.03,3.03,0,0,1-.471,1.97c-.395.565-.2.825.175,1.186,1.466,1.427,2.648,2.619,3.72,3.752a1.859,1.859,0,0,1,.443,1.071,19.877,19.877,0,0,1,.01,2.46,1.6,1.6,0,0,0,.524,1.331q.391.384.784.765l0,0c.98.954,1.994,1.944,2.974,2.931.031.342.068.694.112,1.05.057.462.124.935.2,1.4a1.276,1.276,0,0,0-.9-.333h-.028c-1.266.02-2.555.027-3.941.027-1.578,0-3.273-.012-5.181-.038a1.655,1.655,0,0,1-1.182-.477,4.773,4.773,0,0,0-4.06-2.14,7.149,7.149,0,0,0-1,.075,7.312,7.312,0,0,1-1.1.074c-.5,0-.987-.038-1.36-.071-.066-.005-.131-.007-.193-.007a1.681,1.681,0,0,0-1.317.633c-.6.644-1.234,1.272-1.85,1.878h0l-.44.436A2.147,2.147,0,0,1-198.137-4536.375Zm-4.131-5.564a1.62,1.62,0,0,0-1.6,1.612v0a1.65,1.65,0,0,0,1.621,1.608h.015a1.618,1.618,0,0,0,1.612-1.593,1.6,1.6,0,0,0-.449-1.158,1.637,1.637,0,0,0-1.177-.473h-.021Zm-2.381-13.663a2.816,2.816,0,0,0-2.813,2.8v.005a2.8,2.8,0,0,0,2.812,2.785h0a2.785,2.785,0,0,0,2.765-2.752,2.8,2.8,0,0,0-.821-2.014,2.726,2.726,0,0,0-1.943-.825Zm18.466-1.076h-.027a2.18,2.18,0,0,0-2.059,2.092v.01a2.125,2.125,0,0,0,2.1,2.078h.049a2.112,2.112,0,0,0,2.053-2.091,2.154,2.154,0,0,0-2.115-2.087Z" transform="translate(556.221 9746.285)" fill="#c8c8c8" stroke="rgba(0,0,0,0)" stroke-miterlimit="10" stroke-width="1"/>
    <path id="Path_87" data-name="Path 87" d="M259.266,46.362c-.116.169-1.681-1.51-2.378-2.311A25.012,25.012,0,0,1,251.1,30.937a52.846,52.846,0,0,1-.046-12.388c.528-6,1.12-12,1.541-18A48.746,48.746,0,0,0,248.219-23.1Q244.9-30.5,241.8-37.99a39.02,39.02,0,0,1-2.835-10.3c-.686-5.64.03-10.99,3.742-15.542a14.533,14.533,0,0,1,13-5.424A23,23,0,0,1,264.7-66.3q7.133,3.7,14.329,7.283c1.525.757,3.16,1.288,4.763,2.078-.893.095-1.784.22-2.68.276-4.1.258-15.65-6.382-19.557-7.428a26.744,26.744,0,0,0-6.794-1.084c-4.839-.024-10.023,3.508-11.11,8.237-1.1,4.8.279,12.923,1.577,17.715a79.119,79.119,0,0,0,2.744,8.051A160.225,160.225,0,0,1,253.5-14.221a55.933,55.933,0,0,1,1.255,16.993c-.693,4.2-.575,7.427-1.339,11.613a59.513,59.513,0,0,0-.357,18.869,21.972,21.972,0,0,0,4.291,10.121C257.423,43.548,259.428,46.248,259.266,46.362Z" transform="translate(142.682 5256.29)"/>
  </g>
</svg>
