<svg xmlns="http://www.w3.org/2000/svg" width="80" height="57.143" viewBox="0 0 80 57.143">
  <path id="Path_3" data-name="Path 3" d="M32,116a39.305,39.305,0,0,0,3.086,15.4c6.4,15.411,15.434,21.717,31.163,21.746h.006a2.857,2.857,0,0,0,1.1-5.494c-7.54-3.143-9.806-6.823-12.457-14.506h5.674a8.582,8.582,0,0,0,8.571-8.571v-20A8.582,8.582,0,0,0,60.571,96H40.714a2.857,2.857,0,0,0-2.4,1.311C34.5,103.234,32,107.734,32,116ZM83.571,96h19.857A8.582,8.582,0,0,1,112,104.571v20a8.582,8.582,0,0,1-8.571,8.571H97.757c2.651,7.686,4.917,11.366,12.457,14.506a2.857,2.857,0,0,1-1.1,5.494h-.006c-15.729-.029-24.763-6.334-31.169-21.746A39.35,39.35,0,0,1,74.857,116c0-8.266,2.5-12.766,6.311-18.689A2.857,2.857,0,0,1,83.569,96Z" transform="translate(-32 -96)" fill="#fff" opacity="0.1"/>
</svg>
