<?xml version="1.0" standalone="no"?>
<!DOCTYPE svg PUBLIC "-//W3C//DTD SVG 1.1//EN" "http://www.w3.org/Graphics/SVG/1.1/DTD/svg11.dtd" >
<svg xmlns="http://www.w3.org/2000/svg" xmlns:xlink="http://www.w3.org/1999/xlink" version="1.1">
<metadata>
Created by FontForge 20201107 at Sat Sep 14 01:21:41 2024
 By 
Copyright (c) 2020 CoType Foundry. All Rights Reserved.
</metadata>
<defs>
<font id="AeonikTRIAL-BoldItalic" horiz-adv-x="1239" >
  <font-face 
    font-family="Aeonik TRIAL"
    font-weight="700"
    font-style="italic"
    font-stretch="normal"
    units-per-em="2048"
    panose-1="2 11 8 3 3 3 0 0 0 0"
    ascent="1638"
    descent="-410"
    x-height="1053"
    cap-height="1434"
    bbox="-260 -422 2148 1491"
    underline-thickness="176"
    underline-position="-409"
    slope="-10"
    unicode-range="U+0020-007A"
  />
<missing-glyph horiz-adv-x="1234" 
d="M123 -223v1698h1024v-1698h-1024zM444 1294q-84 0 -129 -49t-45 -135t45 -135t129 -49q66 0 106.5 38t45.5 99h-94q-13 -59 -62 -59q-71 0 -71 106q0 107 71 107q48 0 62 -62h94q-5 63 -45.5 101t-106.5 38zM807 1294q-81 0 -129.5 -52t-48.5 -132q0 -81 48 -132.5
t130 -51.5q81 0 129.5 51.5t48.5 132.5q0 80 -49 132t-129 52zM807 1004q-39 0 -59.5 29.5t-20.5 76.5q0 48 21 77.5t59 29.5t59 -29.5t21 -77.5q0 -47 -20.5 -76.5t-59.5 -29.5zM590 819h-299v-82h100v-282h96v282h103v82zM854 455v135l131 229h-106l-72 -133l-68 133h-112
l131 -229v-135h96zM416 94h57q62 0 99.5 34t37.5 91q0 58 -37.5 92.5t-99.5 34.5h-151v-364h94v112zM692 -18h256v81h-160v64h123v76h-123v61h154v82h-250v-364zM416 268h49q22 0 35.5 -13t13.5 -36q0 -22 -13.5 -34.5t-35.5 -12.5h-49v96z" />
    <glyph glyph-name=".notdef" horiz-adv-x="1234" 
d="M123 -223v1698h1024v-1698h-1024zM444 1294q-84 0 -129 -49t-45 -135t45 -135t129 -49q66 0 106.5 38t45.5 99h-94q-13 -59 -62 -59q-71 0 -71 106q0 107 71 107q48 0 62 -62h94q-5 63 -45.5 101t-106.5 38zM807 1294q-81 0 -129.5 -52t-48.5 -132q0 -81 48 -132.5
t130 -51.5q81 0 129.5 51.5t48.5 132.5q0 80 -49 132t-129 52zM807 1004q-39 0 -59.5 29.5t-20.5 76.5q0 48 21 77.5t59 29.5t59 -29.5t21 -77.5q0 -47 -20.5 -76.5t-59.5 -29.5zM590 819h-299v-82h100v-282h96v282h103v82zM854 455v135l131 229h-106l-72 -133l-68 133h-112
l131 -229v-135h96zM416 94h57q62 0 99.5 34t37.5 91q0 58 -37.5 92.5t-99.5 34.5h-151v-364h94v112zM692 -18h256v81h-160v64h123v76h-123v61h154v82h-250v-364zM416 268h49q22 0 35.5 -13t13.5 -36q0 -22 -13.5 -34.5t-35.5 -12.5h-49v96z" />
    <glyph glyph-name=".null" horiz-adv-x="0" 
 />
    <glyph glyph-name="nonmarkingreturn" horiz-adv-x="682" 
 />
    <glyph glyph-name="space" unicode=" " horiz-adv-x="507" 
 />
    <glyph glyph-name="comma" unicode="," horiz-adv-x="507" 
d="M182 324q98 0 147.5 -75.5t32.5 -197.5q-20 -166 -135 -256t-297 -92l9 150q98 3 155.5 40t73.5 95q4 24 4 37q-21 -21 -55 -21q-63 0 -99 44.5t-26 123.5q8 63 62.5 107.5t127.5 44.5z" />
    <glyph glyph-name="hyphen" unicode="-" horiz-adv-x="880" 
d="M788 465h-718l41 233h718z" />
    <glyph glyph-name="period" unicode="." horiz-adv-x="507" 
d="M203 328q70 0 114.5 -43.5t44.5 -112.5q0 -78 -55 -131t-133 -53q-71 0 -114.5 42.5t-43.5 110.5q0 83 55 135t132 52z" />
    <glyph glyph-name="zero" unicode="0" horiz-adv-x="1323" 
d="M596 -12q-227 0 -366 147.5t-142 399.5q-2 142 27 276t89 249t144 201.5t199.5 135.5t247.5 49q226 0 365.5 -149.5t142.5 -401.5q2 -178 -46 -341.5t-136.5 -289.5t-225 -201t-299.5 -75zM616 238q92 0 168 56.5t122.5 148t72 199.5t25.5 218q0 160 -61.5 248t-168.5 88
q-92 0 -168 -57t-122.5 -148.5t-71.5 -200.5t-25 -219q0 -159 61 -246t168 -87z" />
    <glyph glyph-name="one" unicode="1" horiz-adv-x="749" 
d="M467 1284l27 150h288l-252 -1434h-294l167 913q-31 -8 -77 -8h-248l41 244h205q56 0 94 37.5t49 97.5z" />
    <glyph glyph-name="two" unicode="2" horiz-adv-x="1150" 
d="M-51 0l39 227l620 457q57 43 83.5 63.5t70 60t64 68.5t37 70t16.5 82q0 85 -52 128.5t-141 43.5q-110 0 -183.5 -70.5t-96.5 -201.5h-297q45 257 197 388.5t388 131.5q233 0 357.5 -107.5t124.5 -291.5q0 -89 -28 -167t-83.5 -145.5t-120.5 -122.5t-156 -116l-364 -250
h623l-46 -248h-1052z" />
    <glyph glyph-name="three" unicode="3" horiz-adv-x="1198" 
d="M526 -12q-235 0 -375.5 113.5t-140.5 306.5q0 42 8 69h289q-2 -16 -2 -37q0 -106 66 -163.5t176 -57.5q125 0 201.5 62.5t76.5 158.5q0 78 -55 123t-168 45h-156l43 236h132q132 0 207 57t75 150q0 77 -60 120t-153 43q-237 0 -284 -213h-285q42 223 186 334t406 111
q216 0 351.5 -99.5t135.5 -256.5q0 -143 -89 -233t-241 -126q111 -29 179.5 -98.5t68.5 -186.5q0 -109 -46.5 -196.5t-127.5 -144t-188 -87t-230 -30.5z" />
    <glyph glyph-name="four" unicode="4" horiz-adv-x="1241" 
d="M-12 307l41 252l770 875h387l-156 -881h197l-43 -246h-197l-53 -307h-291l55 307h-710zM850 1147l-533 -594h424z" />
    <glyph glyph-name="five" unicode="5" horiz-adv-x="1206" 
d="M1229 1434l-43 -248h-672l-65 -295q118 86 272 86q190 0 312 -115t122 -303q0 -169 -77 -299.5t-213 -201t-308 -70.5q-116 0 -212 33.5t-159.5 91.5t-98 136.5t-34.5 168.5q0 8 1 21.5t1 17.5h291v-13q-1 -97 63 -156t164 -59q129 0 208 86.5t79 216.5q0 95 -60.5 153
t-154.5 58q-175 0 -258 -159l-289 12l189 838h942z" />
    <glyph glyph-name="six" unicode="6" horiz-adv-x="1251" 
d="M604 -12q-137 0 -246.5 57t-173.5 156q-92 145 -92 350q0 262 77 462t235 316.5t380 116.5q226 0 352.5 -112.5t120.5 -303.5h-284q-14 90 -64.5 134t-144.5 44q-296 0 -367 -403q-1 -6 -2 -17t-2 -16q57 87 153 134.5t214 47.5q195 0 311.5 -109.5t116.5 -291.5
q0 -249 -162.5 -407t-421.5 -158zM614 219q126 0 203.5 83t77.5 210q0 94 -58 154.5t-155 60.5q-124 0 -204.5 -82.5t-78.5 -208.5q2 -91 61 -154t154 -63z" />
    <glyph glyph-name="seven" unicode="7" horiz-adv-x="1105" 
d="M111 1184l43 250h1056l-28 -191l-832 -1243h-332l816 1184h-723z" />
    <glyph glyph-name="eight" unicode="8" horiz-adv-x="1245" 
d="M926 739q100 -28 165.5 -109t65.5 -202q0 -106 -46.5 -191t-128 -138.5t-188.5 -82t-231 -28.5q-240 0 -381 105.5t-141 266.5t100.5 265.5t261.5 128.5q-86 30 -144 105t-58 179q0 127 74.5 221t199.5 140.5t283 46.5q219 0 350 -99t131 -251q0 -136 -90.5 -232.5
t-222.5 -124.5zM737 1237q-104 0 -176 -59t-72 -150q0 -76 54.5 -119t156.5 -43q105 0 177.5 59t72.5 150q0 75 -59.5 118.5t-153.5 43.5zM571 195q131 0 212 69t81 176q0 81 -66.5 134t-168.5 53q-130 0 -211.5 -70t-81.5 -174q0 -84 66.5 -136t168.5 -52z" />
    <glyph glyph-name="nine" unicode="9" horiz-adv-x="1251" 
d="M715 1446q137 0 246.5 -56.5t173.5 -156.5q92 -145 92 -350q0 -196 -43.5 -358.5t-127.5 -283t-215 -187t-298 -66.5q-228 0 -358 112t-124 303h285q14 -90 68 -134t155 -44q79 0 140 29.5t102 86t67.5 126.5t43.5 162q1 6 2 17t2 16q-57 -87 -153 -135t-214 -48
q-195 0 -311.5 110t-116.5 292q0 249 163 407t421 158zM705 1214q-126 0 -203.5 -83t-77.5 -209q0 -94 58 -154.5t155 -60.5q124 0 204.5 82t78.5 208q-2 91 -61 154t-154 63z" />
    <glyph glyph-name="A" unicode="A" horiz-adv-x="1411" 
d="M1311 0h-316l-51 313h-534l-162 -313h-332l768 1434h367zM817 1102l-280 -541h370z" />
    <glyph glyph-name="B" unicode="B" horiz-adv-x="1298" 
d="M29 0l254 1434h522q221 0 343 -95.5t122 -257.5q0 -152 -81 -240t-226 -114q249 -49 249 -291q0 -111 -46.5 -195.5t-130 -136.5t-192.5 -78t-241 -26h-573zM776 1192h-229l-62 -348h246q109 0 172.5 52t63.5 142q0 73 -49 113.5t-142 40.5zM698 606h-256l-63 -362h268
q122 0 190 52t68 148q0 76 -53.5 119t-153.5 43z" />
    <glyph glyph-name="C" unicode="C" horiz-adv-x="1425" 
d="M705 -12q-187 0 -327 80t-213 220t-73 320q0 174 56 327t156.5 266.5t250 179t328.5 65.5q256 0 405 -142.5t152 -377.5h-303q-9 120 -86 190t-205 70q-100 0 -185 -48.5t-140.5 -129t-86.5 -184t-31 -214.5q0 -159 85.5 -260.5t224.5 -101.5q247 0 354 264h307
q-66 -246 -243 -385t-426 -139z" />
    <glyph glyph-name="D" unicode="D" horiz-adv-x="1431" 
d="M557 0h-528l254 1434h436q320 0 502 -168.5t182 -450.5q0 -376 -225.5 -595.5t-620.5 -219.5zM543 1178l-162 -922h211q157 0 272 72.5t172.5 194.5t57.5 278q0 179 -104.5 278t-289.5 99h-157z" />
    <glyph glyph-name="E" unicode="E" horiz-adv-x="1159" 
d="M29 0l254 1434h950l-47 -265h-643l-58 -321h523l-45 -252h-521l-59 -332h668l-47 -264h-975z" />
    <glyph glyph-name="F" unicode="F" horiz-adv-x="1101" 
d="M29 0l254 1434h936l-48 -265h-628l-60 -335h514l-45 -252h-514l-102 -582h-307z" />
    <glyph glyph-name="G" unicode="G" horiz-adv-x="1527" 
d="M885 1446q168 0 297 -59.5t204 -179t76 -283.5h-295q-6 124 -87 193t-208 69q-110 0 -200 -47t-148 -127.5t-89.5 -183.5t-31.5 -218q0 -162 89 -262t239 -100q136 0 243 74t144 213l2 18h-352l43 244h641l-139 -795h-213l-2 170q-164 -182 -418 -182q-268 0 -429 167
t-161 441q0 179 56.5 335t158.5 269.5t252 178.5t328 65z" />
    <glyph glyph-name="H" unicode="H" horiz-adv-x="1415" 
d="M29 0l254 1434h307l-103 -576h557l103 576h307l-254 -1434h-307l106 592h-557l-106 -592h-307z" />
    <glyph glyph-name="I" unicode="I" horiz-adv-x="550" 
d="M29 0l254 1434h307l-254 -1434h-307z" />
    <glyph glyph-name="J" unicode="J" horiz-adv-x="808" 
d="M365 449l174 985h307l-187 -1063q-32 -181 -145 -276t-295 -95h-266l47 264h156q178 0 209 185z" />
    <glyph glyph-name="K" unicode="K" horiz-adv-x="1402" 
d="M1139 1434h393l-627 -594l404 -840h-336l-301 623l-264 -246l-72 -377h-307l254 1434h307l-115 -629z" />
    <glyph glyph-name="L" unicode="L" horiz-adv-x="1034" 
d="M901 0h-872l254 1434h307l-207 -1170h565z" />
    <glyph glyph-name="M" unicode="M" horiz-adv-x="1826" 
d="M29 0l254 1434h397l211 -1053l573 1053h400l-252 -1434h-295l172 961l-541 -961h-250l-204 961l-170 -961h-295z" />
    <glyph glyph-name="N" unicode="N" horiz-adv-x="1429" 
d="M332 0h-303l254 1434h270l448 -910l166 910h301l-251 -1434h-277l-446 903z" />
    <glyph glyph-name="O" unicode="O" horiz-adv-x="1538" 
d="M719 -12q-186 0 -329.5 80t-220.5 220.5t-77 317.5q0 175 58 329.5t161 267t252 178t322 65.5q186 0 330 -80.5t221 -221t77 -317.5q0 -175 -58 -329.5t-161 -267t-252 -177.5t-323 -65zM735 246q141 0 249.5 81t164 210.5t55.5 281.5q0 161 -90.5 265t-243.5 104
q-107 0 -196.5 -47.5t-148.5 -126.5t-91.5 -182t-32.5 -216q0 -162 90 -266t244 -104z" />
    <glyph glyph-name="P" unicode="P" horiz-adv-x="1265" 
d="M29 0l254 1434h526q225 0 356 -119t131 -303q0 -167 -77.5 -288.5t-211 -182t-307.5 -60.5h-278l-86 -481h-307zM778 1178h-235l-76 -441h238q128 0 204 65.5t76 184.5q0 93 -54.5 142t-152.5 49z" />
    <glyph glyph-name="Q" unicode="Q" horiz-adv-x="1542" 
d="M1323 266q8 -2 25 -2h149l-49 -264h-139q-77 0 -118.5 22.5t-74.5 65.5q-183 -100 -397 -100q-186 0 -329.5 80t-220.5 220.5t-77 317.5q0 175 58 329.5t161 267t252 178t322 65.5q186 0 330 -80.5t221 -221t77 -317.5q0 -162 -49.5 -306t-140.5 -255zM401 616
q0 -162 90 -266t244 -104q126 0 223 63l-28 39q-22 31 -40 43t-50 12h-142l43 261h148q18 0 34 -2t28.5 -4t25 -8t20.5 -9t18.5 -12.5t15 -13t14 -15.5t12 -15t12.5 -17.5t12 -16.5l43 -59q80 147 80 327q0 161 -90.5 265t-243.5 104q-107 0 -196.5 -47.5t-148.5 -126.5
t-91.5 -182t-32.5 -216z" />
    <glyph glyph-name="R" unicode="R" horiz-adv-x="1302" 
d="M1300 1012q0 -178 -85 -302t-236 -182l188 -528h-325l-164 481h-256l-86 -481h-307l254 1434h530q225 0 356 -119t131 -303zM780 1178h-237l-76 -441h242q128 0 204 67.5t76 186.5q0 90 -55 138.5t-154 48.5z" />
    <glyph glyph-name="S" unicode="S" horiz-adv-x="1267" 
d="M600 -12q-252 0 -400.5 131t-148.5 352l299 -4q6 -116 80 -176t186 -60q118 0 188 45.5t70 133.5q0 69 -66 110t-230 84q-197 53 -301.5 148t-104.5 258q0 145 74 245t199 145.5t294 45.5q230 0 373.5 -119.5t144.5 -327.5h-299q-2 91 -65 146t-168 55
q-109 0 -173.5 -43.5t-64.5 -126.5q0 -66 62 -106.5t215 -81.5q211 -54 319.5 -145.5t108.5 -243.5q0 -113 -44.5 -202.5t-124 -146.5t-187 -86.5t-236.5 -29.5z" />
    <glyph glyph-name="T" unicode="T" horiz-adv-x="1214" 
d="M156 1169l45 265h1130l-45 -265h-412l-206 -1169h-308l207 1169h-411z" />
    <glyph glyph-name="U" unicode="U" horiz-adv-x="1396" 
d="M131 629l141 805h308l-148 -842q-10 -58 -10 -96q0 -118 62 -181t180 -63q141 0 218.5 91t108.5 269l146 822h307l-146 -826q-56 -311 -211.5 -465.5t-445.5 -154.5q-255 0 -389.5 123.5t-134.5 353.5q0 84 14 164z" />
    <glyph glyph-name="V" unicode="V" horiz-adv-x="1343" 
d="M633 373l541 1061h327l-739 -1434h-367l-233 1434h315z" />
    <glyph glyph-name="W" unicode="W" horiz-adv-x="2000" 
d="M313 0l-141 1434l313 2l76 -1049l461 1047h276l78 -1047l457 1047h315l-649 -1434h-354l-72 952l-405 -952h-355z" />
    <glyph glyph-name="X" unicode="X" horiz-adv-x="1349" 
d="M530 745l-317 685l332 4l207 -465l356 465h373l-580 -715l338 -719h-334l-223 498l-383 -498h-373z" />
    <glyph glyph-name="Y" unicode="Y" horiz-adv-x="1351" 
d="M721 834l442 600h348l-682 -902l-98 -532h-305l98 532l-362 902h334z" />
    <glyph glyph-name="Z" unicode="Z" horiz-adv-x="1265" 
d="M186 1171l45 263h1125l-33 -203l-889 -969h735l-47 -262h-1161l33 203l891 968h-699z" />
    <glyph glyph-name="a" unicode="a" horiz-adv-x="1138" 
d="M1036 244h41l-43 -244h-139q-88 0 -132 37t-44 98v2q-65 -76 -144.5 -112.5t-193.5 -36.5q-158 0 -261.5 76t-103.5 217q0 184 129.5 275t364.5 91h254l6 39q6 24 6 51q0 56 -46 86.5t-122 30.5q-98 0 -144 -33t-67 -96h-288q88 340 520 340q126 0 220.5 -34t151 -109
t56.5 -185q0 -42 -10 -104l-54 -301q-6 -27 -6 -43q0 -45 49 -45zM446 197q116 0 188.5 67.5t92.5 173.5l2 17h-213q-207 0 -207 -146q0 -53 38.5 -82.5t98.5 -29.5z" />
    <glyph glyph-name="b" unicode="b" 
d="M756 1065q188 0 309 -130t121 -329q0 -129 -45 -244t-120.5 -196.5t-178.5 -129.5t-217 -48q-219 0 -312 147l-51 -135h-254l252 1434h289l-84 -486q117 117 291 117zM588 223q134 0 219.5 108t85.5 253q0 119 -57.5 182t-155.5 63q-91 0 -162.5 -52t-108 -133.5
t-36.5 -174.5q0 -119 58.5 -182.5t156.5 -63.5z" />
    <glyph glyph-name="c" unicode="c" horiz-adv-x="1161" 
d="M793 399h299q-109 -411 -545 -411q-220 0 -355 132t-135 335q0 279 160.5 444.5t433.5 165.5q212 0 342.5 -114t128.5 -292h-291q-8 77 -59.5 123.5t-132.5 46.5q-88 0 -156 -53t-101.5 -134t-33.5 -173q0 -111 59 -178.5t158 -67.5q82 0 140 46t88 130z" />
    <glyph glyph-name="d" unicode="d" 
d="M924 924l88 510h288l-253 -1434h-238l-6 137q-119 -149 -320 -149q-188 0 -309 129.5t-121 328.5q0 172 75.5 314.5t204 223.5t281.5 81q217 0 310 -141zM559 223q91 0 162.5 52t108 134t36.5 175q0 118 -58.5 181.5t-156.5 63.5q-91 0 -162 -52t-107 -133.5t-36 -174.5
q0 -119 57.5 -182.5t155.5 -63.5z" />
    <glyph glyph-name="e" unicode="e" horiz-adv-x="1177" 
d="M651 1065q218 0 345.5 -122t127.5 -318q0 -99 -18 -166h-762q-2 -8 -2 -23q0 -95 56 -162t167 -67q92 0 145.5 37t86.5 112h286q-40 -167 -182 -267.5t-342 -100.5q-236 0 -369 132.5t-133 340.5q0 266 162 435t432 169zM379 649h452v23q0 88 -52.5 133t-143.5 45
q-94 0 -162 -56t-94 -145z" />
    <glyph glyph-name="f" unicode="f" horiz-adv-x="735" 
d="M51 809l43 244h174l17 90q28 145 106.5 218t239.5 73h252l-43 -246h-164q-55 0 -80 -20.5t-31 -65.5l-8 -49h264l-43 -244h-264l-143 -809h-289l143 809h-174z" />
    <glyph glyph-name="g" unicode="g" horiz-adv-x="1241" 
d="M932 903l53 150h248l-182 -1033q-14 -82 -39.5 -146.5t-70.5 -121t-108 -94t-154.5 -59t-207.5 -21.5q-221 0 -355 96.5t-134 278.5h284q6 -79 66 -117.5t157 -38.5q252 0 291 254l13 72q-121 -135 -306 -135q-189 0 -311.5 130t-122.5 328q0 172 75.5 314.5t204 223.5
t281.5 81q230 0 318 -162zM559 223q91 0 162.5 52t108 134t36.5 175q0 118 -58.5 181.5t-156.5 63.5q-91 0 -162 -52t-107 -133.5t-36 -174.5q0 -119 57.5 -182.5t155.5 -63.5z" />
    <glyph glyph-name="h" unicode="h" horiz-adv-x="1202" 
d="M768 1065q74 0 138 -19.5t117.5 -60t84.5 -113.5t31 -170q0 -64 -15 -141l-98 -561h-289l99 559q10 62 10 107q0 78 -44.5 119.5t-127.5 41.5q-115 0 -186.5 -78t-98.5 -221l-92 -528h-289l252 1434h289l-84 -490q131 121 303 121z" />
    <glyph glyph-name="i" unicode="i" horiz-adv-x="489" 
d="M375 1165q-69 0 -112.5 42t-43.5 108q0 74 52 125t126 51q69 0 112.5 -42t43.5 -108q0 -74 -52 -125t-126 -51zM8 0l185 1053h290l-186 -1053h-289z" />
    <glyph glyph-name="j" unicode="j" horiz-adv-x="499" 
d="M385 1165q-69 0 -112.5 42t-43.5 108q0 74 52.5 125t126.5 51q69 0 112 -42t43 -108q0 -74 -52 -125t-126 -51zM-260 -410l43 244h94q61 0 92.5 31.5t40.5 95.5l195 1092h289l-205 -1153q-25 -149 -112.5 -229.5t-235.5 -80.5h-201z" />
    <glyph glyph-name="k" unicode="k" horiz-adv-x="1144" 
d="M8 0l252 1434h289l-148 -822l482 441h352l-469 -430l283 -623h-310l-192 432l-205 -184l-45 -248h-289z" />
    <glyph glyph-name="l" unicode="l" horiz-adv-x="487" 
d="M8 0l252 1434h289l-256 -1434h-285z" />
    <glyph glyph-name="m" unicode="m" horiz-adv-x="1826" 
d="M1407 1065q72 0 133.5 -18t113 -56t81.5 -105.5t30 -158.5q0 -75 -14 -160l-100 -567h-289l100 569q13 67 13 113q0 67 -39.5 106t-110.5 39q-99 0 -166 -74.5t-90 -211.5l-96 -541h-289l100 569q13 67 13 113q0 67 -39.5 106t-110.5 39q-98 0 -165.5 -76t-90.5 -212
l-94 -539h-289l185 1053h251l5 -119q59 64 128 97.5t168 33.5q100 0 179.5 -43t115.5 -133q129 176 367 176z" />
    <glyph glyph-name="n" unicode="n" horiz-adv-x="1202" 
d="M768 1065q57 0 109 -11.5t100.5 -39t84 -68t56.5 -103.5t21 -141q0 -64 -15 -141l-98 -561h-289l99 559q10 62 10 107q0 78 -44.5 119.5t-127.5 41.5q-116 0 -187 -78t-98 -221l-92 -528h-289l185 1053h251l5 -119q131 131 319 131z" />
    <glyph glyph-name="o" unicode="o" horiz-adv-x="1216" 
d="M545 -12q-217 0 -352.5 133.5t-135.5 337.5q0 276 169.5 441t445.5 165q217 0 352 -133.5t135 -337.5q0 -276 -169 -441t-445 -165zM567 223q139 0 221 105.5t82 257.5q0 106 -62 174.5t-161 68.5q-139 0 -220 -106t-81 -256q0 -106 62 -175t159 -69z" />
    <glyph glyph-name="p" unicode="p" 
d="M756 1065q188 0 309 -131t121 -330q0 -129 -44.5 -243.5t-120.5 -196t-179 -129t-217 -47.5q-218 0 -310 143l-92 -541h-289l259 1463h237l4 -140q125 152 322 152zM588 223q134 0 219.5 108t85.5 253q0 119 -57.5 182t-155.5 63q-91 0 -162.5 -52t-108 -133.5
t-36.5 -174.5q0 -119 58.5 -182.5t156.5 -63.5z" />
    <glyph glyph-name="q" unicode="q" 
d="M930 913l51 140h250l-256 -1463h-279l90 527q-119 -129 -303 -129q-188 0 -309 129.5t-121 328.5q0 172 75.5 314.5t204 223.5t281.5 81q222 0 316 -152zM559 223q91 0 162.5 52t108 134t36.5 175q0 118 -58.5 181.5t-156.5 63.5q-91 0 -162 -52t-107 -133.5t-36 -174.5
q0 -119 57.5 -182.5t155.5 -63.5z" />
    <glyph glyph-name="r" unicode="r" horiz-adv-x="774" 
d="M776 1053h60l-48 -262h-106q-123 0 -198.5 -78.5t-98.5 -206.5l-88 -506h-289l185 1053h262v-144q58 71 132.5 107.5t188.5 36.5z" />
    <glyph glyph-name="s" unicode="s" horiz-adv-x="1073" 
d="M584 1067q199 0 325.5 -90t126.5 -254h-272q0 67 -47.5 103t-134.5 36q-92 0 -144.5 -29.5t-52.5 -80.5q0 -43 45.5 -65t132.5 -34q49 -7 86.5 -13.5t83.5 -19t80 -27.5t68 -38t55.5 -51.5t35 -67.5t13.5 -86q0 -92 -40 -163t-110.5 -113.5t-160 -64t-195.5 -21.5
q-209 0 -334 93.5t-125 272.5h269q3 -80 56.5 -119.5t141.5 -39.5q213 0 213 120q0 46 -46.5 69.5t-149.5 39.5q-70 12 -118.5 23t-106 33.5t-92.5 51.5t-59 76.5t-24 108.5q0 165 131.5 257.5t348.5 92.5z" />
    <glyph glyph-name="t" unicode="t" horiz-adv-x="745" 
d="M139 322l86 487h-174l43 244h174l51 295h289l-51 -295h240l-43 -244h-240l-82 -463q-4 -24 -4 -41q0 -32 18.5 -46.5t61.5 -14.5h154l-44 -244h-212q-136 0 -206.5 58t-70.5 173q0 29 10 91z" />
    <glyph glyph-name="u" unicode="u" horiz-adv-x="1193" 
d="M807 539l90 514h289l-185 -1053h-253l-5 117q-129 -129 -321 -129q-72 0 -133 19t-112.5 59t-81 111t-29.5 167q0 77 14 148l98 561h289l-98 -564q-13 -80 -13 -108q0 -76 43 -116t123 -40q112 0 185 82.5t100 231.5z" />
    <glyph glyph-name="v" unicode="v" horiz-adv-x="1112" 
d="M504 289l389 764h313l-563 -1053h-358l-195 1053h297z" />
    <glyph glyph-name="w" unicode="w" horiz-adv-x="1679" 
d="M252 0l-160 1053h301l80 -742l332 742h258l59 -744l348 744h302l-533 -1053h-307l-70 635l-303 -635h-307z" />
    <glyph glyph-name="x" unicode="x" horiz-adv-x="1116" 
d="M879 1053h325l-471 -525l295 -528h-313l-185 332l-301 -332h-325l502 555l-277 498h313l168 -301z" />
    <glyph glyph-name="y" unicode="y" horiz-adv-x="1118" 
d="M305 -6l-215 1059h301l119 -754l387 754h313l-678 -1213q-76 -138 -146.5 -194t-188.5 -56h-275l43 244h152q56 0 88 19t61 71z" />
    <glyph glyph-name="z" unicode="z" horiz-adv-x="1024" 
d="M121 809l43 244h887l-31 -197l-631 -612h543l-43 -244h-934l31 197l630 612h-495z" />
    </font>
</defs>
</svg>
