<?xml version="1.0" standalone="no"?>
<!DOCTYPE svg PUBLIC "-//W3C//DTD SVG 1.1//EN" "http://www.w3.org/Graphics/SVG/1.1/DTD/svg11.dtd" >
<svg xmlns="http://www.w3.org/2000/svg" xmlns:xlink="http://www.w3.org/1999/xlink" version="1.1">
<metadata>
Created by FontForge 20201107 at Sat Sep 14 01:21:41 2024
 By 
Copyright (c) 2020 CoType Foundry. All Rights Reserved.
</metadata>
<defs>
<font id="AeonikTRIAL-LightItalic" horiz-adv-x="1107" >
  <font-face 
    font-family="Aeonik TRIAL Light"
    font-weight="300"
    font-style="italic"
    font-stretch="normal"
    units-per-em="2048"
    panose-1="2 11 4 3 3 3 0 0 0 0"
    ascent="1638"
    descent="-410"
    x-height="1038"
    cap-height="1434"
    bbox="-295 -422 2066 1475"
    underline-thickness="77"
    underline-position="-408"
    slope="-10"
    unicode-range="U+0020-007A"
  />
<missing-glyph horiz-adv-x="1232" 
d="M123 -223v1698h1024v-1698h-1024zM444 1294q-84 0 -129 -49t-45 -135t45 -135t129 -49q66 0 106.5 38t45.5 99h-94q-13 -59 -62 -59q-71 0 -71 106q0 107 71 107q48 0 62 -62h94q-5 63 -45.5 101t-106.5 38zM807 1294q-81 0 -129.5 -52t-48.5 -132q0 -81 48 -132.5
t130 -51.5q81 0 129.5 51.5t48.5 132.5q0 80 -49 132t-129 52zM807 1004q-39 0 -59.5 29.5t-20.5 76.5q0 48 21 77.5t59 29.5t59 -29.5t21 -77.5q0 -47 -20.5 -76.5t-59.5 -29.5zM590 819h-299v-82h100v-282h96v282h103v82zM854 455v135l131 229h-106l-72 -133l-68 133h-112
l131 -229v-135h96zM416 94h57q62 0 99.5 34t37.5 91q0 58 -37.5 92.5t-99.5 34.5h-151v-364h94v112zM692 -18h256v81h-160v64h123v76h-123v61h154v82h-250v-364zM416 268h49q22 0 35.5 -13t13.5 -36q0 -22 -13.5 -34.5t-35.5 -12.5h-49v96z" />
    <glyph glyph-name=".notdef" horiz-adv-x="1232" 
d="M123 -223v1698h1024v-1698h-1024zM444 1294q-84 0 -129 -49t-45 -135t45 -135t129 -49q66 0 106.5 38t45.5 99h-94q-13 -59 -62 -59q-71 0 -71 106q0 107 71 107q48 0 62 -62h94q-5 63 -45.5 101t-106.5 38zM807 1294q-81 0 -129.5 -52t-48.5 -132q0 -81 48 -132.5
t130 -51.5q81 0 129.5 51.5t48.5 132.5q0 80 -49 132t-129 52zM807 1004q-39 0 -59.5 29.5t-20.5 76.5q0 48 21 77.5t59 29.5t59 -29.5t21 -77.5q0 -47 -20.5 -76.5t-59.5 -29.5zM590 819h-299v-82h100v-282h96v282h103v82zM854 455v135l131 229h-106l-72 -133l-68 133h-112
l131 -229v-135h96zM416 94h57q62 0 99.5 34t37.5 91q0 58 -37.5 92.5t-99.5 34.5h-151v-364h94v112zM692 -18h256v81h-160v64h123v76h-123v61h154v82h-250v-364zM416 268h49q22 0 35.5 -13t13.5 -36q0 -22 -13.5 -34.5t-35.5 -12.5h-49v96z" />
    <glyph glyph-name=".null" horiz-adv-x="0" 
 />
    <glyph glyph-name="nonmarkingreturn" horiz-adv-x="682" 
 />
    <glyph glyph-name="space" unicode=" " horiz-adv-x="552" 
 />
    <glyph glyph-name="comma" unicode="," horiz-adv-x="376" 
d="M92 143q49 0 77 -37.5t28 -97.5q0 -111 -76 -188.5t-195 -81.5l4 61q80 6 130.5 53t58.5 109q4 33 -8 53q-16 -24 -50 -24q-30 0 -48.5 17t-18.5 48q0 37 27.5 62.5t70.5 25.5z" />
    <glyph glyph-name="hyphen" unicode="-" horiz-adv-x="903" 
d="M784 539h-661l14 86h662z" />
    <glyph glyph-name="period" unicode="." horiz-adv-x="376" 
d="M119 143q31 0 49 -18t18 -47q0 -37 -27 -62.5t-63 -25.5q-31 2 -49 20t-18 47q0 37 27 61.5t63 24.5z" />
    <glyph glyph-name="zero" unicode="0" horiz-adv-x="1239" 
d="M547 -12q-195 0 -309 137t-119 369q-3 138 22.5 275t80 258.5t131 215t183 148.5t228.5 55q193 0 307 -138t119 -370q3 -138 -23 -275t-81 -258t-131.5 -214.5t-182 -148t-225.5 -54.5zM549 86q100 0 187 49t149 131.5t107 189t67 222.5t22 231q0 209 -83.5 324
t-237.5 115q-100 0 -187 -49t-149.5 -131.5t-107.5 -189t-67 -223.5t-22 -233q0 -206 84.5 -321t237.5 -115z" />
    <glyph glyph-name="one" unicode="1" horiz-adv-x="608" 
d="M473 1245l35 189h104l-254 -1434h-106l190 1067q-31 -31 -98 -31h-248l17 97h241q46 0 78 30.5t41 81.5z" />
    <glyph glyph-name="two" unicode="2" horiz-adv-x="1069" 
d="M-49 0l14 92l645 498q70 54 109 86.5t94 86t84 98t50.5 103.5t21.5 121q0 123 -84.5 194t-225.5 71q-169 0 -276.5 -102t-140.5 -285h-107q43 239 177.5 361t353.5 122q194 0 302.5 -98t108.5 -258q0 -74 -24 -144t-59 -123.5t-96 -114t-111 -101t-128 -99.5l-540 -410
h807l-19 -98h-956z" />
    <glyph glyph-name="three" unicode="3" horiz-adv-x="1132" 
d="M502 -12q-210 0 -341.5 105.5t-131.5 275.5q0 33 2 49h106v-29q0 -139 101.5 -222t267.5 -83q185 0 299.5 97t114.5 249q0 119 -93 187.5t-260 68.5h-116l16 92h104q197 0 312.5 86.5t115.5 229.5q0 118 -92.5 187t-236.5 69q-163 0 -271.5 -80.5t-134.5 -220.5h-106
q35 193 170.5 295t349.5 102q190 0 311 -96.5t121 -249.5q0 -145 -98 -243t-260 -126q124 -19 200 -97.5t76 -201.5q0 -200 -148 -322t-378 -122z" />
    <glyph glyph-name="four" unicode="4" horiz-adv-x="1175" 
d="M6 377l17 108l899 949h149l-170 -959h244l-17 -98h-245l-66 -377h-108l67 377h-770zM942 1311l-797 -836h650z" />
    <glyph glyph-name="five" unicode="5" horiz-adv-x="1132" 
d="M1128 1434l-18 -99h-707l-133 -540q139 155 351 155q192 0 313 -112t121 -295q0 -157 -67.5 -283.5t-190 -199t-277.5 -72.5q-104 0 -190 31.5t-142.5 86t-87 126t-30.5 151.5v37h104v-19q0 -139 93.5 -227t256.5 -88q186 0 305 128t119 316q0 147 -94 235.5t-248 88.5
q-121 0 -217.5 -59.5t-155.5 -167.5l-104 6l193 801h806z" />
    <glyph glyph-name="six" unicode="6" horiz-adv-x="1206" 
d="M569 -12q-134 0 -234 61t-149 164q-63 117 -63 291q0 281 77.5 493.5t226 330.5t349.5 118q189 0 302.5 -104t109.5 -281h-105q-4 138 -86 214.5t-225 76.5q-100 0 -183.5 -38.5t-143 -104t-103.5 -156t-69 -192t-35 -214.5q-2 -25 -2 -49q40 153 167.5 247.5t294.5 94.5
q186 0 301 -112t115 -285q0 -156 -69 -282.5t-194 -199.5t-282 -73zM573 82q192 0 313.5 129t121.5 321q0 136 -89 224t-237 88q-192 0 -316.5 -127.5t-121.5 -317.5q2 -136 92.5 -226.5t236.5 -90.5z" />
    <glyph glyph-name="seven" unicode="7" horiz-adv-x="1009" 
d="M111 1335l18 99h993l-12 -78l-909 -1356h-129l905 1335h-866z" />
    <glyph glyph-name="eight" unicode="8" horiz-adv-x="1196" 
d="M813 737q121 -27 192.5 -108.5t71.5 -202.5q0 -134 -74 -235t-198 -152t-279 -51q-206 0 -331 96t-125 246q0 170 111.5 279.5t283.5 135.5q-100 22 -164.5 100t-64.5 189q0 187 141 299.5t364 112.5q186 0 301 -95t115 -237q0 -151 -99 -252.5t-245 -124.5zM340 1038
q0 -112 84.5 -178.5t237.5 -66.5q166 -2 278.5 86t112.5 231q0 108 -91.5 177t-234.5 69q-164 0 -275.5 -89t-111.5 -229zM530 78q195 0 319 95t124 251q0 114 -95.5 188.5t-250.5 75.5q-126 1 -228 -39.5t-163.5 -121t-61.5 -187.5q0 -114 99 -188t257 -74z" />
    <glyph glyph-name="nine" unicode="9" horiz-adv-x="1206" 
d="M707 1446q135 0 235.5 -60.5t147.5 -164.5q65 -121 65 -291q0 -281 -78 -493.5t-227 -330.5t-350 -118q-189 0 -302 104t-110 281h105q4 -138 86 -214.5t225 -76.5q124 0 222 57.5t161 158t101 222.5t52 266q2 25 2 50q-40 -153 -168 -247.5t-296 -94.5q-186 0 -301 112
t-115 285q0 156 69 282.5t194 199.5t282 73zM702 1352q-192 0 -312 -129.5t-120 -321.5q0 -136 88.5 -223.5t237.5 -87.5q193 0 317 127t121 317q-2 136 -93.5 227t-238.5 91z" />
    <glyph glyph-name="A" unicode="A" horiz-adv-x="1292" 
d="M1169 0h-110l-90 438h-664l-244 -438h-122l806 1434h129zM793 1311l-433 -770h590z" />
    <glyph glyph-name="B" unicode="B" horiz-adv-x="1232" 
d="M55 0l254 1434h465q192 0 298 -86.5t106 -237.5q0 -153 -87 -249.5t-243 -129.5q133 -22 203.5 -95t70.5 -194q0 -145 -74 -246t-199.5 -148.5t-293.5 -47.5h-500zM768 1333h-367l-98 -551h387q174 0 275.5 85t101.5 235q0 107 -77 169t-222 62zM662 682h-375l-103 -582
h396q201 0 315.5 87t114.5 253q0 118 -89.5 180t-258.5 62z" />
    <glyph glyph-name="C" unicode="C" horiz-adv-x="1417" 
d="M698 -12q-256 0 -415.5 168t-159.5 434q0 172 54 327.5t149.5 272.5t238 186.5t309.5 69.5q232 0 371 -120t154 -335h-107q-23 170 -132.5 261t-293.5 91q-142 0 -262.5 -62.5t-200 -167t-123.5 -240t-44 -283.5q0 -221 129.5 -360.5t334.5 -139.5q182 0 306 88t202 264
h111q-170 -454 -621 -454z" />
    <glyph glyph-name="D" unicode="D" horiz-adv-x="1384" 
d="M481 0h-426l254 1434h357q311 0 487 -165.5t176 -437.5q0 -183 -60 -337t-168.5 -263t-268 -170t-351.5 -61zM399 1331l-215 -1229h305q331 0 529.5 200t198.5 527q0 237 -147 369.5t-413 132.5h-258z" />
    <glyph glyph-name="E" unicode="E" 
d="M55 0l252 1434h871l-19 -103h-760l-96 -547h637l-18 -102h-635l-105 -580h789l-19 -102h-897z" />
    <glyph glyph-name="F" unicode="F" horiz-adv-x="1034" 
d="M55 0l254 1434h840l-21 -103h-729l-98 -567h604l-18 -102h-604l-117 -662h-111z" />
    <glyph glyph-name="G" unicode="G" horiz-adv-x="1507" 
d="M897 1446q233 0 372.5 -120t149.5 -333h-106q-19 170 -130 260t-292 90q-147 0 -272 -62.5t-208.5 -167.5t-130.5 -243t-47 -288q0 -215 130 -353.5t335 -138.5q117 0 216 38t169.5 105t117 155.5t65.5 193.5l10 63h-469l18 103h576l-131 -748h-96l45 305
q-164 -317 -525 -317q-255 0 -414 167.5t-159 428.5q0 174 55.5 331t155 274.5t246.5 187t319 69.5z" />
    <glyph glyph-name="H" unicode="H" horiz-adv-x="1333" 
d="M55 0l254 1434h111l-117 -652h817l115 652h111l-254 -1434h-111l121 680h-815l-121 -680h-111z" />
    <glyph glyph-name="I" unicode="I" horiz-adv-x="405" 
d="M55 0l254 1434h111l-254 -1434h-111z" />
    <glyph glyph-name="J" unicode="J" horiz-adv-x="692" 
d="M397 307l199 1127h111l-201 -1139q-28 -151 -113.5 -223t-234.5 -72h-195l21 102h172q106 0 164 49.5t77 155.5z" />
    <glyph glyph-name="K" unicode="K" horiz-adv-x="1257" 
d="M1202 1434h146l-631 -603l420 -831h-125l-381 752l-398 -375l-67 -377h-111l254 1434h111l-162 -895z" />
    <glyph glyph-name="L" unicode="L" horiz-adv-x="985" 
d="M852 0h-797l254 1434h111l-236 -1332h686z" />
    <glyph glyph-name="M" unicode="M" horiz-adv-x="1685" 
d="M55 0l254 1434h140l325 -1284l780 1284h144l-254 -1434h-107l222 1247l-758 -1247h-99l-319 1247l-221 -1247h-107z" />
    <glyph glyph-name="N" unicode="N" horiz-adv-x="1355" 
d="M162 0h-107l254 1434h92l637 -1246l224 1246h108l-254 -1434h-102l-633 1233z" />
    <glyph glyph-name="O" unicode="O" horiz-adv-x="1523" 
d="M717 -12q-180 0 -315.5 78t-207 216t-71.5 316q0 228 93.5 421t268 310t392.5 117q179 0 314 -78t206 -215.5t71 -316.5q0 -228 -93.5 -421t-267 -310t-390.5 -117zM721 88q141 0 261.5 61t202 163.5t127.5 238.5t46 285q0 228 -132.5 369t-355.5 141q-141 0 -261 -61
t-201 -163.5t-126.5 -238.5t-45.5 -285q0 -228 131.5 -369t353.5 -141z" />
    <glyph glyph-name="P" unicode="P" horiz-adv-x="1183" 
d="M55 0l254 1434h484q202 0 314 -103.5t112 -271.5q0 -212 -141.5 -336.5t-372.5 -124.5h-435l-104 -598h-111zM784 1331h-385l-110 -631h413q182 0 292 96.5t110 262.5q0 129 -84 200.5t-236 71.5z" />
    <glyph glyph-name="Q" unicode="Q" horiz-adv-x="1529" 
d="M1188 168q26 -40 51.5 -53t75.5 -13h108l-18 -102h-113q-72 0 -111.5 21.5t-70.5 76.5l-4 6q-174 -116 -389 -116q-180 0 -315.5 78t-207 216t-71.5 316q0 228 93.5 421t268 310t392.5 117q179 0 314 -78t206 -215.5t71 -316.5q0 -199 -74 -375t-206 -293zM721 88
q182 0 334 102l-72 121q-24 44 -49.5 60t-67.5 16h-127l17 102h137q62 0 96.5 -21.5t67.5 -78.5l78 -131q106 104 164.5 256t58.5 322q0 228 -132.5 369t-355.5 141q-141 0 -261 -61t-201 -163.5t-126.5 -238.5t-45.5 -285q0 -228 131.5 -369t353.5 -141z" />
    <glyph glyph-name="R" unicode="R" horiz-adv-x="1220" 
d="M1219 1059q0 -185 -110.5 -305t-297.5 -148l223 -606h-123l-219 598h-422l-104 -598h-111l254 1434h484q202 0 314 -103.5t112 -271.5zM289 700h413q182 0 292 96.5t110 262.5q0 129 -84 200.5t-236 71.5h-385z" />
    <glyph glyph-name="S" unicode="S" horiz-adv-x="1222" 
d="M582 -12q-235 0 -367.5 119.5t-132.5 332.5h108q3 -172 110 -262t280 -90q192 0 304.5 80t112.5 231q0 47 -20 85.5t-51.5 66t-81 52t-98 40.5t-113.5 33q-73 18 -129 37t-113.5 49.5t-94.5 66.5t-60 88t-23 115q0 132 69 227t185 141t266 46q216 0 338.5 -109.5
t124.5 -289.5h-109q-3 136 -100 217.5t-260 81.5q-182 0 -292.5 -80.5t-110.5 -227.5q0 -45 18.5 -83t48 -64t77 -49t93.5 -38.5t109 -31.5q94 -23 164.5 -50t136.5 -69.5t101.5 -104t35.5 -140.5q0 -201 -144 -310.5t-382 -109.5z" />
    <glyph glyph-name="T" unicode="T" horiz-adv-x="1175" 
d="M182 1331l21 103h1093l-20 -103h-492l-233 -1331h-111l234 1331h-492z" />
    <glyph glyph-name="U" unicode="U" horiz-adv-x="1329" 
d="M154 596l149 838h111l-152 -850q-14 -71 -14 -140q0 -173 91 -263.5t269 -90.5q207 0 320.5 123t158.5 377l152 844h111l-152 -844q-53 -302 -193 -452t-399 -150q-229 0 -349 116.5t-120 331.5q0 63 17 160z" />
    <glyph glyph-name="V" unicode="V" horiz-adv-x="1255" 
d="M553 131l715 1303h121l-787 -1434h-133l-281 1434h113z" />
    <glyph glyph-name="W" unicode="W" horiz-adv-x="1949" 
d="M383 0l-178 1434h114l150 -1289l610 1289h113l145 -1289l611 1289h118l-686 -1434h-133l-145 1249l-588 -1249h-131z" />
    <glyph glyph-name="X" unicode="X" horiz-adv-x="1212" 
d="M582 735l-349 699h123l306 -611l524 611h133l-602 -705l368 -729h-124l-326 641l-559 -641h-131z" />
    <glyph glyph-name="Y" unicode="Y" horiz-adv-x="1259" 
d="M645 639l619 795h129l-709 -906l-98 -528h-105l94 528l-387 906h117z" />
    <glyph glyph-name="Z" unicode="Z" horiz-adv-x="1193" 
d="M225 1331l21 103h1038l-14 -82l-1143 -1250h942l-18 -102h-1090l12 82l1143 1249h-891z" />
    <glyph glyph-name="a" unicode="a" horiz-adv-x="1089" 
d="M952 96h43l-16 -96h-59q-74 0 -111 31.5t-37 87.5q0 1 4 51q-146 -182 -403 -182q-153 0 -246.5 73t-93.5 197q0 87 34 152.5t96.5 105t145 59t183.5 19.5h354l16 82q6 69 6 76q0 98 -71 152t-197 54q-259 0 -340 -210h-106q45 145 161 224t297 79q166 0 264.5 -77
t98.5 -216q0 -41 -10 -99l-80 -438q-8 -54 -8 -59q0 -66 75 -66zM817 424l14 80h-358q-154 0 -244 -59t-90 -179q0 -86 66.5 -137t177.5 -51q180 0 293 96.5t141 249.5z" />
    <glyph glyph-name="b" unicode="b" horiz-adv-x="1187" 
d="M692 1051q187 0 303.5 -122t116.5 -313q0 -131 -43.5 -247.5t-118 -200t-179 -132t-222.5 -48.5q-147 0 -242 65t-127 174l-59 -227h-92l254 1434h104l-108 -613q69 105 175.5 167.5t237.5 62.5zM539 82q103 0 192.5 44.5t148.5 117.5t92.5 165.5t33.5 188.5
q0 166 -89.5 263t-238.5 97q-103 0 -191.5 -45t-147.5 -118t-92.5 -166t-33.5 -189q0 -167 88.5 -262.5t237.5 -95.5z" />
    <glyph glyph-name="c" unicode="c" horiz-adv-x="1087" 
d="M879 336h104q-46 -169 -174 -258.5t-301 -89.5q-192 0 -311 123.5t-119 314.5q0 175 70 317t201 225t298 83q177 0 282.5 -94t110.5 -252h-102q-7 118 -89 185.5t-210 67.5q-136 0 -241.5 -73.5t-159.5 -192t-54 -260.5q0 -157 91.5 -253.5t240.5 -96.5q128 0 223.5 66.5
t139.5 187.5z" />
    <glyph glyph-name="d" unicode="d" horiz-adv-x="1189" 
d="M1014 797l112 637h105l-254 -1434h-92l20 209q-67 -102 -172 -161.5t-237 -59.5q-186 0 -302 122t-116 312q0 174 72.5 318t202 227.5t288.5 83.5q151 0 247.5 -70t125.5 -184zM512 82q83 0 156.5 29t129 79t96 116t61 141.5t20.5 152.5q0 166 -88.5 262t-237.5 96
q-103 0 -191.5 -44.5t-147.5 -117.5t-92.5 -165.5t-33.5 -188.5q0 -168 89 -264t239 -96z" />
    <glyph glyph-name="e" unicode="e" horiz-adv-x="1120" 
d="M643 1051q187 0 296.5 -107.5t109.5 -292.5q0 -76 -13 -137h-843q-9 -46 -9 -86q0 -149 88.5 -247.5t245.5 -98.5q260 0 375 262h104q-57 -168 -185.5 -262t-295.5 -94q-199 0 -318.5 121.5t-119.5 316.5q0 124 41 237.5t113.5 199.5t179.5 137t231 51zM211 606h723
q4 36 4 53q0 141 -82.5 220t-224.5 79q-148 0 -264 -98t-156 -254z" />
    <glyph glyph-name="f" unicode="f" horiz-adv-x="612" 
d="M80 942l16 96h197l26 156q22 127 87 183.5t194 56.5h180l-18 -97h-166q-78 0 -119 -35t-53 -112l-27 -152h312l-17 -96h-311l-168 -942h-104l167 942h-196z" />
    <glyph glyph-name="g" unicode="g" horiz-adv-x="1187" 
d="M1008 811l59 227h92l-172 -977q-45 -249 -177 -366t-380 -117q-203 0 -311.5 90t-108.5 246h107q3 -116 88 -179t229 -63q194 0 305 97.5t146 302.5l24 151q-69 -108 -175 -171.5t-238 -63.5q-188 0 -303 122t-115 314q0 175 73 318.5t202.5 226t287.5 82.5
q147 0 241.5 -65.5t125.5 -174.5zM510 82q103 0 192 45t148 119t92 167t33 189q0 167 -88.5 261.5t-237.5 94.5q-136 0 -244.5 -75.5t-164.5 -192.5t-56 -250q0 -166 88.5 -262t237.5 -96z" />
    <glyph glyph-name="h" unicode="h" 
d="M680 1051q157 0 249.5 -87.5t92.5 -256.5q0 -50 -14 -132l-101 -575h-104l100 571q12 78 12 127q0 123 -67 189.5t-191 66.5q-166 0 -281.5 -120.5t-152.5 -325.5l-90 -508h-104l254 1434h104l-111 -627q68 114 169.5 179t234.5 65z" />
    <glyph glyph-name="i" unicode="i" horiz-adv-x="346" 
d="M309 1257q-29 0 -48 19t-19 47q0 35 23.5 58.5t56.5 23.5q29 0 48 -19t19 -47q0 -36 -23.5 -59t-56.5 -23zM29 0l184 1038h104l-184 -1038h-104z" />
    <glyph glyph-name="j" unicode="j" horiz-adv-x="358" 
d="M319 1257q-29 0 -48 19t-19 47q0 35 23.5 58.5t56.5 23.5q29 0 48 -19t19 -47q0 -36 -23.5 -59t-56.5 -23zM-295 -410l16 97h117q78 0 120 35.5t54 111.5l213 1204h105l-213 -1208q-23 -127 -88 -183.5t-193 -56.5h-131z" />
    <glyph glyph-name="k" unicode="k" horiz-adv-x="1001" 
d="M29 0l254 1434h104l-180 -1008l704 612h142l-498 -432l340 -606h-115l-305 537l-291 -254l-51 -283h-104z" />
    <glyph glyph-name="l" unicode="l" horiz-adv-x="348" 
d="M29 0l254 1434h104l-254 -1434h-104z" />
    <glyph glyph-name="m" unicode="m" horiz-adv-x="1761" 
d="M1350 1051q144 0 234.5 -84t90.5 -246q0 -57 -12 -131l-104 -590h-105l105 592q10 68 10 113q0 123 -61 186t-175 63q-146 0 -251 -108t-136 -283l-100 -563h-105l105 592q10 51 10 113q0 123 -60.5 186t-172.5 63q-150 0 -256 -117t-140 -313l-94 -524h-104l184 1038h90
l-22 -215q129 228 360 228q129 0 209 -69.5t92 -193.5q59 117 164.5 190t243.5 73z" />
    <glyph glyph-name="n" unicode="n" 
d="M680 1051q157 0 249.5 -87.5t92.5 -256.5q0 -50 -14 -132l-101 -575h-104l100 571q12 78 12 127q0 123 -67 189.5t-191 66.5q-167 0 -282 -120.5t-152 -325.5l-90 -508h-104l184 1038h90l-20 -215q63 105 164 166.5t233 61.5z" />
    <glyph glyph-name="o" unicode="o" horiz-adv-x="1163" 
d="M508 -12q-193 0 -311.5 122t-118.5 314q0 173 74.5 316.5t207 227t295.5 83.5q193 0 311.5 -121.5t118.5 -313.5q0 -174 -74.5 -318t-207 -227t-295.5 -83zM516 82q136 0 244 74t164.5 194t56.5 260q0 155 -92.5 251.5t-241.5 96.5q-135 0 -243 -74t-165 -194.5
t-57 -261.5q0 -154 92.5 -250t241.5 -96z" />
    <glyph glyph-name="p" unicode="p" horiz-adv-x="1189" 
d="M692 1051q187 0 302.5 -124t115.5 -315q0 -174 -73 -317t-202.5 -225t-287.5 -82q-150 0 -247 70t-126 184l-113 -652h-104l254 1448h92l-20 -213q70 103 174.5 164.5t234.5 61.5zM539 82q103 0 192 44.5t148 117.5t92 165.5t33 188.5q0 168 -89 264t-239 96
q-102 0 -190.5 -45t-147 -118t-92 -166t-33.5 -189q0 -167 88.5 -262.5t237.5 -95.5z" />
    <glyph glyph-name="q" unicode="q" horiz-adv-x="1187" 
d="M1010 807l59 231h90l-254 -1448h-104l108 631q-70 -107 -175 -170t-238 -63q-186 0 -302 122t-116 312q0 174 72.5 318t202 227.5t288.5 83.5q147 0 242 -66.5t127 -177.5zM512 82q103 0 191.5 45t147 118t91.5 166t33 189q0 166 -88.5 262t-237.5 96
q-103 0 -191.5 -44.5t-147.5 -117.5t-92.5 -165.5t-33.5 -188.5q0 -168 89 -264t239 -96z" />
    <glyph glyph-name="r" unicode="r" horiz-adv-x="647" 
d="M635 1038h57l-16 -100h-74q-300 0 -377 -416l-92 -522h-104l184 1038h90l-20 -196q53 93 135 144.5t217 51.5z" />
    <glyph glyph-name="s" unicode="s" horiz-adv-x="970" 
d="M537 1051q174 0 277.5 -79t103.5 -227h-105q-1 101 -76.5 158.5t-199.5 57.5q-142 0 -224 -53.5t-82 -143.5q0 -35 13.5 -62t35 -45.5t57.5 -33.5t71.5 -24t85.5 -19q90 -17 151 -36.5t111.5 -51t75 -78.5t24.5 -111q0 -101 -57.5 -173.5t-151.5 -107t-213 -34.5
q-176 0 -288.5 89t-112.5 242h102q4 -116 86 -178.5t215 -62.5q142 0 229 56.5t87 156.5q0 83 -67.5 124.5t-203.5 65.5q-86 16 -144 34.5t-109 49t-76 77.5t-25 112q0 140 113 218.5t297 78.5z" />
    <glyph glyph-name="t" unicode="t" horiz-adv-x="630" 
d="M156 262l120 680h-196l16 96h197l51 291h105l-52 -291h277l-17 -96h-276l-125 -702q-6 -27 -6 -52q0 -50 28.5 -71t92.5 -21h149l-16 -96h-150q-109 0 -159 41.5t-50 128.5q0 20 11 92z" />
    <glyph glyph-name="u" unicode="u" horiz-adv-x="1091" 
d="M868 532l90 506h105l-184 -1038h-91l21 213q-141 -225 -391 -225q-152 0 -242 84t-90 247q0 63 14 142l103 577h104l-102 -577q-12 -82 -12 -129q0 -121 62.5 -184.5t182.5 -63.5q162 0 278.5 121.5t151.5 326.5z" />
    <glyph glyph-name="v" unicode="v" horiz-adv-x="974" 
d="M412 115l520 923h115l-590 -1038h-123l-223 1038h104z" />
    <glyph glyph-name="w" unicode="w" horiz-adv-x="1591" 
d="M283 0l-168 1038h106l141 -913l476 913h98l133 -913l479 913h113l-553 -1038h-113l-137 872l-461 -872h-114z" />
    <glyph glyph-name="x" unicode="x" horiz-adv-x="960" 
d="M903 1038h123l-477 -512l305 -526h-117l-266 457l-424 -457h-123l500 539l-291 499h117l250 -430z" />
    <glyph glyph-name="y" unicode="y" horiz-adv-x="976" 
d="M338 -4l-227 1042h104l197 -917l524 917h113l-713 -1235q-76 -131 -125.5 -172t-149.5 -41h-161l16 97h125q78 0 115 28.5t92 122.5z" />
    <glyph glyph-name="z" unicode="z" horiz-adv-x="935" 
d="M143 942l15 96h796l-12 -82l-836 -860h713l-18 -96h-848l12 84l834 858h-656z" />
    </font>
</defs>
</svg>
